<svg width="15" height="15" viewBox="0 0 15 15" fill="none" xmlns="http://www.w3.org/2000/svg">
<path d="M11.919 13.2918C11.7918 13.2919 11.6674 13.2542 11.5616 13.1835C11.4558 13.1128 11.3734 13.0123 11.3248 12.8948C11.2761 12.7772 11.2635 12.6479 11.2884 12.5231C11.3133 12.3984 11.3747 12.2838 11.4648 12.194C12.638 11.0208 13.2842 9.46016 13.2842 7.80015C13.2842 6.14014 12.638 4.5804 11.4648 3.40631C11.4051 3.34661 11.3577 3.27573 11.3254 3.19772C11.2931 3.11971 11.2765 3.03611 11.2765 2.95167C11.2765 2.86724 11.2931 2.78363 11.3254 2.70562C11.3577 2.62762 11.4051 2.55674 11.4648 2.49703C11.5245 2.43733 11.5954 2.38997 11.6734 2.35766C11.7514 2.32535 11.835 2.30872 11.9194 2.30872C12.0038 2.30872 12.0875 2.32535 12.1655 2.35766C12.2435 2.38997 12.3143 2.43733 12.374 2.49703C13.7907 3.91365 14.5705 5.79648 14.5705 7.79929C14.5705 9.8021 13.7907 11.6849 12.374 13.1016C12.3145 13.1613 12.2437 13.2088 12.1657 13.2411C12.0878 13.2735 12.0042 13.2901 11.9198 13.2901L11.919 13.2918ZM9.63593 12.08C9.50871 12.0801 9.38434 12.0424 9.27856 11.9717C9.17278 11.901 9.09035 11.8005 9.04172 11.683C8.99308 11.5654 8.98042 11.4361 9.00535 11.3113C9.03027 11.1866 9.09165 11.072 9.18172 10.9822C10.0243 10.1377 10.4976 8.99352 10.4976 7.80058C10.4976 6.60764 10.0243 5.46342 9.18172 4.61897C9.12202 4.55926 9.07466 4.48838 9.04235 4.41038C9.01004 4.33237 8.9934 4.24876 8.9934 4.16433C8.9934 4.07989 9.01004 3.99629 9.04235 3.91828C9.07466 3.84027 9.12202 3.76939 9.18172 3.70969C9.24143 3.64998 9.3123 3.60262 9.39031 3.57031C9.46832 3.538 9.55193 3.52137 9.63636 3.52137C9.72079 3.52137 9.8044 3.538 9.88241 3.57031C9.96042 3.60262 10.0313 3.64998 10.091 3.70969C11.1837 4.80236 11.7853 6.25498 11.7853 7.80015C11.7853 9.34532 11.1837 10.7979 10.091 11.8906C10.0314 11.9504 9.96064 11.9978 9.88269 12.0302C9.80475 12.0625 9.72118 12.0792 9.63679 12.0792L9.63593 12.08ZM7.35203 10.8674C7.22481 10.8674 7.10044 10.8297 6.99466 10.759C6.88888 10.6884 6.80645 10.5879 6.75781 10.4703C6.70917 10.3528 6.69652 10.2234 6.72144 10.0987C6.74636 9.97393 6.80775 9.85938 6.89782 9.76954C7.41926 9.24676 7.7121 8.53853 7.7121 7.80015C7.7121 7.06177 7.41926 6.35354 6.89782 5.83076C6.77724 5.71019 6.7095 5.54665 6.7095 5.37612C6.7095 5.29169 6.72613 5.20808 6.75844 5.13008C6.79075 5.05207 6.83811 4.98119 6.89782 4.92149C6.95752 4.86178 7.0284 4.81442 7.10641 4.78211C7.18441 4.7498 7.26802 4.73317 7.35246 4.73317C7.52298 4.73317 7.68652 4.80091 7.80709 4.92149C8.56938 5.68558 8.99747 6.72084 8.99747 7.80015C8.99747 8.87947 8.56938 9.91472 7.80709 10.6788C7.74752 10.7386 7.67673 10.786 7.59879 10.8184C7.52084 10.8507 7.43728 10.8674 7.35288 10.8674H7.35203Z" fill="white"/>
<path d="M5.57136 13.8C5.45771 13.7998 5.34871 13.7549 5.26798 13.6749L1.9651 10.372H0.4285C0.314855 10.372 0.205864 10.3268 0.125505 10.2465C0.0451454 10.1661 0 10.0571 0 9.94349V5.65849C0 5.54484 0.0451454 5.43585 0.125505 5.35549C0.205864 5.27513 0.314855 5.22999 0.4285 5.22999H1.9651L5.26798 1.92711C5.32775 1.8666 5.4042 1.82529 5.48756 1.80845C5.57092 1.79162 5.65741 1.80002 5.73598 1.83258C5.81454 1.86515 5.88162 1.9204 5.92862 1.99128C5.97562 2.06216 6.00043 2.14544 5.99986 2.23049V13.3715C5.99986 13.4851 5.95471 13.5941 5.87435 13.6745C5.79399 13.7548 5.685 13.8 5.57136 13.8Z" fill="white"/>
</svg>
