<svg width="600" height="270" viewBox="0 0 600 270" fill="none" xmlns="http://www.w3.org/2000/svg">
<rect width="600" height="270" fill="white"/>
<path fill-rule="evenodd" clip-rule="evenodd" d="M113.795 42.0049C107.337 30.9175 97.1569 22.323 85.012 18C91.2944 29.4841 101.507 38.4537 113.795 43.03V55.7375C107.337 44.6503 97.157 36.056 85.0122 31.733C91.2946 43.2171 101.507 52.1866 113.795 56.763V68.8097C107.337 57.7224 97.157 49.1281 85.0122 44.8052C91.2946 56.2892 101.507 65.2587 113.795 69.8351V78H116.205V69.8375C128.495 65.2618 138.71 56.2912 144.994 44.8052C132.845 49.1295 122.663 57.7281 116.205 68.8207V56.7654C128.495 52.1897 138.71 43.2191 144.994 31.733C132.845 36.0574 122.663 44.656 116.205 55.7485V43.0323C128.495 38.4567 138.71 29.486 144.994 18C132.845 22.3244 122.663 30.923 116.205 42.0155V31.1588C122.772 29.1528 128.13 24.3178 130.918 18.0486C124.566 19.7708 119.26 24.1181 116.205 29.8732V18H113.795V29.8728C110.74 24.1179 105.434 19.7708 99.0815 18.0486C101.869 24.3176 107.233 29.1524 113.795 31.1586V42.0049ZM85 58.6C96.677 61.4551 106.781 68.4357 113.734 77.9261C102.057 75.0771 91.9527 68.0966 85 58.6ZM145 58.6C133.323 61.4551 123.219 68.4357 116.266 77.9261C127.943 75.0771 138.047 68.0966 145 58.6Z" fill="#CD4842"/>
<path fill-rule="evenodd" clip-rule="evenodd" d="M245.995 20.0041C240.614 10.7646 232.131 3.60249 222.01 0C227.245 9.5701 235.756 17.0447 245.995 20.8584V31.4479C240.614 22.2086 232.131 15.0466 222.01 11.4442C227.246 21.0142 235.756 28.4888 245.995 32.3025V42.3414C240.614 33.102 232.131 25.9401 222.01 22.3376C227.246 31.9077 235.756 39.3823 245.995 43.1959V50H248.004V43.1979C258.246 39.3849 266.759 31.9093 271.995 22.3376C261.871 25.9413 253.386 33.1068 248.004 42.3506V32.3045C258.246 28.4914 266.759 21.0159 271.995 11.4442C261.871 15.0478 253.386 22.2133 248.004 31.4571V20.8603C258.246 17.0472 266.759 9.5717 271.995 0C261.871 3.60364 253.386 10.7691 248.004 20.0129V10.9657C253.477 9.29399 257.942 5.26486 260.265 0.0404676C254.971 1.47571 250.55 5.09839 248.004 9.89433V0L245.995 0V9.89401C243.45 5.09823 239.028 1.47568 233.735 0.0404676C236.058 5.26465 240.528 9.29366 245.995 10.9655V20.0041ZM222 33.8333C231.731 36.2126 240.151 42.0298 245.945 49.9384C236.214 47.5643 227.794 41.7471 222 33.8333ZM272 33.8333C262.269 36.2126 253.849 42.0298 248.055 49.9384C257.786 47.5643 266.206 41.7471 272 33.8333Z" fill="black"/>
<path fill-rule="evenodd" clip-rule="evenodd" d="M521.205 245.995C527.663 257.083 537.843 265.677 549.988 270C543.706 258.516 533.493 249.546 521.205 244.97L521.205 232.262C527.663 243.35 537.843 251.944 549.988 256.267C543.705 244.783 533.493 235.813 521.205 231.237L521.205 219.19C527.663 230.278 537.843 238.872 549.988 243.195C543.705 231.711 533.493 222.741 521.205 218.165L521.205 210L518.795 210L518.795 218.163C506.505 222.738 496.29 231.709 490.006 243.195C502.155 238.87 512.337 230.272 518.795 219.179L518.795 231.235C506.505 235.81 496.29 244.781 490.006 256.267C502.155 251.943 512.337 243.344 518.795 232.251L518.795 244.968C506.505 249.543 496.29 258.514 490.006 270C502.155 265.676 512.337 257.077 518.795 245.984L518.795 256.841C512.228 258.847 506.87 263.682 504.082 269.951C510.434 268.229 515.74 263.882 518.795 258.127L518.795 270L521.205 270L521.205 258.127C524.26 263.882 529.566 268.229 535.918 269.951C533.131 263.682 527.767 258.848 521.205 256.841L521.205 245.995ZM550 229.4C538.323 226.545 528.219 219.564 521.266 210.074C532.943 212.923 543.047 219.903 550 229.4ZM490 229.4C501.677 226.545 511.781 219.564 518.734 210.074C507.057 212.923 496.953 219.903 490 229.4Z" fill="black"/>
<path fill-rule="evenodd" clip-rule="evenodd" d="M36.2054 189.995C42.6633 201.083 52.8431 209.677 64.988 214C58.7056 202.516 48.4928 193.546 36.2054 188.97L36.2054 176.263C42.6633 187.35 52.843 195.944 64.9878 200.267C58.7054 188.783 48.4927 179.813 36.2054 175.237L36.2054 163.19C42.6633 174.278 52.843 182.872 64.9878 187.195C58.7054 175.711 48.4927 166.741 36.2054 162.165L36.2054 154L33.7948 154L33.7948 162.163C21.5046 166.738 11.2895 175.709 5.006 187.195C17.1548 182.871 27.3372 174.272 33.7948 163.179L33.7948 175.235C21.5046 179.81 11.2895 188.781 5.00599 200.267C17.1548 195.943 27.3372 187.344 33.7948 176.252L33.7948 188.968C21.5046 193.543 11.2895 202.514 5.00599 214C17.1548 209.676 27.3372 201.077 33.7948 189.985L33.7948 200.841C27.228 202.847 21.8695 207.682 19.0815 213.951C25.4343 212.229 30.7398 207.882 33.7948 202.127L33.7948 214L36.2054 214L36.2054 202.127C39.2604 207.882 44.5658 212.229 50.9185 213.951C48.1306 207.682 42.7668 202.848 36.2054 200.841L36.2054 189.995ZM65 173.4C53.323 170.545 43.2188 163.564 36.266 154.074C47.943 156.923 58.0473 163.904 65 173.4ZM5.00005 173.4C16.677 170.545 26.7813 163.564 33.734 154.074C22.057 156.923 11.9528 163.903 5.00005 173.4Z" fill="black"/>
<path fill-rule="evenodd" clip-rule="evenodd" d="M448.205 207.995C454.663 219.083 464.843 227.677 476.988 232C470.706 220.516 460.493 211.546 448.205 206.97L448.205 194.263C454.663 205.35 464.843 213.944 476.988 218.267C470.705 206.783 460.493 197.813 448.205 193.237L448.205 181.19C454.663 192.278 464.843 200.872 476.988 205.195C470.705 193.711 460.493 184.741 448.205 180.165L448.205 172L445.795 172L445.795 180.163C433.505 184.738 423.29 193.709 417.006 205.195C429.155 200.871 439.337 192.272 445.795 181.179L445.795 193.235C433.505 197.81 423.29 206.781 417.006 218.267C429.155 213.943 439.337 205.344 445.795 194.252L445.795 206.968C433.505 211.543 423.29 220.514 417.006 232C429.155 227.676 439.337 219.077 445.795 207.985L445.795 218.841C439.228 220.847 433.87 225.682 431.082 231.951C437.434 230.229 442.74 225.882 445.795 220.127L445.795 232L448.205 232L448.205 220.127C451.26 225.882 456.566 230.229 462.918 231.951C460.131 225.682 454.767 220.848 448.205 218.841L448.205 207.995ZM477 191.4C465.323 188.545 455.219 181.564 448.266 172.074C459.943 174.923 470.047 181.904 477 191.4ZM417 191.4C428.677 188.545 438.781 181.564 445.734 172.074C434.057 174.923 423.953 181.903 417 191.4Z" fill="black"/>
<path fill-rule="evenodd" clip-rule="evenodd" d="M380.005 229.996C385.386 239.235 393.869 246.398 403.99 250C398.755 240.43 390.244 232.955 380.005 229.142L380.005 218.552C385.386 227.791 393.869 234.953 403.99 238.556C398.754 228.986 390.244 221.511 380.005 217.698L380.005 207.659C385.386 216.898 393.869 224.06 403.99 227.662C398.754 218.092 390.244 210.618 380.005 206.804L380.005 200L377.996 200L377.996 206.802C367.754 210.615 359.241 218.091 354.005 227.662C364.129 224.059 372.614 216.893 377.996 207.649L377.996 217.696C367.754 221.509 359.241 228.984 354.005 238.556C364.129 234.952 372.614 227.787 377.996 218.543L377.996 229.14C367.754 232.953 359.241 240.428 354.005 250C364.129 246.396 372.614 239.231 377.996 229.987L377.996 239.034C372.523 240.706 368.058 244.735 365.735 249.96C371.029 248.524 375.45 244.902 377.996 240.106L377.996 250L380.005 250L380.005 240.106C382.55 244.902 386.972 248.524 392.265 249.96C389.942 244.735 385.472 240.706 380.005 239.035L380.005 229.996ZM404 216.167C394.269 213.787 385.849 207.97 380.055 200.062C389.786 202.436 398.206 208.253 404 216.167ZM354 216.167C363.731 213.787 372.151 207.97 377.945 200.062C368.214 202.436 359.794 208.253 354 216.167Z" fill="#CD4842"/>
</svg>
