<svg width="300" height="300" viewBox="0 0 300 300" fill="none" xmlns="http://www.w3.org/2000/svg">
<g id="coin">
<circle id="bg" cx="150" cy="150" r="150" fill="#F6A94B"/>
<path id="rim" fill-rule="evenodd" clip-rule="evenodd" d="M299.901 144C297.007 224.295 231.001 288.5 150 288.5C68.9986 288.5 2.99304 224.295 0.0989685 144C0.0331726 145.825 0 147.659 0 149.5C0 232.343 67.1573 299.5 150 299.5C232.843 299.5 300 232.343 300 149.5C300 147.659 299.967 145.825 299.901 144Z" fill="#E3983E"/>
<path id="shine-2" fill-rule="evenodd" clip-rule="evenodd" d="M45.4631 210.818L214.242 42.0393C224.558 47.9842 233.907 55.3176 242.009 63.7701L69.2086 236.57C60.0723 229.134 52.0635 220.46 45.4631 210.818Z" fill="white"/>
<path id="shine-1" fill-rule="evenodd" clip-rule="evenodd" d="M25.4578 134.657L134.161 25.9543C139.348 25.3245 144.634 25 150 25C170.097 25 189.087 29.5531 205.91 37.6434L40.5475 203.006C30.6399 185.813 25 166.039 25 145C25 141.516 25.1547 138.066 25.4578 134.657Z" fill="white"/>
<path id="inside" d="M272.5 145C272.5 209.798 217.752 262.5 150 262.5C82.248 262.5 27.5 209.798 27.5 145C27.5 80.2017 82.248 27.5 150 27.5C217.752 27.5 272.5 80.2017 272.5 145Z" stroke="#E3983E" stroke-width="5"/>
<path id="glimmer-1" fill-rule="evenodd" clip-rule="evenodd" d="M182 116C182 114.769 182.961 113.759 184.182 113.605C199.516 111.666 211.666 99.5157 213.605 84.1821C213.759 82.9609 214.769 82 216 82C217.231 82 218.241 82.9609 218.395 84.1821C220.334 99.5157 232.484 111.666 247.818 113.605C249.039 113.759 250 114.769 250 116C250 117.231 249.039 118.241 247.818 118.395C232.484 120.334 220.334 132.484 218.395 147.818C218.241 149.039 217.231 150 216 150C214.769 150 213.759 149.039 213.605 147.818C211.666 132.484 199.516 120.334 184.182 118.395C182.961 118.241 182 117.231 182 116Z" fill="white"/>
<path id="glimmer-2" fill-rule="evenodd" clip-rule="evenodd" d="M150 61.5C150 60.7578 150.579 60.1489 151.316 60.0558C160.561 58.8871 167.887 51.5609 169.056 42.3157C169.149 41.5794 169.758 41 170.5 41C171.242 41 171.851 41.5794 171.944 42.3157C173.113 51.5609 180.439 58.8871 189.684 60.0558C190.421 60.1489 191 60.7578 191 61.5C191 62.2422 190.421 62.8511 189.684 62.9442C180.439 64.1129 173.113 71.4391 171.944 80.6843C171.851 81.4206 171.242 82 170.5 82C169.758 82 169.149 81.4206 169.056 80.6843C167.887 71.4391 160.561 64.1129 151.316 62.9442C150.579 62.8511 150 62.2422 150 61.5Z" fill="white"/>
<path id="glimmer-3" fill-rule="evenodd" clip-rule="evenodd" d="M202 49C202 47.2261 203.385 45.7706 205.145 45.5481C227.243 42.7545 244.754 25.2432 247.548 3.14476C247.771 1.38482 249.226 0 251 0C252.774 0 254.229 1.38482 254.452 3.14476C257.246 25.2432 274.757 42.7545 296.855 45.5481C298.615 45.7706 300 47.2261 300 49C300 50.7739 298.615 52.2294 296.855 52.4519C274.757 55.2455 257.246 72.7568 254.452 94.8552C254.229 96.6152 252.774 98 251 98C249.226 98 247.771 96.6152 247.548 94.8552C244.754 72.7568 227.243 55.2455 205.145 52.4519C203.385 52.2294 202 50.7739 202 49Z" fill="white"/>
</g>
</svg>
