<svg width="300" height="300" viewBox="0 0 300 300" fill="none" xmlns="http://www.w3.org/2000/svg">
<g id="coin">
<circle id="bg" cx="150" cy="150" r="150" fill="#F6A94B"/>
<path id="rim" fill-rule="evenodd" clip-rule="evenodd" d="M299.901 144C297.007 224.295 231.001 288.5 150 288.5C68.9986 288.5 2.99304 224.295 0.0989685 144C0.0331726 145.825 0 147.659 0 149.5C0 232.343 67.1573 299.5 150 299.5C232.843 299.5 300 232.343 300 149.5C300 147.659 299.967 145.825 299.901 144Z" fill="#E3983E"/>
<path id="shine-2" fill-rule="evenodd" clip-rule="evenodd" d="M45.4631 210.818L214.242 42.0393C224.558 47.9842 233.907 55.3176 242.009 63.7701L69.2086 236.57C60.0723 229.134 52.0635 220.46 45.4631 210.818Z" fill="white"/>
<path id="shine-1" fill-rule="evenodd" clip-rule="evenodd" d="M25.4578 134.657L134.161 25.9543C139.348 25.3245 144.634 25 150 25C170.097 25 189.087 29.5531 205.91 37.6434L40.5475 203.006C30.6399 185.813 25 166.039 25 145C25 141.516 25.1547 138.066 25.4578 134.657Z" fill="white"/>
<path id="inside" d="M272.5 145C272.5 209.798 217.752 262.5 150 262.5C82.248 262.5 27.5 209.798 27.5 145C27.5 80.2017 82.248 27.5 150 27.5C217.752 27.5 272.5 80.2017 272.5 145Z" stroke="#E3983E" stroke-width="5"/>
<path id="glimmer-1" fill-rule="evenodd" clip-rule="evenodd" d="M124 50C124 48.8777 124.876 47.9569 125.99 47.8161C139.97 46.0488 151.049 34.9702 152.816 20.9895C152.957 19.8761 153.878 19 155 19V19C156.122 19 157.043 19.8761 157.184 20.9895C158.951 34.9702 170.03 46.0488 184.01 47.8161C185.124 47.9569 186 48.8777 186 50V50C186 51.1223 185.124 52.0431 184.01 52.1839C170.03 53.9512 158.951 65.0298 157.184 79.0105C157.043 80.1239 156.122 81 155 81V81C153.878 81 152.957 80.1239 152.816 79.0105C151.049 65.0298 139.97 53.9512 125.99 52.1839C124.876 52.0431 124 51.1223 124 50V50Z" fill="white"/>
<path id="glimmer-2" fill-rule="evenodd" clip-rule="evenodd" d="M230 140.5C230 139.758 230.579 139.149 231.316 139.056C240.561 137.887 247.887 130.561 249.056 121.316C249.149 120.579 249.758 120 250.5 120C251.242 120 251.851 120.579 251.944 121.316C253.113 130.561 260.439 137.887 269.684 139.056C270.421 139.149 271 139.758 271 140.5C271 141.242 270.421 141.851 269.684 141.944C260.439 143.113 253.113 150.439 251.944 159.684C251.851 160.421 251.242 161 250.5 161C249.758 161 249.149 160.421 249.056 159.684C247.887 150.439 240.561 143.113 231.316 141.944C230.579 141.851 230 141.242 230 140.5Z" fill="white"/>
<path id="glimmer-3" fill-rule="evenodd" clip-rule="evenodd" d="M202 50C202 48.2261 203.385 46.7706 205.145 46.5481C227.243 43.7545 244.754 26.2432 247.548 4.14476C247.771 2.38482 249.226 1 251 1C252.774 1 254.229 2.38482 254.452 4.14476C257.246 26.2432 274.757 43.7545 296.855 46.5481C298.615 46.7706 300 48.2261 300 50C300 51.7739 298.615 53.2294 296.855 53.4519C274.757 56.2455 257.246 73.7568 254.452 95.8552C254.229 97.6152 252.774 99 251 99C249.226 99 247.771 97.6152 247.548 95.8552C244.754 73.7568 227.243 56.2455 205.145 53.4519C203.385 53.2294 202 51.7739 202 50Z" fill="white"/>
</g>
</svg>
