<svg width="292" height="88" viewBox="0 0 292 88" fill="none" xmlns="http://www.w3.org/2000/svg">
<rect x="0.857178" y="0.897583" width="290.476" height="86.3" fill="#481511"/>
<path d="M41.0112 21.4976H35.5512V52.8016H23.1752V57.8976H41.0112V21.4976ZM50.8197 57.8976V42.4016H64.1317V57.8976H69.4877V21.4976H45.5157V57.8976H50.8197ZM50.8197 26.8536H64.1317V37.0456H50.8197V26.8536ZM87.1852 57.8976H101.693V21.4976H96.1292L96.1812 53.0616H92.2292L88.6412 21.4976H74.1332V57.8976H79.8532V26.3856H83.7532L87.1852 57.8976ZM142.7 47.3416L136.824 46.8736C136.252 47.8096 135.524 48.6936 134.744 49.5256C132.092 52.1776 128.608 53.6336 124.864 53.6336C121.12 53.6336 117.636 52.1776 114.984 49.5256C112.8 47.3416 111.396 44.5336 111.032 41.4656H144.208C144.26 40.8936 144.312 40.2696 144.312 39.6456C144.312 28.8816 135.628 20.1976 124.864 20.1976C114.1 20.1976 105.416 28.8816 105.416 39.6456C105.416 50.4096 114.1 59.0936 124.864 59.0936C132.872 59.0936 139.736 54.2576 142.7 47.3416ZM124.864 25.6576C128.608 25.6576 132.092 27.1136 134.744 29.7656C136.512 31.5336 137.76 33.7696 138.384 36.1096H111.344C111.968 33.7696 113.216 31.5336 114.984 29.7656C117.636 27.1136 121.12 25.6576 124.864 25.6576ZM153.351 57.8976V48.0696H156.575L164.479 57.8976H171.551L162.815 47.1336C164.479 46.4576 166.039 45.5216 167.339 44.2216C169.887 41.6736 171.239 38.3456 171.239 34.7576C171.239 31.2736 169.887 27.8416 167.339 25.3976C164.739 22.9536 161.515 21.4976 157.927 21.4976H147.891V57.8976H153.351ZM153.351 26.9576H157.927C162.243 26.9576 165.831 30.3896 165.831 34.7576C165.831 39.0736 162.243 42.6096 157.927 42.6096H153.351V26.9576ZM179.906 57.8976V42.4016H193.218V57.8976H198.574V21.4976H174.602V57.8976H179.906ZM179.906 26.8536H193.218V37.0456H179.906V26.8536ZM237.071 21.0296L208.575 33.9776V21.4976H203.219V57.8976H208.575V45.3656L237.071 58.2616V52.1256L209.615 39.6456L237.071 27.1136V21.0296ZM246.988 57.8976V42.4016H260.3V57.8976H265.656V21.4976H241.684V57.8976H246.988ZM246.988 26.8536H260.3V37.0456H246.988V26.8536Z" fill="white"/>
<path d="M265.952 67.6476C264.077 67.6476 263.021 68.3816 262.197 69.1013C262.169 69.1214 262.141 69.1411 262.114 69.1606C261.8 69.3859 261.543 69.5702 261.238 69.707C260.911 69.8532 260.522 69.9476 259.952 69.9476C259.383 69.9476 258.993 69.8532 258.667 69.707C258.362 69.5702 258.105 69.3859 257.791 69.1606C257.761 69.1394 257.731 69.1178 257.7 69.0959C257.673 69.0752 257.645 69.0542 257.616 69.0329C256.825 68.4372 255.775 67.6476 253.952 67.6476C252.077 67.6476 251.021 68.3816 250.197 69.1013C250.169 69.1214 250.141 69.1411 250.114 69.1606C249.8 69.3859 249.543 69.5702 249.238 69.707C248.911 69.8532 248.522 69.9476 247.952 69.9476C246.935 69.9476 246.389 69.5879 245.7 69.0959C245.672 69.0751 245.645 69.0541 245.616 69.0329C244.825 68.4372 243.775 67.6476 241.952 67.6476C240.077 67.6476 239.021 68.3816 238.197 69.1013C238.169 69.1214 238.141 69.1411 238.114 69.1606C237.8 69.3859 237.543 69.5702 237.238 69.707C236.911 69.8532 236.522 69.9476 235.952 69.9476C235.383 69.9476 234.993 69.8532 234.667 69.707C234.362 69.5702 234.105 69.3859 233.791 69.1606C233.761 69.1394 233.731 69.1178 233.7 69.0959C233.673 69.0752 233.645 69.0542 233.616 69.0329C232.825 68.4372 231.775 67.6476 229.952 67.6476C228.077 67.6476 227.021 68.3816 226.197 69.1013C226.169 69.1214 226.141 69.1411 226.114 69.1606C225.8 69.3859 225.543 69.5702 225.238 69.707C224.911 69.8532 224.522 69.9476 223.952 69.9476C222.935 69.9476 222.389 69.5879 221.7 69.0959C221.672 69.0751 221.645 69.0541 221.616 69.0329C220.825 68.4372 219.775 67.6476 217.952 67.6476C216.077 67.6476 215.021 68.3816 214.197 69.1013C214.169 69.1214 214.141 69.1411 214.114 69.1606C213.8 69.3859 213.543 69.5702 213.238 69.707C212.911 69.8532 212.522 69.9476 211.952 69.9476C210.935 69.9476 210.389 69.5878 209.7 69.0958C209.672 69.0751 209.645 69.0541 209.616 69.0329C208.825 68.4372 207.775 67.6476 205.952 67.6476C204.077 67.6476 203.021 68.3816 202.197 69.1013C202.169 69.1214 202.141 69.1411 202.114 69.1606C201.8 69.3859 201.543 69.5702 201.238 69.707C200.911 69.8532 200.522 69.9476 199.952 69.9476C199.383 69.9476 198.993 69.8532 198.667 69.707C198.362 69.5702 198.105 69.3859 197.79 69.1606C197.761 69.1394 197.731 69.1178 197.7 69.0959C197.672 69.0751 197.645 69.0541 197.616 69.0329C196.825 68.4372 195.775 67.6476 193.952 67.6476C192.077 67.6476 191.021 68.3816 190.197 69.1013C190.169 69.1214 190.141 69.1411 190.114 69.1606C189.8 69.3859 189.543 69.5702 189.238 69.707C188.911 69.8532 188.522 69.9476 187.952 69.9476C186.935 69.9476 186.389 69.5878 185.7 69.0958C185.672 69.0751 185.645 69.0541 185.616 69.0329C184.825 68.4372 183.775 67.6476 181.952 67.6476C181.596 67.6476 181.279 67.7676 181.051 67.9958C180.822 68.224 180.702 68.5408 180.702 68.8976C180.702 69.2544 180.822 69.5712 181.051 69.7994C181.279 70.0276 181.596 70.1476 181.952 70.1476C182.97 70.1476 183.516 70.5073 184.205 70.9993C184.232 71.02 184.26 71.041 184.288 71.0623C185.08 71.658 186.13 72.4476 187.952 72.4476C189.828 72.4476 190.884 71.7135 191.708 70.9939C191.736 70.9738 191.763 70.954 191.79 70.9346C192.105 70.7093 192.362 70.5249 192.667 70.3882C192.993 70.2419 193.383 70.1476 193.952 70.1476C194.522 70.1476 194.911 70.2419 195.238 70.3882C195.543 70.5249 195.8 70.7093 196.114 70.9346C196.144 70.9558 196.174 70.9774 196.205 70.9993C196.232 71.02 196.26 71.041 196.288 71.0623C197.08 71.658 198.13 72.4476 199.952 72.4476C201.828 72.4476 202.884 71.7135 203.708 70.9939C203.736 70.9738 203.763 70.954 203.79 70.9346C204.105 70.7093 204.362 70.5249 204.667 70.3882C204.993 70.2419 205.383 70.1476 205.952 70.1476C206.97 70.1476 207.516 70.5073 208.205 70.9993C208.232 71.02 208.26 71.041 208.288 71.0623C209.08 71.658 210.13 72.4476 211.952 72.4476C213.828 72.4476 214.884 71.7135 215.708 70.9939C215.736 70.9738 215.763 70.954 215.791 70.9346C216.105 70.7092 216.362 70.5249 216.667 70.3882C216.993 70.2419 217.383 70.1476 217.952 70.1476C218.97 70.1476 219.516 70.5073 220.205 70.9993C220.232 71.02 220.26 71.041 220.288 71.0623C221.08 71.658 222.13 72.4476 223.952 72.4476C225.828 72.4476 226.884 71.7135 227.708 70.9939C227.736 70.9738 227.763 70.954 227.791 70.9346C228.105 70.7092 228.362 70.5249 228.667 70.3882C228.993 70.2419 229.383 70.1476 229.952 70.1476C230.522 70.1476 230.911 70.2419 231.238 70.3882C231.543 70.5249 231.8 70.7092 232.114 70.9346C232.144 70.9558 232.174 70.9773 232.205 70.9993C232.232 71.02 232.26 71.041 232.288 71.0623C233.08 71.658 234.13 72.4476 235.952 72.4476C237.828 72.4476 238.884 71.7135 239.708 70.9939C239.736 70.9738 239.763 70.954 239.791 70.9346C240.105 70.7092 240.362 70.5249 240.667 70.3882C240.993 70.2419 241.383 70.1476 241.952 70.1476C242.97 70.1476 243.516 70.5073 244.205 70.9993C244.232 71.02 244.26 71.041 244.288 71.0623C245.08 71.658 246.13 72.4476 247.952 72.4476C249.828 72.4476 250.884 71.7135 251.708 70.9939C251.736 70.9738 251.763 70.954 251.791 70.9346C252.105 70.7092 252.362 70.5249 252.667 70.3882C252.993 70.2419 253.383 70.1476 253.952 70.1476C254.522 70.1476 254.911 70.2419 255.238 70.3882C255.543 70.5249 255.8 70.7092 256.114 70.9346C256.144 70.9558 256.174 70.9773 256.205 70.9993C256.232 71.02 256.26 71.041 256.288 71.0623C257.08 71.658 258.13 72.4476 259.952 72.4476C261.828 72.4476 262.884 71.7135 263.708 70.9939C263.736 70.9738 263.763 70.954 263.791 70.9346C264.105 70.7092 264.362 70.5249 264.667 70.3882C264.993 70.2419 265.383 70.1476 265.952 70.1476C266.309 70.1476 266.626 70.0276 266.854 69.7994C267.082 69.5712 267.202 69.2544 267.202 68.8976C267.202 68.1435 266.574 67.6476 265.952 67.6476Z" fill="white" stroke="white" stroke-width="0.5"/>
<path d="M110.238 67.6476C108.362 67.6476 107.307 68.3816 106.483 69.1013C106.455 69.1214 106.427 69.1411 106.4 69.1606C106.085 69.3859 105.828 69.5702 105.523 69.707C105.197 69.8532 104.807 69.9476 104.238 69.9476C103.669 69.9476 103.279 69.8532 102.953 69.707C102.648 69.5702 102.391 69.3859 102.076 69.1606C102.047 69.1394 102.016 69.1178 101.986 69.0959C101.958 69.0752 101.93 69.0542 101.902 69.0329C101.11 68.4372 100.061 67.6476 98.238 67.6476C96.3623 67.6476 95.3068 68.3816 94.4827 69.1013C94.4546 69.1214 94.427 69.1411 94.3999 69.1606C94.0855 69.3859 93.8283 69.5702 93.5233 69.707C93.1969 69.8532 92.8075 69.9476 92.238 69.9476C91.2205 69.9476 90.6746 69.5879 89.9857 69.0959C89.9581 69.0751 89.9302 69.0541 89.902 69.0329C89.1102 68.4372 88.0607 67.6476 86.238 67.6476C84.3623 67.6476 83.3068 68.3816 82.4827 69.1013C82.4546 69.1214 82.4271 69.1411 82.3999 69.1606C82.0855 69.3859 81.8283 69.5702 81.5233 69.707C81.1969 69.8532 80.8075 69.9476 80.238 69.9476C79.6686 69.9476 79.2791 69.8532 78.9528 69.707C78.6478 69.5702 78.3906 69.3859 78.0762 69.1606C78.0466 69.1394 78.0165 69.1178 77.9858 69.0959C77.9582 69.0752 77.9302 69.0542 77.902 69.0329C77.1102 68.4372 76.0607 67.6476 74.238 67.6476C72.3623 67.6476 71.3068 68.3816 70.4827 69.1013C70.4546 69.1214 70.4271 69.1411 70.3999 69.1606C70.0855 69.3859 69.8283 69.5702 69.5233 69.707C69.1969 69.8532 68.8075 69.9476 68.238 69.9476C67.2205 69.9476 66.6746 69.5879 65.9857 69.0959C65.9581 69.0751 65.9302 69.0541 65.902 69.0329C65.1102 68.4372 64.0607 67.6476 62.238 67.6476C60.3623 67.6476 59.3068 68.3816 58.4827 69.1013C58.4546 69.1214 58.4271 69.1411 58.3999 69.1606C58.0855 69.3859 57.8283 69.5702 57.5233 69.707C57.197 69.8532 56.8075 69.9476 56.238 69.9476C55.2205 69.9476 54.6746 69.5878 53.9857 69.0958C53.9581 69.0751 53.9302 69.0541 53.902 69.0329C53.1102 68.4372 52.0607 67.6476 50.238 67.6476C48.3623 67.6476 47.3068 68.3816 46.4827 69.1013C46.4547 69.1214 46.4271 69.1411 46.3999 69.1606C46.0855 69.3859 45.8283 69.5702 45.5233 69.707C45.197 69.8532 44.8075 69.9476 44.238 69.9476C43.6686 69.9476 43.2791 69.8532 42.9528 69.707C42.6478 69.5702 42.3906 69.3859 42.0761 69.1606C42.0465 69.1394 42.0164 69.1178 41.9857 69.0959C41.9581 69.0751 41.9302 69.0541 41.902 69.0329C41.1102 68.4372 40.0607 67.6476 38.238 67.6476C36.3623 67.6476 35.3068 68.3816 34.4827 69.1013C34.4547 69.1214 34.4271 69.1411 34.3999 69.1606C34.0855 69.3859 33.8283 69.5702 33.5233 69.707C33.1969 69.8532 32.8075 69.9476 32.238 69.9476C31.2205 69.9476 30.6746 69.5878 29.9857 69.0958C29.9581 69.0751 29.9302 69.0541 29.902 69.0329C29.1102 68.4372 28.0607 67.6476 26.238 67.6476C25.8812 67.6476 25.5645 67.7676 25.3363 67.9958C25.1081 68.224 24.988 68.5408 24.988 68.8976C24.988 69.2544 25.1081 69.5712 25.3363 69.7994C25.5645 70.0276 25.8812 70.1476 26.238 70.1476C27.2556 70.1476 27.8015 70.5073 28.4904 70.9993C28.518 71.02 28.5459 71.041 28.5741 71.0623C29.3659 71.658 30.4153 72.4476 32.238 72.4476C34.1138 72.4476 35.1693 71.7135 35.9934 70.9939C36.0214 70.9738 36.049 70.954 36.0761 70.9346C36.3906 70.7093 36.6478 70.5249 36.9528 70.3882C37.2791 70.2419 37.6686 70.1476 38.238 70.1476C38.8075 70.1476 39.1969 70.2419 39.5233 70.3882C39.8283 70.5249 40.0855 70.7093 40.3999 70.9346C40.4295 70.9558 40.4596 70.9774 40.4903 70.9993C40.5179 71.02 40.5459 71.041 40.5741 71.0623C41.3659 71.658 42.4153 72.4476 44.238 72.4476C46.1138 72.4476 47.1693 71.7135 47.9934 70.9939C48.0214 70.9738 48.049 70.954 48.0761 70.9346C48.3906 70.7093 48.6478 70.5249 48.9528 70.3882C49.2791 70.2419 49.6686 70.1476 50.238 70.1476C51.2556 70.1476 51.8015 70.5073 52.4904 70.9993C52.518 71.02 52.5459 71.041 52.5741 71.0623C53.3659 71.658 54.4153 72.4476 56.238 72.4476C58.1138 72.4476 59.1693 71.7135 59.9934 70.9939C60.0214 70.9738 60.049 70.954 60.0762 70.9346C60.3906 70.7092 60.6478 70.5249 60.9528 70.3882C61.2791 70.2419 61.6686 70.1476 62.238 70.1476C63.2556 70.1476 63.8014 70.5073 64.4903 70.9993C64.5179 71.02 64.5459 71.041 64.5741 71.0623C65.3659 71.658 66.4153 72.4476 68.238 72.4476C70.1138 72.4476 71.1693 71.7135 71.9934 70.9939C72.0214 70.9738 72.049 70.954 72.0762 70.9346C72.3906 70.7092 72.6478 70.5249 72.9528 70.3882C73.2791 70.2419 73.6686 70.1476 74.238 70.1476C74.8075 70.1476 75.197 70.2419 75.5233 70.3882C75.8283 70.5249 76.0855 70.7092 76.3999 70.9346C76.4295 70.9558 76.4596 70.9773 76.4903 70.9993C76.5179 71.02 76.5459 71.041 76.5741 71.0623C77.3659 71.658 78.4153 72.4476 80.238 72.4476C82.1138 72.4476 83.1693 71.7135 83.9934 70.9939C84.0214 70.9738 84.049 70.954 84.0762 70.9346C84.3906 70.7092 84.6478 70.5249 84.9528 70.3882C85.2791 70.2419 85.6686 70.1476 86.238 70.1476C87.2556 70.1476 87.8014 70.5073 88.4903 70.9993C88.5179 71.02 88.5459 71.041 88.5741 71.0623C89.3659 71.658 90.4153 72.4476 92.238 72.4476C94.1138 72.4476 95.1693 71.7135 95.9934 70.9939C96.0214 70.9738 96.049 70.954 96.0762 70.9346C96.3906 70.7092 96.6478 70.5249 96.9528 70.3882C97.2791 70.2419 97.6686 70.1476 98.238 70.1476C98.8075 70.1476 99.1969 70.2419 99.5233 70.3882C99.8283 70.5249 100.085 70.7092 100.4 70.9346C100.429 70.9558 100.46 70.9773 100.49 70.9993C100.518 71.02 100.546 71.041 100.574 71.0623C101.366 71.658 102.415 72.4476 104.238 72.4476C106.114 72.4476 107.169 71.7135 107.993 70.9939C108.021 70.9738 108.049 70.954 108.076 70.9346C108.391 70.7092 108.648 70.5249 108.953 70.3882C109.279 70.2419 109.669 70.1476 110.238 70.1476C110.595 70.1476 110.912 70.0276 111.14 69.7994C111.368 69.5712 111.488 69.2544 111.488 68.8976C111.488 68.1435 110.86 67.6476 110.238 67.6476Z" fill="white" stroke="white" stroke-width="0.5"/>
<path d="M182.238 67.6476C180.362 67.6476 179.307 68.3816 178.483 69.1013C178.455 69.1214 178.427 69.1411 178.4 69.1606C178.085 69.3859 177.828 69.5702 177.523 69.707C177.197 69.8532 176.807 69.9476 176.238 69.9476C175.669 69.9476 175.279 69.8532 174.953 69.707C174.648 69.5702 174.391 69.3859 174.076 69.1606C174.047 69.1394 174.016 69.1178 173.986 69.0959C173.958 69.0752 173.93 69.0542 173.902 69.0329C173.11 68.4372 172.061 67.6476 170.238 67.6476C168.362 67.6476 167.307 68.3816 166.483 69.1013C166.455 69.1214 166.427 69.1411 166.4 69.1606C166.085 69.3859 165.828 69.5702 165.523 69.707C165.197 69.8532 164.807 69.9476 164.238 69.9476C163.221 69.9476 162.675 69.5879 161.986 69.0959C161.958 69.0751 161.93 69.0541 161.902 69.0329C161.11 68.4372 160.061 67.6476 158.238 67.6476C156.362 67.6476 155.307 68.3816 154.483 69.1013C154.455 69.1214 154.427 69.1411 154.4 69.1606C154.085 69.3859 153.828 69.5702 153.523 69.707C153.197 69.8532 152.807 69.9476 152.238 69.9476C151.669 69.9476 151.279 69.8532 150.953 69.707C150.648 69.5702 150.391 69.3859 150.076 69.1606C150.047 69.1394 150.016 69.1178 149.986 69.0959C149.958 69.0752 149.93 69.0542 149.902 69.0329C149.11 68.4372 148.061 67.6476 146.238 67.6476C144.362 67.6476 143.307 68.3816 142.483 69.1013C142.455 69.1214 142.427 69.1411 142.4 69.1606C142.085 69.3859 141.828 69.5702 141.523 69.707C141.197 69.8532 140.807 69.9476 140.238 69.9476C139.221 69.9476 138.675 69.5879 137.986 69.0959C137.958 69.0751 137.93 69.0541 137.902 69.0329C137.11 68.4372 136.061 67.6476 134.238 67.6476C132.362 67.6476 131.307 68.3816 130.483 69.1013C130.455 69.1214 130.427 69.1411 130.4 69.1606C130.085 69.3859 129.828 69.5702 129.523 69.707C129.197 69.8532 128.807 69.9476 128.238 69.9476C127.221 69.9476 126.675 69.5878 125.986 69.0958C125.958 69.0751 125.93 69.0541 125.902 69.0329C125.11 68.4372 124.061 67.6476 122.238 67.6476C120.362 67.6476 119.307 68.3816 118.483 69.1013C118.455 69.1214 118.427 69.1411 118.4 69.1606C118.085 69.3859 117.828 69.5702 117.523 69.707C117.197 69.8532 116.807 69.9476 116.238 69.9476C115.669 69.9476 115.279 69.8532 114.953 69.707C114.648 69.5702 114.391 69.3859 114.076 69.1606C114.047 69.1394 114.016 69.1178 113.986 69.0959C113.958 69.0751 113.93 69.0541 113.902 69.0329C113.11 68.4372 112.061 67.6476 110.238 67.6476C108.362 67.6476 107.307 68.3816 106.483 69.1013C106.455 69.1214 106.427 69.1411 106.4 69.1606C106.085 69.3859 105.828 69.5702 105.523 69.707C105.197 69.8532 104.807 69.9476 104.238 69.9476C103.221 69.9476 102.675 69.5878 101.986 69.0958C101.958 69.0751 101.93 69.0541 101.902 69.0329C101.11 68.4372 100.061 67.6476 98.238 67.6476C97.8812 67.6476 97.5645 67.7676 97.3363 67.9958C97.1081 68.224 96.988 68.5408 96.988 68.8976C96.988 69.2544 97.1081 69.5712 97.3363 69.7994C97.5645 70.0276 97.8812 70.1476 98.238 70.1476C99.2556 70.1476 99.8015 70.5073 100.49 70.9993C100.518 71.02 100.546 71.041 100.574 71.0623C101.366 71.658 102.415 72.4476 104.238 72.4476C106.114 72.4476 107.169 71.7135 107.993 70.9939C108.021 70.9738 108.049 70.954 108.076 70.9346C108.391 70.7093 108.648 70.5249 108.953 70.3882C109.279 70.2419 109.669 70.1476 110.238 70.1476C110.807 70.1476 111.197 70.2419 111.523 70.3882C111.828 70.5249 112.085 70.7093 112.4 70.9346C112.43 70.9558 112.46 70.9774 112.49 70.9993C112.518 71.02 112.546 71.041 112.574 71.0623C113.366 71.658 114.415 72.4476 116.238 72.4476C118.114 72.4476 119.169 71.7135 119.993 70.9939C120.021 70.9738 120.049 70.954 120.076 70.9346C120.391 70.7093 120.648 70.5249 120.953 70.3882C121.279 70.2419 121.669 70.1476 122.238 70.1476C123.256 70.1476 123.801 70.5073 124.49 70.9993C124.518 71.02 124.546 71.041 124.574 71.0623C125.366 71.658 126.415 72.4476 128.238 72.4476C130.114 72.4476 131.169 71.7135 131.993 70.9939C132.021 70.9738 132.049 70.954 132.076 70.9346C132.391 70.7092 132.648 70.5249 132.953 70.3882C133.279 70.2419 133.669 70.1476 134.238 70.1476C135.256 70.1476 135.801 70.5073 136.49 70.9993C136.518 71.02 136.546 71.041 136.574 71.0623C137.366 71.658 138.415 72.4476 140.238 72.4476C142.114 72.4476 143.169 71.7135 143.993 70.9939C144.021 70.9738 144.049 70.954 144.076 70.9346C144.391 70.7092 144.648 70.5249 144.953 70.3882C145.279 70.2419 145.669 70.1476 146.238 70.1476C146.807 70.1476 147.197 70.2419 147.523 70.3882C147.828 70.5249 148.085 70.7092 148.4 70.9346C148.43 70.9558 148.46 70.9773 148.49 70.9993C148.518 71.02 148.546 71.041 148.574 71.0623C149.366 71.658 150.415 72.4476 152.238 72.4476C154.114 72.4476 155.169 71.7135 155.993 70.9939C156.021 70.9738 156.049 70.954 156.076 70.9346C156.391 70.7092 156.648 70.5249 156.953 70.3882C157.279 70.2419 157.669 70.1476 158.238 70.1476C159.256 70.1476 159.801 70.5073 160.49 70.9993C160.518 71.02 160.546 71.041 160.574 71.0623C161.366 71.658 162.415 72.4476 164.238 72.4476C166.114 72.4476 167.169 71.7135 167.993 70.9939C168.021 70.9738 168.049 70.954 168.076 70.9346C168.391 70.7092 168.648 70.5249 168.953 70.3882C169.279 70.2419 169.669 70.1476 170.238 70.1476C170.807 70.1476 171.197 70.2419 171.523 70.3882C171.828 70.5249 172.085 70.7092 172.4 70.9346C172.429 70.9558 172.46 70.9773 172.49 70.9993C172.518 71.02 172.546 71.041 172.574 71.0623C173.366 71.658 174.415 72.4476 176.238 72.4476C178.114 72.4476 179.169 71.7135 179.993 70.9939C180.021 70.9738 180.049 70.954 180.076 70.9346C180.391 70.7092 180.648 70.5249 180.953 70.3882C181.279 70.2419 181.669 70.1476 182.238 70.1476C182.595 70.1476 182.912 70.0276 183.14 69.7994C183.368 69.5712 183.488 69.2544 183.488 68.8976C183.488 68.1435 182.86 67.6476 182.238 67.6476Z" fill="white" stroke="white" stroke-width="0.5"/>
<rect x="25.8572" y="72.1976" width="16" height="10" fill="#481511"/>
</svg>
