<svg width="172" height="20" viewBox="0 0 172 20" fill="none" xmlns="http://www.w3.org/2000/svg">
<path d="M15.3128 7.23633H13.0465C12.9715 7.23628 12.8989 7.26303 12.8419 7.31175C12.7848 7.36048 12.7471 7.42798 12.7354 7.50208L11.8188 13.3133C11.8146 13.3402 11.8163 13.3678 11.8237 13.394C11.8312 13.4203 11.8443 13.4446 11.862 13.4653C11.8798 13.4861 11.9018 13.5027 11.9266 13.5141C11.9514 13.5255 11.9784 13.5313 12.0057 13.5313H13.0876C13.1627 13.5313 13.2353 13.5045 13.2924 13.4558C13.3494 13.407 13.3872 13.3394 13.3988 13.2652L13.646 11.6979C13.6576 11.6237 13.6953 11.5562 13.7523 11.5074C13.8093 11.4586 13.8818 11.4318 13.9568 11.4318H14.6742C16.167 11.4318 17.0286 10.7094 17.2536 9.27788C17.355 8.6516 17.2579 8.15952 16.9646 7.81489C16.6425 7.43647 16.0713 7.23633 15.3128 7.23633V7.23633ZM15.5742 9.35873C15.4503 10.1719 14.829 10.1719 14.2282 10.1719H13.8862L14.1261 8.65325C14.1332 8.60882 14.1558 8.56836 14.19 8.53914C14.2242 8.50992 14.2677 8.49387 14.3127 8.49387H14.4694C14.8787 8.49387 15.2647 8.49387 15.4642 8.72715C15.5832 8.86632 15.6196 9.0731 15.5742 9.35873V9.35873ZM22.0869 9.33256H21.0017C20.9567 9.33256 20.9132 9.34861 20.879 9.37783C20.8448 9.40705 20.8221 9.44751 20.8151 9.49194L20.7671 9.79548L20.6912 9.68546C20.4562 9.34448 19.9323 9.23049 19.4094 9.23049C18.2102 9.23049 17.186 10.1388 16.9865 11.4129C16.8828 12.0484 17.0302 12.6562 17.3908 13.08C17.7215 13.4697 18.1947 13.632 18.7576 13.632C19.7239 13.632 20.2597 13.0107 20.2597 13.0107L20.2114 13.3123C20.207 13.3392 20.2086 13.3668 20.216 13.3931C20.2234 13.4194 20.2364 13.4438 20.2541 13.4645C20.2718 13.4853 20.2938 13.502 20.3185 13.5135C20.3433 13.525 20.3703 13.5309 20.3976 13.531H21.3751C21.4502 13.531 21.5228 13.5042 21.5799 13.4554C21.6369 13.4066 21.6747 13.3391 21.6863 13.2649L22.2728 9.55059C22.2771 9.52369 22.2755 9.49618 22.2682 9.46995C22.2608 9.44371 22.2479 9.41939 22.2302 9.39866C22.2125 9.37793 22.1905 9.36128 22.1658 9.34987C22.1411 9.33845 22.1141 9.33255 22.0869 9.33256V9.33256ZM20.5742 11.4447C20.4695 12.0647 19.9774 12.4809 19.3498 12.4809C19.0347 12.4809 18.7828 12.3798 18.6211 12.1883C18.4607 11.9981 18.3998 11.7273 18.4508 11.4258C18.5486 10.8111 19.0489 10.3813 19.6669 10.3813C19.9751 10.3813 20.2256 10.4837 20.3906 10.6769C20.556 10.8721 20.6216 11.1445 20.5742 11.4447V11.4447ZM27.8666 9.33256H26.7761C26.7246 9.33264 26.674 9.34527 26.6286 9.36934C26.5831 9.39342 26.5442 9.42823 26.5153 9.47074L25.0112 11.6863L24.3737 9.55722C24.3541 9.49229 24.3141 9.43538 24.2597 9.39492C24.2053 9.35445 24.1393 9.33259 24.0714 9.33256H22.9998C22.9697 9.33248 22.9401 9.33958 22.9133 9.35328C22.8865 9.36698 22.8634 9.38688 22.8458 9.41132C22.8283 9.43576 22.8169 9.46404 22.8125 9.4938C22.8081 9.52356 22.8108 9.55394 22.8205 9.58241L24.0217 13.1075L22.8924 14.7017C22.8724 14.73 22.8605 14.7632 22.858 14.7978C22.8556 14.8324 22.8627 14.8669 22.8786 14.8977C22.8946 14.9285 22.9186 14.9544 22.9482 14.9724C22.9779 14.9904 23.0119 14.9999 23.0465 14.9999H24.1357C24.1866 15 24.2367 14.9877 24.2818 14.9642C24.3268 14.9406 24.3655 14.9065 24.3945 14.8647L28.0217 9.62913C28.0413 9.6008 28.0529 9.56764 28.055 9.53322C28.0572 9.49881 28.0499 9.46447 28.0339 9.43391C28.0179 9.40336 27.9939 9.37776 27.9644 9.35989C27.9349 9.34203 27.9011 9.33257 27.8666 9.33256V9.33256Z" fill="#253B80"/>
<path d="M31.4772 7.23642H29.2106C29.1357 7.23645 29.0632 7.26323 29.0062 7.31195C28.9492 7.36067 28.9115 7.42812 28.8998 7.50217L27.9832 13.3134C27.979 13.3403 27.9806 13.3678 27.988 13.394C27.9954 13.4203 28.0084 13.4446 28.0261 13.4653C28.0438 13.486 28.0658 13.5027 28.0905 13.5141C28.1153 13.5255 28.1422 13.5314 28.1695 13.5314H29.3326C29.385 13.5313 29.4358 13.5125 29.4756 13.4784C29.5155 13.4442 29.5418 13.397 29.55 13.3452L29.8101 11.6979C29.8217 11.6238 29.8594 11.5563 29.9164 11.5075C29.9733 11.4587 30.0459 11.4319 30.1209 11.4319H30.838C32.3311 11.4319 33.1923 10.7095 33.4177 9.27797C33.5194 8.65168 33.4216 8.1596 33.1284 7.81498C32.8066 7.43656 32.2357 7.23642 31.4772 7.23642V7.23642ZM31.7386 9.35882C31.615 10.172 30.9937 10.172 30.3926 10.172H30.051L30.2912 8.65334C30.2981 8.60891 30.3207 8.56841 30.3548 8.53917C30.389 8.50994 30.4325 8.4939 30.4774 8.49395H30.6342C31.0431 8.49395 31.4295 8.49395 31.6289 8.72724C31.7479 8.86641 31.784 9.07318 31.7386 9.35882V9.35882ZM38.251 9.33264H37.1664C37.1214 9.33252 37.0779 9.34854 37.0437 9.37778C37.0096 9.40703 36.987 9.44757 36.9802 9.49203L36.9321 9.79556L36.8559 9.68555C36.621 9.34457 36.0974 9.23058 35.5745 9.23058C34.3753 9.23058 33.3514 10.1389 33.1519 11.413C33.0485 12.0485 33.1953 12.6563 33.5558 13.0801C33.8872 13.4698 34.3597 13.6321 34.9227 13.6321C35.889 13.6321 36.4248 13.0108 36.4248 13.0108L36.3764 13.3124C36.3721 13.3394 36.3737 13.367 36.3811 13.3933C36.3885 13.4197 36.4016 13.4441 36.4194 13.4649C36.4371 13.4857 36.4592 13.5024 36.4841 13.5138C36.5089 13.5252 36.536 13.5311 36.5633 13.5311H37.5405C37.6155 13.531 37.6881 13.5042 37.7451 13.4554C37.8021 13.4066 37.8397 13.3391 37.8514 13.265L38.4382 9.55068C38.4424 9.5237 38.4406 9.49613 38.4331 9.46988C38.4256 9.44362 38.4125 9.41931 38.3948 9.39859C38.377 9.37788 38.3549 9.36126 38.3301 9.34987C38.3053 9.33849 38.2783 9.33261 38.251 9.33264V9.33264ZM36.7383 11.4448C36.6342 12.0648 36.1415 12.481 35.5139 12.481C35.1994 12.481 34.9469 12.3799 34.7852 12.1884C34.6248 11.9982 34.5645 11.7274 34.6149 11.4259C34.7133 10.8112 35.213 10.3814 35.831 10.3814C36.1392 10.3814 36.3897 10.4838 36.5547 10.677C36.7207 10.8722 36.7863 11.1446 36.7383 11.4448V11.4448ZM39.5304 7.3958L38.6002 13.3134C38.596 13.3403 38.5976 13.3678 38.605 13.394C38.6124 13.4203 38.6254 13.4446 38.6431 13.4653C38.6608 13.486 38.6828 13.5027 38.7075 13.5141C38.7323 13.5255 38.7592 13.5314 38.7865 13.5314H39.7216C39.877 13.5314 40.0089 13.4187 40.0327 13.2653L40.95 7.45445C40.9542 7.42752 40.9526 7.39998 40.9452 7.37373C40.9378 7.34749 40.9248 7.32315 40.9071 7.3024C40.8894 7.28165 40.8674 7.26498 40.8427 7.25353C40.8179 7.24208 40.791 7.23613 40.7637 7.23608H39.7166C39.6717 7.23624 39.6282 7.2524 39.5941 7.28167C39.56 7.31094 39.5374 7.3514 39.5304 7.3958Z" fill="#179BD7"/>
<path d="M2.40769 14.6607L2.581 13.5599L2.19496 13.551H0.351562L1.63263 5.42816C1.63644 5.40334 1.64905 5.38072 1.66815 5.36442C1.68725 5.34812 1.71157 5.33922 1.73668 5.33936H4.8449C5.87678 5.33936 6.58888 5.55408 6.96068 5.9779C7.13498 6.17672 7.24598 6.38449 7.29966 6.61313C7.356 6.85304 7.35699 7.13967 7.30198 7.48927L7.29801 7.51478V7.73878L7.47231 7.83753C7.60537 7.90495 7.72497 7.99614 7.82521 8.1066C7.97433 8.27659 8.07076 8.49264 8.11151 8.74879C8.1536 9.01223 8.13968 9.3257 8.07076 9.6806C7.99123 10.0888 7.86266 10.4444 7.68902 10.7353C7.53582 10.996 7.32983 11.2217 7.08428 11.3981C6.85364 11.5618 6.5796 11.686 6.26978 11.7656C5.96956 11.8438 5.62726 11.8832 5.25182 11.8832H5.00992C4.83695 11.8832 4.66894 11.9455 4.53706 12.0572C4.40536 12.17 4.318 12.326 4.29052 12.4972L4.2723 12.5963L3.96611 14.5364L3.9522 14.6077C3.94855 14.6302 3.94226 14.6415 3.93298 14.6491C3.92399 14.6565 3.91278 14.6605 3.90117 14.6607H2.40769Z" fill="#253B80"/>
<path d="M7.6373 7.54053C7.62802 7.59984 7.61742 7.66048 7.60549 7.72278C7.19559 9.82729 5.79324 10.5543 4.0022 10.5543H3.09028C2.87125 10.5543 2.68668 10.7134 2.65254 10.9294L2.18565 13.8905L2.05343 14.7299C2.04817 14.7632 2.05018 14.7972 2.05933 14.8296C2.06848 14.8621 2.08455 14.8922 2.10644 14.9178C2.12832 14.9434 2.15551 14.964 2.18611 14.9781C2.21672 14.9923 2.25003 14.9996 2.28373 14.9996H3.90114C4.09267 14.9996 4.25537 14.8604 4.28552 14.6715L4.30143 14.5894L4.60595 12.6568L4.6255 12.5508C4.65533 12.3613 4.81836 12.2221 5.00989 12.2221H5.25179C6.81882 12.2221 8.04554 11.5859 8.40408 9.74478C8.55386 8.97568 8.47632 8.33349 8.08 7.88184C7.95439 7.74212 7.80437 7.62646 7.6373 7.54053V7.54053Z" fill="#179BD7"/>
<path d="M7.20852 7.36966C7.07764 7.3318 6.9445 7.30224 6.80989 7.28118C6.54391 7.24031 6.27509 7.22069 6.00599 7.22253H3.56978C3.47707 7.22246 3.38739 7.25556 3.31695 7.31585C3.24651 7.37613 3.19997 7.45963 3.18573 7.55125L2.66747 10.8338L2.65256 10.9295C2.6687 10.825 2.72172 10.7298 2.802 10.661C2.88229 10.5922 2.98456 10.5544 3.09029 10.5544H4.00221C5.79325 10.5544 7.1956 9.82707 7.6055 7.72289C7.61776 7.6606 7.62803 7.59996 7.63731 7.54064C7.52915 7.48392 7.41642 7.43637 7.30031 7.39849C7.26987 7.38839 7.23927 7.37878 7.20852 7.36966V7.36966Z" fill="#222D65"/>
<path d="M3.18573 7.55119C3.19985 7.45955 3.24637 7.37602 3.31684 7.31576C3.38732 7.2555 3.47706 7.22252 3.56979 7.22281H6.006C6.29462 7.22281 6.56402 7.2417 6.80989 7.28146C6.97627 7.30761 7.14036 7.34672 7.30065 7.39843C7.4216 7.43853 7.53393 7.48591 7.63765 7.54059C7.75959 6.76287 7.63665 6.23335 7.21615 5.75386C6.75257 5.22599 5.91586 5 4.84522 5H1.737C1.51829 5 1.33173 5.15906 1.29793 5.37544L0.00328375 13.5817C-0.00274652 13.6198 -0.000452205 13.6588 0.0100089 13.6959C0.0204699 13.7331 0.0388495 13.7675 0.0638832 13.7968C0.088917 13.8262 0.120011 13.8497 0.155026 13.8659C0.190041 13.8821 0.228146 13.8905 0.26672 13.8906H2.18567L2.66747 10.8337L3.18573 7.55119V7.55119Z" fill="#253B80"/>
<path d="M61.0084 14.8558H58.5053L60.0709 5.17554H62.5738L61.0084 14.8558Z" fill="#00579F"/>
<path d="M70.082 5.41213C69.5883 5.21626 68.8052 5 67.837 5C65.3652 5 63.6246 6.31809 63.6139 8.20257C63.5933 9.59294 64.8601 10.3652 65.8076 10.8288C66.7759 11.3025 67.1051 11.6117 67.1051 12.0339C67.0953 12.6825 66.3226 12.9814 65.602 12.9814C64.6027 12.9814 64.0672 12.8273 63.2535 12.4665L62.9239 12.3118L62.5736 14.4848C63.1607 14.7523 64.2423 14.9896 65.3652 15C67.9915 15 69.7013 13.7023 69.7216 11.6941C69.7316 10.5921 69.0627 9.74774 67.6206 9.05776C66.7451 8.61484 66.209 8.31618 66.209 7.86299C66.2193 7.451 66.6625 7.02902 67.6507 7.02902C68.4644 7.00835 69.0623 7.20394 69.5152 7.39967L69.7416 7.50246L70.082 5.41213V5.41213Z" fill="#00579F"/>
<path d="M73.4087 11.4264C73.6148 10.8703 74.408 8.71797 74.408 8.71797C74.3976 8.73864 74.6137 8.15158 74.7373 7.79119L74.9123 8.6253C74.9123 8.6253 75.3863 10.9424 75.4892 11.4264C75.098 11.4264 73.9031 11.4264 73.4087 11.4264ZM76.4984 5.17554H74.5623C73.9652 5.17554 73.5116 5.35046 73.254 5.97871L69.5361 14.8557H72.1625C72.1625 14.8557 72.5949 13.6609 72.6878 13.4036C72.9759 13.4036 75.5308 13.4036 75.9014 13.4036C75.9733 13.7434 76.2001 14.8557 76.2001 14.8557H78.5177L76.4984 5.17554V5.17554Z" fill="#00579F"/>
<path d="M56.4147 5.17554L53.9635 11.7765L53.6956 10.4378C53.2424 8.89303 51.8211 7.21468 50.235 6.38016L52.4803 14.8455H55.1272L59.0615 5.17554H56.4147V5.17554Z" fill="#00579F"/>
<path d="M51.6873 5.17554H47.6602L47.619 5.37113C50.7603 6.17444 52.8408 8.1108 53.6956 10.4382L52.8202 5.98925C52.676 5.37099 52.2331 5.19593 51.6873 5.17554Z" fill="#FAA61A"/>
<path d="M89.8655 19.8896V18.5653C89.8732 18.4539 89.8571 18.3421 89.8182 18.2375C89.7793 18.1328 89.7186 18.0376 89.64 17.9583C89.5614 17.8789 89.4668 17.8172 89.3625 17.7772C89.2582 17.7373 89.1466 17.72 89.035 17.7265C88.8891 17.7169 88.7432 17.7467 88.6126 17.8127C88.4821 17.8787 88.3717 17.9785 88.2929 18.1017C88.2211 17.9822 88.1184 17.8843 87.9956 17.8183C87.8727 17.7522 87.7343 17.7205 87.595 17.7265C87.4735 17.7204 87.3526 17.7461 87.2441 17.801C87.1356 17.856 87.0434 17.9384 86.9766 18.0399V17.7795H86.5172V19.8896H86.981V18.7286C86.9711 18.6565 86.9773 18.583 86.9992 18.5135C87.021 18.444 87.0579 18.3802 87.1073 18.3267C87.1567 18.2731 87.2173 18.2311 87.2848 18.2037C87.3523 18.1762 87.425 18.164 87.4978 18.168C87.8026 18.168 87.9572 18.3666 87.9572 18.7242V19.8985H88.421V18.7286C88.4116 18.6565 88.4181 18.5832 88.44 18.5139C88.462 18.4446 88.499 18.381 88.5483 18.3275C88.5976 18.274 88.658 18.232 88.7253 18.2045C88.7926 18.1769 88.8652 18.1644 88.9379 18.168C89.2515 18.168 89.4017 18.3666 89.4017 18.7242V19.8985L89.8655 19.8896ZM96.7277 17.7795H95.9724V17.1394H95.5086V17.7795H95.0889V18.1989H95.5174V19.1701C95.5174 19.6601 95.7073 19.9514 96.2507 19.9514C96.4536 19.9521 96.6527 19.8955 96.8249 19.7881L96.6924 19.3952C96.5692 19.4686 96.4294 19.5097 96.286 19.5144C96.0651 19.5144 95.9812 19.3731 95.9812 19.1612V18.1989H96.7321L96.7277 17.7795ZM100.646 17.7265C100.534 17.7232 100.423 17.7502 100.325 17.8046C100.227 17.859 100.146 17.9387 100.089 18.0355V17.7795H99.6343V19.8896H100.094V18.7065C100.094 18.3578 100.244 18.1635 100.535 18.1635C100.634 18.1622 100.731 18.1802 100.823 18.2165L100.964 17.7751C100.859 17.7376 100.748 17.7181 100.637 17.7177L100.646 17.7265ZM94.7223 17.9472C94.4622 17.7927 94.1633 17.7161 93.8609 17.7265C93.3264 17.7265 92.9775 17.9826 92.9775 18.4019C92.9775 18.7463 93.2337 18.9582 93.7063 19.0244L93.9272 19.0553C94.179 19.0906 94.2982 19.1568 94.2982 19.276C94.2982 19.4394 94.1304 19.5321 93.8167 19.5321C93.5645 19.5394 93.3171 19.4616 93.1144 19.3113L92.8935 19.6689C93.1611 19.8556 93.4816 19.9516 93.8079 19.9426C94.4175 19.9426 94.7709 19.6557 94.7709 19.2539C94.7709 18.8522 94.4926 18.6889 94.0332 18.6227L93.8123 18.5918C93.6135 18.5653 93.4545 18.5255 93.4545 18.3843C93.4545 18.243 93.6047 18.1371 93.8565 18.1371C94.0892 18.1398 94.3173 18.2021 94.5191 18.3181L94.7223 17.9472ZM107.027 17.7265C106.915 17.7232 106.804 17.7502 106.706 17.8046C106.608 17.859 106.526 17.9387 106.47 18.0355V17.7795H106.015V19.8896H106.474V18.7065C106.474 18.3578 106.625 18.1635 106.916 18.1635C107.014 18.1622 107.112 18.1802 107.203 18.2165L107.345 17.7751C107.24 17.7376 107.129 17.7181 107.018 17.7177L107.027 17.7265ZM101.107 18.8301C101.102 18.9784 101.128 19.1262 101.183 19.2641C101.238 19.4019 101.321 19.5268 101.427 19.6307C101.533 19.7345 101.659 19.8152 101.798 19.8674C101.937 19.9196 102.086 19.9422 102.234 19.9338C102.51 19.9478 102.781 19.858 102.994 19.6822L102.773 19.3113C102.614 19.4324 102.42 19.4989 102.221 19.5012C102.051 19.4874 101.892 19.4103 101.777 19.2852C101.661 19.16 101.597 18.996 101.597 18.8257C101.597 18.6555 101.661 18.4915 101.777 18.3663C101.892 18.2411 102.051 18.164 102.221 18.1503C102.42 18.1525 102.614 18.2191 102.773 18.3401L102.994 17.9693C102.781 17.7934 102.51 17.7037 102.234 17.7177C102.086 17.7093 101.937 17.7319 101.798 17.7841C101.659 17.8363 101.533 17.9169 101.427 18.0208C101.321 18.1247 101.238 18.2495 101.183 18.3874C101.128 18.5252 101.102 18.673 101.107 18.8213V18.8301ZM105.41 18.8301V17.7795H104.95V18.0355C104.872 17.9352 104.772 17.8549 104.656 17.8011C104.541 17.7474 104.415 17.7218 104.288 17.7265C103.995 17.7265 103.714 17.8428 103.507 18.0498C103.3 18.2567 103.184 18.5374 103.184 18.8301C103.184 19.1229 103.3 19.4036 103.507 19.6105C103.714 19.8175 103.995 19.9338 104.288 19.9338C104.415 19.9385 104.541 19.9129 104.656 19.8592C104.772 19.8054 104.872 19.7251 104.95 19.6248V19.8808H105.41V18.8301ZM103.7 18.8301C103.708 18.7059 103.751 18.5866 103.826 18.4868C103.9 18.387 104.002 18.3111 104.119 18.2684C104.236 18.2258 104.363 18.2182 104.484 18.2467C104.605 18.2753 104.715 18.3386 104.801 18.4289C104.887 18.5192 104.944 18.6326 104.966 18.755C104.988 18.8775 104.974 19.0037 104.925 19.1182C104.876 19.2326 104.794 19.3302 104.691 19.3991C104.587 19.4679 104.465 19.5049 104.341 19.5056C104.253 19.5067 104.167 19.4897 104.086 19.4557C104.006 19.4217 103.933 19.3713 103.873 19.3079C103.813 19.2445 103.766 19.1693 103.737 19.087C103.707 19.0048 103.695 18.9174 103.7 18.8301V18.8301ZM98.1567 17.7265C97.8638 17.7306 97.5846 17.8508 97.3804 18.0607C97.1762 18.2706 97.0638 18.5529 97.0679 18.8456C97.072 19.1383 97.1922 19.4174 97.4022 19.6215C97.6122 19.8255 97.8947 19.9379 98.1876 19.9338C98.5054 19.9501 98.8179 19.8478 99.0645 19.6468L98.8436 19.3069C98.6692 19.4467 98.4531 19.5244 98.2296 19.5276C98.0777 19.5407 97.9268 19.494 97.8088 19.3976C97.6909 19.3011 97.6152 19.1625 97.5979 19.0111H99.1661C99.1661 18.9538 99.1661 18.8964 99.1661 18.8346C99.1661 18.1724 98.7553 17.7309 98.1633 17.7309L98.1567 17.7265ZM98.1567 18.1371C98.2255 18.1356 98.2938 18.1477 98.3579 18.1726C98.422 18.1976 98.4805 18.2349 98.5301 18.2824C98.5797 18.33 98.6195 18.3869 98.6472 18.4498C98.6748 18.5127 98.6898 18.5804 98.6912 18.6492H97.5869C97.5949 18.5075 97.6581 18.3745 97.7629 18.2788C97.8678 18.1831 98.006 18.1322 98.1479 18.1371H98.1567ZM109.666 18.8346V16.9319H109.224V18.0355C109.146 17.9352 109.045 17.8549 108.93 17.8011C108.815 17.7474 108.689 17.7218 108.562 17.7265C108.269 17.7265 107.988 17.8428 107.781 18.0498C107.574 18.2567 107.457 18.5374 107.457 18.8301C107.457 19.1229 107.574 19.4036 107.781 19.6105C107.988 19.8175 108.269 19.9338 108.562 19.9338C108.689 19.9385 108.815 19.9129 108.93 19.8592C109.045 19.8054 109.146 19.7251 109.224 19.6248V19.8808H109.666V18.8346ZM110.432 19.5828C110.461 19.5825 110.49 19.5877 110.516 19.5983C110.542 19.6086 110.565 19.6236 110.585 19.6424C110.604 19.6615 110.62 19.6839 110.631 19.7086C110.642 19.7344 110.648 19.7622 110.648 19.7903C110.648 19.8184 110.642 19.8462 110.631 19.872C110.62 19.8967 110.604 19.9192 110.585 19.9382C110.565 19.957 110.542 19.972 110.516 19.9823C110.49 19.994 110.461 20 110.432 20C110.39 19.9997 110.35 19.9875 110.314 19.9648C110.279 19.9422 110.251 19.91 110.234 19.872C110.222 19.8462 110.217 19.8184 110.217 19.7903C110.217 19.7622 110.222 19.7345 110.234 19.7086C110.245 19.6839 110.261 19.6615 110.28 19.6424C110.3 19.6236 110.323 19.6086 110.348 19.5983C110.377 19.5868 110.408 19.5816 110.439 19.5828H110.432ZM110.432 19.9559C110.454 19.956 110.476 19.9515 110.496 19.9426C110.515 19.9341 110.533 19.9222 110.547 19.9073C110.575 19.8772 110.59 19.8378 110.59 19.7969C110.59 19.7561 110.575 19.7167 110.547 19.6866C110.533 19.6717 110.515 19.6597 110.496 19.6513C110.476 19.6425 110.454 19.6379 110.432 19.638C110.41 19.6381 110.389 19.6426 110.368 19.6513C110.348 19.6594 110.33 19.6714 110.315 19.6866C110.288 19.7167 110.272 19.7561 110.272 19.7969C110.272 19.8378 110.288 19.8772 110.315 19.9073C110.33 19.9224 110.348 19.9344 110.368 19.9426C110.391 19.9522 110.415 19.9567 110.439 19.9559H110.432ZM110.446 19.6932C110.466 19.6922 110.487 19.6984 110.503 19.7109C110.51 19.7164 110.515 19.7236 110.519 19.7316C110.522 19.7397 110.523 19.7485 110.523 19.7572C110.523 19.7645 110.522 19.7719 110.519 19.7787C110.517 19.7855 110.513 19.7917 110.507 19.7969C110.495 19.8086 110.478 19.8156 110.461 19.8168L110.525 19.8896H110.474L110.415 19.8168H110.395V19.8896H110.353V19.6954L110.446 19.6932ZM110.397 19.7307V19.7837H110.446C110.454 19.7863 110.463 19.7863 110.472 19.7837C110.474 19.7806 110.474 19.7772 110.474 19.7738C110.474 19.7703 110.474 19.7669 110.472 19.7638C110.474 19.7607 110.474 19.7573 110.474 19.7539C110.474 19.7504 110.474 19.747 110.472 19.744C110.463 19.7414 110.454 19.7414 110.446 19.744L110.397 19.7307ZM107.967 18.8346C107.975 18.7104 108.018 18.591 108.093 18.4912C108.167 18.3914 108.269 18.3155 108.386 18.2728C108.503 18.2302 108.63 18.2227 108.751 18.2512C108.872 18.2797 108.982 18.343 109.068 18.4333C109.154 18.5236 109.211 18.637 109.233 18.7594C109.255 18.8819 109.241 19.0081 109.192 19.1226C109.143 19.237 109.062 19.3347 108.958 19.4035C108.854 19.4723 108.732 19.5093 108.608 19.51C108.521 19.5111 108.434 19.4941 108.353 19.4601C108.273 19.4261 108.2 19.3758 108.14 19.3123C108.08 19.2489 108.033 19.1737 108.004 19.0915C107.974 19.0092 107.962 18.9218 107.967 18.8346V18.8346ZM92.4562 18.8346V17.7795H91.9968V18.0355C91.9188 17.9352 91.818 17.8549 91.7028 17.8011C91.5876 17.7474 91.4613 17.7218 91.3342 17.7265C91.0413 17.7265 90.7605 17.8428 90.5534 18.0498C90.3463 18.2567 90.2299 18.5374 90.2299 18.8301C90.2299 19.1229 90.3463 19.4036 90.5534 19.6105C90.7605 19.8175 91.0413 19.9338 91.3342 19.9338C91.4613 19.9385 91.5876 19.9129 91.7028 19.8592C91.818 19.8054 91.9188 19.7251 91.9968 19.6248V19.8808H92.4562V18.8346ZM90.7467 18.8346C90.7541 18.7104 90.7976 18.591 90.8719 18.4912C90.9463 18.3914 91.0482 18.3155 91.1651 18.2728C91.2821 18.2302 91.409 18.2227 91.5302 18.2512C91.6514 18.2797 91.7616 18.343 91.8472 18.4333C91.9329 18.5236 91.9902 18.637 92.0122 18.7594C92.0342 18.8819 92.0198 19.0081 91.9709 19.1226C91.9221 19.237 91.8408 19.3347 91.737 19.4035C91.6333 19.4723 91.5117 19.5093 91.3872 19.51C91.2994 19.5117 91.2122 19.4952 91.1311 19.4614C91.05 19.4277 90.9768 19.3775 90.9162 19.314C90.8556 19.2505 90.8088 19.175 90.7789 19.0925C90.7489 19.01 90.7365 18.9222 90.7423 18.8346H90.7467Z" fill="#231F20"/>
<path d="M101.527 1.69946H94.5699V14.1949H101.527V1.69946Z" fill="#FF5F00"/>
<path d="M95.0116 7.94879C95.0103 6.74522 95.2831 5.55713 95.8092 4.4745C96.3354 3.39187 97.1011 2.44308 98.0485 1.69997C96.8755 0.778702 95.4668 0.205817 93.9835 0.0467959C92.5001 -0.112225 91.0019 0.149032 89.6601 0.800709C88.3183 1.45239 87.187 2.46819 86.3955 3.73203C85.604 4.99586 85.1843 6.45674 85.1843 7.94769C85.1843 9.43864 85.604 10.8995 86.3955 12.1634C87.187 13.4272 88.3183 14.443 89.6601 15.0947C91.0019 15.7463 92.5001 16.0076 93.9835 15.8486C95.4668 15.6896 96.8755 15.1167 98.0485 14.1954C97.1014 13.4525 96.3359 12.5041 95.8097 11.4219C95.2836 10.3396 95.0107 9.15199 95.0116 7.94879V7.94879Z" fill="#EB001B"/>
<path d="M110.914 7.94825C110.914 9.43931 110.494 10.9003 109.702 12.1642C108.911 13.428 107.779 14.4438 106.437 15.0954C105.095 15.747 103.597 16.0081 102.114 15.8488C100.63 15.6896 99.2214 15.1164 98.0485 14.1949C98.9952 13.4513 99.7605 12.5026 100.287 11.4203C100.813 10.3381 101.087 9.15046 101.087 7.94714C101.087 6.74383 100.813 5.55623 100.287 4.47395C99.7605 3.39166 98.9952 2.44296 98.0485 1.69943C99.2214 0.777868 100.63 0.204705 102.114 0.045455C103.597 -0.113795 105.095 0.147295 106.437 0.798879C107.779 1.45046 108.911 2.46625 109.702 3.73013C110.494 4.99401 110.914 6.45498 110.914 7.94604V7.94825Z" fill="#F79E1B"/>
<path d="M110.154 12.8705V12.6145H110.258V12.5615H109.995V12.6145H110.108V12.8705H110.154ZM110.664 12.8705V12.5615H110.585L110.492 12.7823L110.399 12.5615H110.329V12.8705H110.386V12.6388L110.472 12.8396H110.532L110.618 12.6388V12.8728L110.664 12.8705Z" fill="#F79E1B"/>
<path fill-rule="evenodd" clip-rule="evenodd" d="M143.044 12.8697V12.5615H142.964L142.871 12.7732L142.778 12.5615H142.697V12.8697H142.755V12.6373L142.841 12.8379H142.901L142.987 12.6368V12.8697H143.044ZM142.534 12.8697V12.6141H142.637V12.562H142.375V12.6141H142.478V12.8697H142.534Z" fill="#0099DF"/>
<path fill-rule="evenodd" clip-rule="evenodd" d="M126.957 1.7002H133.909V14.1955H126.957V1.7002Z" fill="#6C6BBD"/>
<path fill-rule="evenodd" clip-rule="evenodd" d="M127.402 7.94676C127.402 5.41198 128.589 3.15412 130.437 1.69902C129.086 0.635008 127.38 0 125.526 0C121.138 0 117.58 3.55779 117.58 7.94676C117.58 12.3356 121.138 15.8934 125.526 15.8934C127.38 15.8934 129.086 15.2584 130.437 14.1944C128.589 12.7393 127.402 10.4815 127.402 7.94676" fill="#EB001B"/>
<path fill-rule="evenodd" clip-rule="evenodd" d="M143.287 7.94676C143.287 12.3356 139.729 15.8934 135.341 15.8934C133.487 15.8934 131.781 15.2584 130.429 14.1944C132.278 12.7393 133.465 10.4815 133.465 7.94676C133.465 5.41198 132.278 3.15412 130.429 1.69902C131.781 0.635008 133.487 0 135.341 0C139.729 0 143.287 3.55779 143.287 7.94676" fill="#0099DF"/>
<path fill-rule="evenodd" clip-rule="evenodd" d="M136.254 17.724C136.346 17.724 136.479 17.7417 136.581 17.7816L136.439 18.2141C136.342 18.1741 136.245 18.1611 136.152 18.1611C135.852 18.1611 135.702 18.3551 135.702 18.7036V19.8869H135.243V17.7771H135.697V18.0332C135.817 17.8478 135.989 17.724 136.254 17.724V17.724ZM134.557 18.1964H133.807V19.1497C133.807 19.3615 133.882 19.5029 134.112 19.5029C134.231 19.5029 134.381 19.463 134.517 19.3837L134.65 19.7762C134.504 19.8778 134.275 19.9399 134.076 19.9399C133.533 19.9399 133.344 19.6484 133.344 19.1583V18.1964H132.915V17.7771H133.344V17.137H133.807V17.7771H134.557V18.1964ZM128.682 18.6466C128.731 18.3419 128.916 18.1342 129.243 18.1342C129.538 18.1342 129.728 18.3196 129.777 18.6466H128.682ZM130.254 18.832C130.249 18.1741 129.843 17.724 129.251 17.724C128.633 17.724 128.201 18.1741 128.201 18.832C128.201 19.5024 128.651 19.9394 129.283 19.9394C129.6 19.9394 129.891 19.8601 130.148 19.6439L129.922 19.3038C129.746 19.4453 129.521 19.5247 129.309 19.5247C129.013 19.5247 128.744 19.3877 128.678 19.0083H130.245C130.249 18.9507 130.254 18.8937 130.254 18.832V18.832ZM132.27 18.3156C132.143 18.2358 131.882 18.1342 131.613 18.1342C131.362 18.1342 131.212 18.2272 131.212 18.3818C131.212 18.5228 131.37 18.5626 131.569 18.589L131.785 18.6198C132.244 18.6865 132.522 18.8805 132.522 19.2513C132.522 19.653 132.169 19.9399 131.56 19.9399C131.216 19.9399 130.898 19.8515 130.646 19.6661L130.862 19.3084C131.017 19.4277 131.247 19.5292 131.565 19.5292C131.878 19.5292 132.046 19.4367 132.046 19.2731C132.046 19.1543 131.926 19.0877 131.675 19.0527L131.459 19.0219C130.986 18.9552 130.73 18.7436 130.73 18.3995C130.73 17.9801 131.075 17.724 131.609 17.724C131.944 17.724 132.249 17.7993 132.469 17.9448L132.27 18.3156ZM137.932 18.1601C137.837 18.1601 137.75 18.1767 137.668 18.2096C137.588 18.2429 137.517 18.2894 137.458 18.349C137.399 18.4086 137.353 18.4803 137.319 18.5637C137.285 18.6471 137.268 18.739 137.268 18.8391C137.268 18.9396 137.285 19.0311 137.319 19.1144C137.353 19.1977 137.399 19.2695 137.458 19.3292C137.517 19.3887 137.588 19.4352 137.668 19.4686C137.75 19.5019 137.837 19.5181 137.932 19.5181C138.026 19.5181 138.114 19.5019 138.195 19.4686C138.276 19.4352 138.347 19.3887 138.406 19.3292C138.466 19.2695 138.513 19.1977 138.547 19.1144C138.581 19.0311 138.597 18.9396 138.597 18.8391C138.597 18.739 138.581 18.6471 138.547 18.5637C138.513 18.4803 138.466 18.4086 138.406 18.349C138.347 18.2894 138.276 18.2429 138.195 18.2096C138.114 18.1767 138.026 18.1601 137.932 18.1601ZM137.932 17.724C138.095 17.724 138.247 17.7523 138.386 17.8094C138.526 17.866 138.646 17.9443 138.748 18.0438C138.85 18.1433 138.929 18.2611 138.987 18.3965C139.045 18.5324 139.073 18.6799 139.073 18.8391C139.073 18.9982 139.045 19.1457 138.987 19.2817C138.929 19.417 138.85 19.5352 138.748 19.6347C138.646 19.7343 138.526 19.8121 138.386 19.8692C138.247 19.9258 138.095 19.9541 137.932 19.9541C137.768 19.9541 137.616 19.9258 137.477 19.8692C137.337 19.8121 137.218 19.7343 137.117 19.6347C137.016 19.5352 136.936 19.417 136.879 19.2817C136.821 19.1457 136.792 18.9982 136.792 18.8391C136.792 18.6799 136.821 18.5324 136.879 18.3965C136.936 18.2611 137.016 18.1433 137.117 18.0438C137.218 17.9443 137.337 17.866 137.477 17.8094C137.616 17.7523 137.768 17.724 137.932 17.724ZM126 18.832C126 18.4611 126.243 18.1565 126.64 18.1565C127.02 18.1565 127.276 18.448 127.276 18.832C127.276 19.216 127.02 19.507 126.64 19.507C126.243 19.507 126 19.2028 126 18.832ZM127.708 18.832V17.7771H127.25V18.0332C127.104 17.8432 126.883 17.724 126.583 17.724C125.992 17.724 125.528 18.1873 125.528 18.832C125.528 19.4762 125.992 19.9399 126.583 19.9399C126.883 19.9399 127.104 19.8207 127.25 19.6307V19.8869H127.708V18.832ZM125.122 19.8869V18.5626C125.122 18.0641 124.804 17.7286 124.292 17.724C124.023 17.7195 123.745 17.8033 123.551 18.0994C123.405 17.8655 123.175 17.724 122.853 17.724C122.628 17.724 122.407 17.7902 122.235 18.0372V17.7771H121.776V19.8869H122.24V18.7173C122.24 18.351 122.443 18.1565 122.756 18.1565C123.061 18.1565 123.215 18.3551 123.215 18.7127V19.8869H123.679V18.7173C123.679 18.351 123.891 18.1565 124.195 18.1565C124.509 18.1565 124.659 18.3551 124.659 18.7127V19.8869H125.122ZM139.568 19.7287V19.7808H139.616C139.627 19.7808 139.636 19.7782 139.642 19.7742C139.648 19.7702 139.652 19.7631 139.652 19.7545C139.652 19.7459 139.648 19.7393 139.642 19.7353C139.636 19.7307 139.627 19.7287 139.616 19.7287H139.568ZM139.616 19.6924C139.641 19.6924 139.66 19.6979 139.674 19.7091C139.688 19.7202 139.694 19.7353 139.694 19.7545C139.694 19.7707 139.689 19.7838 139.678 19.7944C139.668 19.8046 139.652 19.8111 139.632 19.8137L139.696 19.8869H139.646L139.587 19.8142H139.568V19.8869H139.527V19.6924H139.616ZM139.604 19.9536C139.627 19.9536 139.648 19.9496 139.667 19.9409C139.687 19.9323 139.704 19.9207 139.719 19.9061C139.733 19.8914 139.745 19.8742 139.753 19.8541C139.761 19.8343 139.766 19.8132 139.766 19.7904C139.766 19.7677 139.761 19.7464 139.753 19.7267C139.745 19.707 139.733 19.6893 139.719 19.6747C139.704 19.6601 139.687 19.6484 139.667 19.6403C139.648 19.6317 139.627 19.6277 139.604 19.6277C139.581 19.6277 139.559 19.6317 139.54 19.6403C139.519 19.6484 139.502 19.6601 139.487 19.6747C139.473 19.6893 139.461 19.707 139.453 19.7267C139.444 19.7464 139.44 19.7677 139.44 19.7904C139.44 19.8132 139.444 19.8343 139.453 19.8541C139.461 19.8742 139.473 19.8914 139.487 19.9061C139.502 19.9207 139.519 19.9323 139.54 19.9409C139.559 19.9496 139.581 19.9536 139.604 19.9536ZM139.604 19.5807C139.634 19.5807 139.661 19.5862 139.687 19.5974C139.713 19.608 139.735 19.6232 139.755 19.6423C139.774 19.6611 139.789 19.6833 139.8 19.7091C139.812 19.7343 139.817 19.7616 139.817 19.7904C139.817 19.8192 139.812 19.8465 139.8 19.8717C139.789 19.897 139.774 19.9192 139.755 19.9379C139.735 19.9571 139.713 19.9722 139.687 19.9834C139.661 19.9945 139.634 20.0001 139.604 20.0001C139.574 20.0001 139.546 19.9945 139.519 19.9834C139.493 19.9722 139.47 19.9571 139.451 19.9379C139.432 19.9192 139.417 19.897 139.406 19.8717C139.395 19.8465 139.389 19.8192 139.389 19.7904C139.389 19.7616 139.395 19.7343 139.406 19.7091C139.417 19.6833 139.432 19.6611 139.451 19.6423C139.47 19.6232 139.493 19.608 139.519 19.5974C139.546 19.5862 139.574 19.5807 139.604 19.5807Z" fill="#231F20"/>
<path fill-rule="evenodd" clip-rule="evenodd" d="M150.485 19.8003H150.419C150.419 19.7672 150.402 19.7172 150.402 19.7005C150.402 19.684 150.402 19.6509 150.352 19.6509H150.252V19.8003H150.203V19.4514H150.352C150.419 19.4514 150.469 19.468 150.469 19.5343C150.469 19.5842 150.452 19.601 150.435 19.6173C150.452 19.6341 150.469 19.6507 150.469 19.684V19.7504C150.469 19.7672 150.469 19.7672 150.485 19.7672V19.8003ZM150.419 19.5511C150.419 19.5012 150.385 19.5012 150.369 19.5012H150.252V19.601H150.352C150.385 19.601 150.419 19.5842 150.419 19.5511V19.5511ZM150.701 19.6174C150.701 19.4182 150.535 19.2517 150.319 19.2517C150.12 19.2517 149.953 19.4182 149.953 19.6174C149.953 19.8336 150.12 20 150.319 20C150.535 19.9999 150.701 19.8336 150.701 19.6174ZM150.651 19.6174C150.651 19.8004 150.502 19.9334 150.319 19.9334C150.136 19.9334 150.003 19.8003 150.003 19.6174C150.003 19.4514 150.136 19.3016 150.319 19.3016C150.502 19.3016 150.651 19.4514 150.651 19.6174ZM171.133 12.901C171.133 13.3999 170.818 13.6324 170.252 13.6324H169.172V13.1336H170.252C170.352 13.1336 170.435 13.1171 170.469 13.0839C170.502 13.0506 170.535 13.0006 170.535 12.9342C170.535 12.8676 170.502 12.8012 170.469 12.768C170.435 12.7346 170.369 12.7182 170.269 12.7182C169.754 12.7014 169.105 12.7346 169.105 12.0032C169.105 11.6706 169.321 11.3048 169.903 11.3048H171.017V11.8036H169.986C169.887 11.8036 169.82 11.8036 169.77 11.8368C169.72 11.8867 169.687 11.9366 169.687 12.0198C169.687 12.1029 169.737 12.1528 169.803 12.1862C169.87 12.2027 169.937 12.2194 170.02 12.2194H170.319C170.635 12.2194 170.834 12.2858 170.967 12.4022C171.067 12.5186 171.133 12.6684 171.133 12.901V12.901ZM168.789 12.4022C168.656 12.2858 168.457 12.2194 168.141 12.2194H167.842C167.759 12.2194 167.692 12.2026 167.626 12.1862C167.559 12.1528 167.509 12.1029 167.509 12.0198C167.509 11.9366 167.526 11.8867 167.592 11.8368C167.642 11.8036 167.709 11.8036 167.808 11.8036H168.839V11.3048H167.725C167.127 11.3048 166.927 11.6706 166.927 12.0032C166.927 12.7345 167.576 12.7014 168.091 12.7182C168.191 12.7182 168.257 12.7346 168.29 12.768C168.324 12.8012 168.357 12.8676 168.357 12.9342C168.357 13.0006 168.324 13.0506 168.29 13.0839C168.241 13.1171 168.174 13.1336 168.074 13.1336H166.994V13.6324H168.074C168.639 13.6324 168.955 13.3998 168.955 12.901C168.955 12.6684 168.889 12.5186 168.789 12.4022V12.4022ZM166.661 13.1505H165.348V12.6849H166.628V12.2196H165.348V11.7872H166.661V11.3052H164.799V13.6325H166.661V13.1505ZM164.201 11.4215C164.018 11.3217 163.802 11.305 163.519 11.305H162.239V13.6324H162.804V12.7846H163.403C163.602 12.7846 163.719 12.8013 163.802 12.8844C163.902 13.0006 163.902 13.2002 163.902 13.3499V13.6324H164.45V13.1835C164.45 12.9674 164.434 12.8676 164.367 12.7513C164.317 12.6847 164.218 12.6016 164.085 12.5518C164.234 12.502 164.484 12.3025 164.484 11.9366C164.484 11.6708 164.384 11.5211 164.201 11.4215V11.4215ZM161.042 11.305H159.263L158.548 12.0698L157.867 11.305H155.622V13.6324H157.834L158.548 12.8676L159.23 13.6324H160.311V12.8512H161.009C161.491 12.8512 161.973 12.7182 161.973 12.0698C161.973 11.4381 161.474 11.305 161.042 11.305V11.305ZM163.752 12.2694C163.669 12.3025 163.586 12.3025 163.486 12.3025L162.804 12.3192V11.7871H163.486C163.586 11.7871 163.685 11.7871 163.752 11.8369C163.818 11.8704 163.868 11.9367 163.868 12.0365C163.868 12.1364 163.818 12.2195 163.752 12.2694V12.2694ZM161.042 12.3857H160.311V11.7871H161.042C161.242 11.7871 161.375 11.8704 161.375 12.0698C161.375 12.2694 161.242 12.3857 161.042 12.3857ZM158.897 12.4687L159.762 11.5545V13.433L158.897 12.4687ZM157.551 13.1505H156.171V12.6849H157.401V12.2196H156.171V11.7872H157.567L158.183 12.4688L157.551 13.1505ZM169.587 9.62584H168.789L167.742 7.88022V9.62584H166.612L166.395 9.11045H165.232L165.015 9.62584H164.367C164.101 9.62584 163.752 9.55932 163.553 9.35975C163.37 9.16029 163.27 8.89431 163.27 8.47871C163.27 8.12952 163.32 7.8137 163.569 7.5644C163.735 7.38141 164.035 7.29841 164.417 7.29841H164.949V7.79723H164.417C164.217 7.79723 164.101 7.83049 163.985 7.93027C163.885 8.03005 163.835 8.21283 163.835 8.46223C163.835 8.71153 163.885 8.89441 163.985 9.01088C164.068 9.09388 164.217 9.12714 164.367 9.12714H164.616L165.414 7.29852H166.246L167.177 9.4929V7.29841H168.041L169.022 8.91099V7.29841H169.587V9.62584H169.587ZM162.987 7.29841H162.422V9.62584H162.987V7.29841ZM161.807 7.3982C161.624 7.29842 161.425 7.29841 161.142 7.29841H159.862V9.62584H160.41V8.77795H161.009C161.208 8.77795 161.341 8.79453 161.424 8.87773C161.524 8.99409 161.507 9.19366 161.507 9.3266V9.62584H162.073V9.16029C162.073 8.96083 162.056 8.86105 161.973 8.74469C161.923 8.67817 161.823 8.59496 161.707 8.54523C161.856 8.47871 162.106 8.29582 162.106 7.93006C162.106 7.66418 161.99 7.51445 161.807 7.3982V7.3982ZM159.463 9.14382H158.166V8.67827H159.446V8.19625H158.166V7.78054H159.463V7.29852H157.601V9.62595H159.463V9.14382ZM157.185 7.29841H156.271L155.589 8.87773L154.858 7.29841H153.96V9.4928L153.012 7.29841H152.181L151.184 9.62584H151.782L151.998 9.11045H153.162L153.378 9.62584H154.508V7.79723L155.323 9.62584H155.805L156.62 7.79723V9.62584H157.185V7.29841H157.185ZM166.196 8.61175L165.813 7.69744L165.431 8.61175H166.196ZM161.375 8.24609C161.292 8.29603 161.208 8.29603 161.092 8.29603H160.41V7.78065H161.092C161.192 7.78065 161.308 7.78065 161.375 7.81391C161.441 7.86385 161.474 7.93037 161.474 8.03005C161.474 8.12973 161.441 8.21272 161.375 8.24609ZM152.198 8.61175L152.58 7.69744L152.962 8.61175H152.198ZM171 0H151.167V8.37903L151.848 6.83297H153.295L153.494 7.21532V6.83297H155.19L155.572 7.66418L155.938 6.83297H161.341C161.591 6.83297 161.807 6.88281 161.973 7.01575V6.83297H163.453V7.01575C163.702 6.88271 164.018 6.83297 164.384 6.83297H166.528L166.728 7.21532V6.83297H168.307L168.54 7.21532V6.83297H170.086V10.0914H168.523L168.224 9.59269V10.0914H166.279L166.063 9.55942H165.581L165.365 10.0914H164.35C163.951 10.0914 163.652 9.99161 163.453 9.89193V10.0914H161.042V9.34328C161.042 9.2435 161.026 9.22681 160.959 9.22681H160.876V10.0913H156.221V9.67568L156.055 10.0913H155.074L154.908 9.69226V10.0913H153.029L152.829 9.55932H152.347L152.131 10.0913H151.167V19.9167H171V13.9483C170.784 14.0481 170.485 14.0979 170.186 14.0979H168.739V13.8983C168.573 14.0315 168.274 14.0979 167.991 14.0979H163.436V13.3499C163.436 13.2501 163.42 13.2501 163.336 13.2501H163.253V14.0979H161.757V13.2169C161.508 13.3331 161.225 13.3331 160.976 13.3331H160.809V14.0979H158.981L158.548 13.5991L158.066 14.0979H155.124V10.8396H158.116L158.548 11.3381L159.014 10.8396H161.026C161.258 10.8396 161.641 10.8728 161.807 11.0389V10.8396H163.602C163.785 10.8396 164.134 10.8728 164.367 11.0389V10.8396H167.077V11.0391C167.227 10.906 167.509 10.8397 167.759 10.8397H169.271V11.0391C169.438 10.9227 169.67 10.8397 169.97 10.8397H171V0Z" fill="#006FCF"/>
</svg>
