<svg width="237" height="20" viewBox="0 0 237 20" fill="none" xmlns="http://www.w3.org/2000/svg">
<g clip-path="url(#clip0)">
<path d="M22.9693 5.85449H19.57C19.4574 5.85442 19.3486 5.89454 19.263 5.96763C19.1774 6.04072 19.1208 6.14197 19.1032 6.25313L17.7284 14.97C17.7221 15.0104 17.7246 15.0518 17.7358 15.0911C17.7469 15.1305 17.7665 15.167 17.7932 15.1981C17.8198 15.2292 17.8529 15.2541 17.8901 15.2712C17.9273 15.2883 17.9678 15.2971 18.0087 15.297H19.6316C19.7442 15.2971 19.8531 15.2569 19.9387 15.1837C20.0243 15.1105 20.0809 15.0091 20.0983 14.8979L20.4691 12.5468C20.4865 12.4357 20.5431 12.3344 20.6286 12.2612C20.714 12.188 20.8228 12.1478 20.9354 12.1477H22.0115C24.2507 12.1477 25.5431 11.0641 25.8806 8.91684C26.0327 7.97741 25.887 7.23929 25.4471 6.72235C24.964 6.15471 24.1071 5.85449 22.9693 5.85449ZM23.3615 9.03812C23.1756 10.2579 22.2436 10.2579 21.3425 10.2579H20.8295L21.1894 7.9799C21.1999 7.91325 21.2339 7.85255 21.2852 7.80872C21.3365 7.7649 21.4017 7.74081 21.4692 7.74081H21.7043C22.3182 7.74081 22.8972 7.74081 23.1965 8.09074C23.3749 8.2995 23.4296 8.60966 23.3615 9.03812ZM33.1306 8.99886H31.5027C31.4353 8.99886 31.37 9.02294 31.3187 9.06677C31.2674 9.1106 31.2334 9.17129 31.2229 9.23794L31.1508 9.69324L31.037 9.52822C30.6846 9.01675 29.8987 8.84576 29.1144 8.84576C27.3156 8.84576 25.7792 10.2082 25.4799 12.1194C25.3244 13.0727 25.5455 13.9843 26.0863 14.62C26.5824 15.2046 27.2922 15.4481 28.1367 15.4481C29.5861 15.4481 30.3898 14.5162 30.3898 14.5162L30.3173 14.9685C30.3108 15.0089 30.3132 15.0503 30.3242 15.0897C30.3353 15.1291 30.3548 15.1657 30.3813 15.1969C30.4079 15.2281 30.4409 15.2531 30.478 15.2703C30.5152 15.2875 30.5557 15.2965 30.5966 15.2965H32.0629C32.1755 15.2966 32.2844 15.2564 32.37 15.1832C32.4556 15.11 32.5122 15.0087 32.5296 14.8974L33.4094 9.32592C33.4159 9.28557 33.4135 9.24429 33.4025 9.20494C33.3915 9.1656 33.372 9.12911 33.3455 9.09801C33.319 9.06691 33.2861 9.04194 33.2489 9.02482C33.2118 9.0077 33.1715 8.99884 33.1306 8.99886ZM30.8615 12.1671C30.7045 13.0971 29.9663 13.7214 29.0249 13.7214C28.5522 13.7214 28.1745 13.5698 27.9319 13.2825C27.6913 12.9972 27.5999 12.5911 27.6764 12.1387C27.823 11.2167 28.5736 10.572 29.5006 10.572C29.9629 10.572 30.3386 10.7256 30.5862 11.0154C30.8342 11.3082 30.9326 11.7167 30.8615 12.1671ZM41.8002 8.99886H40.1644C40.0873 8.99898 40.0113 9.01792 39.9431 9.05404C39.875 9.09016 39.8166 9.14236 39.7732 9.20613L37.5171 12.5294L36.5608 9.33586C36.5314 9.23846 36.4715 9.15309 36.3898 9.0924C36.3082 9.0317 36.2092 8.99891 36.1074 8.99886H34.5C34.4548 8.99874 34.4104 9.0094 34.3702 9.02995C34.33 9.0505 34.2953 9.08035 34.269 9.11701C34.2427 9.15367 34.2255 9.19609 34.2189 9.24072C34.2123 9.28536 34.2165 9.33093 34.2311 9.37364L36.0329 14.6613L34.3389 17.0526C34.3088 17.095 34.291 17.1449 34.2873 17.1968C34.2837 17.2486 34.2944 17.3005 34.3182 17.3467C34.3421 17.3929 34.3782 17.4316 34.4226 17.4587C34.4671 17.4857 34.5181 17.5 34.5701 17.5H36.2039C36.2802 17.5001 36.3553 17.4817 36.4229 17.4464C36.4905 17.411 36.5486 17.3598 36.5921 17.2972L42.0328 9.44372C42.0623 9.40123 42.0796 9.35148 42.0828 9.29986C42.0861 9.24824 42.0751 9.19673 42.0511 9.15089C42.0272 9.10506 41.9911 9.06666 41.9469 9.03986C41.9027 9.01306 41.8519 8.99888 41.8002 8.99886Z" fill="#253B80"/>
<path d="M47.2161 5.85475H43.8163C43.7038 5.85479 43.5951 5.89497 43.5096 5.96805C43.4241 6.04112 43.3676 6.1423 43.35 6.25338L41.9752 14.9702C41.9688 15.0106 41.9712 15.0519 41.9823 15.0912C41.9934 15.1306 42.0129 15.1671 42.0395 15.1981C42.066 15.2292 42.099 15.2542 42.1361 15.2713C42.1733 15.2884 42.2137 15.2973 42.2545 15.2973H43.9992C44.0779 15.2972 44.154 15.269 44.2138 15.2178C44.2735 15.1666 44.3131 15.0957 44.3253 15.0179L44.7155 12.5471C44.7329 12.4359 44.7894 12.3346 44.8749 12.2614C44.9604 12.1883 45.0692 12.148 45.1817 12.1479H46.2573C48.497 12.1479 49.7889 11.0644 50.1269 8.9171C50.2795 7.97766 50.1328 7.23954 49.693 6.7226C49.2103 6.15497 48.3539 5.85475 47.2161 5.85475ZM47.6083 9.03838C47.4229 10.2581 46.4909 10.2581 45.5893 10.2581H45.0768L45.4372 7.98015C45.4475 7.9135 45.4814 7.85275 45.5326 7.8089C45.5838 7.76504 45.6491 7.74098 45.7165 7.74107H45.9516C46.565 7.74107 47.1446 7.74107 47.4438 8.09099C47.6222 8.29975 47.6764 8.60992 47.6083 9.03838ZM57.3769 8.99911H55.7501C55.6826 8.99892 55.6173 9.02295 55.566 9.06682C55.5148 9.1107 55.4809 9.1715 55.4707 9.23819L55.3986 9.69349L55.2843 9.52847C54.9319 9.017 54.1466 8.84602 53.3622 8.84602C51.5634 8.84602 50.0275 10.2084 49.7282 12.1196C49.5732 13.073 49.7934 13.9846 50.3342 14.6203C50.8312 15.2048 51.54 15.4484 52.3845 15.4484C53.8339 15.4484 54.6376 14.5164 54.6376 14.5164L54.5651 14.9687C54.5586 15.0093 54.561 15.0507 54.5721 15.0902C54.5832 15.1297 54.6028 15.1663 54.6295 15.1975C54.6561 15.2287 54.6892 15.2538 54.7265 15.2709C54.7638 15.288 54.8044 15.2969 54.8454 15.2968H56.3112C56.4238 15.2967 56.5326 15.2565 56.618 15.1833C56.7035 15.1101 56.76 15.0088 56.7775 14.8977L57.6577 9.32617C57.664 9.28569 57.6614 9.24434 57.6501 9.20496C57.6389 9.16558 57.6193 9.1291 57.5926 9.09803C57.5659 9.06696 57.5328 9.04203 57.4956 9.02495C57.4583 9.00788 57.4179 8.99906 57.3769 8.99911ZM55.1079 12.1673C54.9518 13.0973 54.2127 13.7216 53.2712 13.7216C52.7995 13.7216 52.4208 13.57 52.1782 13.2827C51.9376 12.9974 51.8472 12.5913 51.9227 12.139C52.0704 11.217 52.8199 10.5723 53.7469 10.5723C54.2092 10.5723 54.585 10.7259 54.8325 11.0157C55.0815 11.3084 55.1799 11.717 55.1079 12.1673ZM59.296 6.09383L57.9008 14.9702C57.8944 15.0106 57.8968 15.0519 57.9079 15.0912C57.919 15.1306 57.9385 15.1671 57.9651 15.1981C57.9916 15.2292 58.0246 15.2542 58.0617 15.2713C58.0989 15.2884 58.1393 15.2973 58.1802 15.2973H59.5828C59.816 15.2973 60.0138 15.1283 60.0496 14.8981L61.4254 6.18181C61.4318 6.1414 61.4294 6.1001 61.4183 6.06072C61.4072 6.02135 61.3877 5.98485 61.3611 5.95372C61.3346 5.9226 61.3016 5.89759 61.2645 5.88042C61.2274 5.86325 61.187 5.85432 61.1461 5.85425H59.5754C59.5079 5.85449 59.4428 5.87873 59.3916 5.92263C59.3404 5.96653 59.3065 6.02722 59.296 6.09383Z" fill="#179BD7"/>
<path d="M3.61156 16.9912L3.87152 15.34L3.29246 15.3265H0.527344L2.44896 3.14225C2.45468 3.10502 2.47358 3.07108 2.50223 3.04663C2.53088 3.02218 2.56737 3.00884 2.60503 3.00904H7.2674C8.81522 3.00904 9.88339 3.33113 10.4411 3.96686C10.7025 4.26509 10.8691 4.57674 10.9496 4.91971C11.0341 5.27958 11.0356 5.70953 10.9531 6.23392L10.9471 6.2722V6.6082L11.2085 6.75633C11.4081 6.85745 11.5875 6.99424 11.7379 7.15993C11.9616 7.41492 12.1062 7.739 12.1674 8.12323C12.2305 8.51838 12.2096 8.9886 12.1062 9.52094C11.9869 10.1333 11.7941 10.6667 11.5336 11.1031C11.3038 11.494 10.9948 11.8326 10.6265 12.0972C10.2805 12.3427 9.86948 12.5291 9.40473 12.6484C8.9544 12.7657 8.44094 12.8249 7.87778 12.8249H7.51493C7.25547 12.8249 7.00346 12.9183 6.80563 13.0858C6.60809 13.2551 6.47704 13.489 6.43583 13.7459L6.40849 13.8945L5.94921 16.8048L5.92833 16.9116C5.92287 16.9454 5.91342 16.9623 5.89951 16.9738C5.88602 16.9848 5.8692 16.9909 5.85179 16.9912H3.61156Z" fill="#253B80"/>
<path d="M11.456 6.31079C11.4421 6.39976 11.4262 6.49072 11.4083 6.58417C10.7935 9.74096 8.68992 10.8315 6.00334 10.8315H4.63545C4.30689 10.8315 4.03004 11.0701 3.97884 11.3942L3.27849 15.8358L3.08016 17.0949C3.07226 17.1448 3.07528 17.1959 3.08901 17.2445C3.10273 17.2932 3.12684 17.3383 3.15967 17.3768C3.1925 17.4152 3.23328 17.4461 3.27919 17.4673C3.3251 17.4885 3.37506 17.4995 3.42562 17.4995H5.85174C6.13904 17.4995 6.38309 17.2907 6.42832 17.0074L6.45218 16.8841L6.90897 13.9853L6.9383 13.8263C6.98303 13.5419 7.22758 13.3332 7.51488 13.3332H7.87773C10.2283 13.3332 12.0684 12.3788 12.6062 9.6172C12.8309 8.46353 12.7146 7.50024 12.1201 6.82276C11.9317 6.61318 11.7066 6.43969 11.456 6.31079Z" fill="#179BD7"/>
<path d="M10.8128 6.05461C10.6165 5.99782 10.4168 5.95349 10.2149 5.9219C9.81592 5.86058 9.41269 5.83116 9.00904 5.83392H5.3547C5.21562 5.83381 5.0811 5.88346 4.97544 5.97389C4.86979 6.06432 4.79997 6.18957 4.77861 6.327L4.00122 11.2508L3.97885 11.3945C4.00307 11.2377 4.08259 11.0948 4.20302 10.9916C4.32346 10.8884 4.47685 10.8317 4.63546 10.8318H6.00335C8.68993 10.8318 10.7935 9.74076 11.4083 6.58447C11.4267 6.49102 11.4421 6.40006 11.456 6.31109C11.2938 6.22601 11.1247 6.15468 10.9505 6.09785C10.9049 6.0827 10.859 6.06829 10.8128 6.05461Z" fill="#222D65"/>
<path d="M4.77863 6.32682C4.79981 6.18936 4.86959 6.06405 4.9753 5.97366C5.08101 5.88328 5.21564 5.83381 5.35472 5.83424H9.00906C9.44199 5.83424 9.8461 5.86257 10.2149 5.92222C10.4645 5.96144 10.7106 6.02011 10.9511 6.09768C11.1325 6.15782 11.301 6.2289 11.4566 6.31091C11.6395 5.14433 11.4551 4.35004 10.8243 3.6308C10.1289 2.83899 8.87386 2.5 7.26788 2.5H2.60551C2.27746 2.5 1.99762 2.73859 1.94692 3.06316L0.00492566 15.3727C-0.0041198 15.4299 -0.000678312 15.4883 0.0150134 15.544C0.0307051 15.5997 0.0582747 15.6513 0.0958256 15.6953C0.133376 15.7394 0.180018 15.7747 0.232541 15.799C0.285063 15.8233 0.342222 15.8359 0.400084 15.836H3.27852L4.00124 11.2506L4.77863 6.32682Z" fill="#253B80"/>
<rect x="68.4289" y="19" width="1" height="1" fill="white"/>
<path d="M89.8183 14.8558H87.3153L88.8809 5.17554H91.3837L89.8183 14.8558Z" fill="#00579F"/>
<path d="M98.8919 5.41213C98.3982 5.21626 97.6152 5 96.6469 5C94.1751 5 92.4345 6.31809 92.4238 8.20257C92.4033 9.59294 93.6701 10.3652 94.6175 10.8288C95.5859 11.3025 95.9151 11.6117 95.9151 12.0339C95.9052 12.6825 95.1326 12.9814 94.4119 12.9814C93.4126 12.9814 92.8772 12.8273 92.0634 12.4665L91.7339 12.3118L91.3836 14.4848C91.9706 14.7523 93.0522 14.9896 94.1751 15C96.8015 15 98.5113 13.7023 98.5316 11.6941C98.5415 10.5921 97.8726 9.74774 96.4305 9.05776C95.5551 8.61484 95.019 8.31618 95.019 7.86299C95.0292 7.451 95.4724 7.02902 96.4606 7.02902C97.2744 7.00835 97.8722 7.20394 98.3251 7.39967L98.5515 7.50246L98.8919 5.41213Z" fill="#00579F"/>
<path d="M102.219 11.4264C102.425 10.8703 103.218 8.71797 103.218 8.71797C103.208 8.73864 103.424 8.15158 103.547 7.79119L103.722 8.6253C103.722 8.6253 104.196 10.9424 104.299 11.4264C103.908 11.4264 102.713 11.4264 102.219 11.4264ZM105.308 5.17554H103.372C102.775 5.17554 102.322 5.35046 102.064 5.97871L98.3461 14.8557H100.972C100.972 14.8557 101.405 13.6609 101.498 13.4036C101.786 13.4036 104.341 13.4036 104.711 13.4036C104.783 13.7434 105.01 14.8557 105.01 14.8557H107.328L105.308 5.17554Z" fill="#00579F"/>
<path d="M85.2247 5.17554L82.7734 11.7765L82.5055 10.4378C82.0523 8.89303 80.631 7.21468 79.0449 6.38016L81.2902 14.8455H83.9371L87.8714 5.17554H85.2247Z" fill="#00579F"/>
<path d="M80.4972 5.17554H76.4701L76.4289 5.37113C79.5703 6.17444 81.6508 8.1108 82.5055 10.4382L81.6301 5.98925C81.486 5.37099 81.043 5.19593 80.4972 5.17554Z" fill="#FAA61A"/>
<path d="M119.009 19.8896V18.5653C119.016 18.4539 119 18.3421 118.961 18.2375C118.923 18.1328 118.862 18.0376 118.783 17.9583C118.705 17.8789 118.61 17.8172 118.506 17.7772C118.401 17.7373 118.29 17.72 118.178 17.7265C118.032 17.7169 117.886 17.7467 117.756 17.8127C117.625 17.8787 117.515 17.9785 117.436 18.1017C117.364 17.9822 117.262 17.8843 117.139 17.8183C117.016 17.7522 116.878 17.7205 116.738 17.7265C116.617 17.7204 116.496 17.7461 116.387 17.801C116.279 17.856 116.187 17.9384 116.12 18.0399V17.7795H115.66V19.8896H116.124V18.7286C116.114 18.6565 116.121 18.583 116.142 18.5135C116.164 18.444 116.201 18.3802 116.251 18.3267C116.3 18.2731 116.361 18.2311 116.428 18.2037C116.496 18.1762 116.568 18.164 116.641 18.168C116.946 18.168 117.1 18.3666 117.1 18.7242V19.8985H117.564V18.7286C117.555 18.6565 117.561 18.5832 117.583 18.5139C117.605 18.4446 117.642 18.381 117.692 18.3275C117.741 18.274 117.801 18.232 117.869 18.2045C117.936 18.1769 118.008 18.1644 118.081 18.168C118.395 18.168 118.545 18.3666 118.545 18.7242V19.8985L119.009 19.8896ZM125.871 17.7795H125.116V17.1394H124.652V17.7795H124.232V18.1989H124.661V19.1701C124.661 19.6601 124.851 19.9514 125.394 19.9514C125.597 19.9521 125.796 19.8955 125.968 19.7881L125.836 19.3952C125.712 19.4686 125.573 19.5097 125.429 19.5144C125.208 19.5144 125.124 19.3731 125.124 19.1612V18.1989H125.875L125.871 17.7795ZM129.789 17.7265C129.677 17.7232 129.566 17.7502 129.468 17.8046C129.37 17.859 129.289 17.9387 129.233 18.0355V17.7795H128.778V19.8896H129.237V18.7065C129.237 18.3578 129.387 18.1635 129.679 18.1635C129.777 18.1622 129.875 18.1802 129.966 18.2165L130.107 17.7751C130.002 17.7376 129.892 17.7181 129.78 17.7177L129.789 17.7265ZM123.866 17.9472C123.606 17.7927 123.307 17.7161 123.004 17.7265C122.47 17.7265 122.121 17.9826 122.121 18.4019C122.121 18.7463 122.377 18.9582 122.85 19.0244L123.07 19.0553C123.322 19.0906 123.441 19.1568 123.441 19.276C123.441 19.4394 123.274 19.5321 122.96 19.5321C122.708 19.5394 122.46 19.4616 122.258 19.3113L122.037 19.6689C122.304 19.8556 122.625 19.9516 122.951 19.9426C123.561 19.9426 123.914 19.6557 123.914 19.2539C123.914 18.8522 123.636 18.6889 123.176 18.6227L122.956 18.5918C122.757 18.5653 122.598 18.5255 122.598 18.3843C122.598 18.243 122.748 18.1371 123 18.1371C123.232 18.1398 123.461 18.2021 123.662 18.3181L123.866 17.9472ZM136.17 17.7265C136.058 17.7232 135.947 17.7502 135.849 17.8046C135.751 17.859 135.67 17.9387 135.613 18.0355V17.7795H135.158V19.8896H135.618V18.7065C135.618 18.3578 135.768 18.1635 136.059 18.1635C136.158 18.1622 136.255 18.1802 136.347 18.2165L136.488 17.7751C136.383 17.7376 136.272 17.7181 136.161 17.7177L136.17 17.7265ZM130.251 18.8301C130.245 18.9784 130.271 19.1262 130.326 19.2641C130.381 19.4019 130.464 19.5268 130.57 19.6307C130.676 19.7345 130.803 19.8152 130.942 19.8674C131.081 19.9196 131.229 19.9422 131.377 19.9338C131.653 19.9478 131.924 19.858 132.137 19.6822L131.916 19.3113C131.757 19.4324 131.564 19.4989 131.364 19.5012C131.194 19.4874 131.036 19.4103 130.92 19.2852C130.805 19.16 130.741 18.996 130.741 18.8257C130.741 18.6555 130.805 18.4915 130.92 18.3663C131.036 18.2411 131.194 18.164 131.364 18.1503C131.564 18.1525 131.757 18.2191 131.916 18.3401L132.137 17.9693C131.924 17.7934 131.653 17.7037 131.377 17.7177C131.229 17.7093 131.081 17.7319 130.942 17.7841C130.803 17.8363 130.676 17.9169 130.57 18.0208C130.464 18.1247 130.381 18.2495 130.326 18.3874C130.271 18.5252 130.245 18.673 130.251 18.8213V18.8301ZM134.553 18.8301V17.7795H134.094V18.0355C134.016 17.9352 133.915 17.8549 133.8 17.8011C133.685 17.7474 133.558 17.7218 133.431 17.7265C133.138 17.7265 132.857 17.8428 132.65 18.0498C132.443 18.2567 132.327 18.5374 132.327 18.8301C132.327 19.1229 132.443 19.4036 132.65 19.6105C132.857 19.8175 133.138 19.9338 133.431 19.9338C133.558 19.9385 133.685 19.9129 133.8 19.8592C133.915 19.8054 134.016 19.7251 134.094 19.6248V19.8808H134.553V18.8301ZM132.844 18.8301C132.851 18.7059 132.895 18.5866 132.969 18.4868C133.043 18.387 133.145 18.3111 133.262 18.2684C133.379 18.2258 133.506 18.2182 133.627 18.2467C133.748 18.2753 133.859 18.3386 133.944 18.4289C134.03 18.5192 134.087 18.6326 134.109 18.755C134.131 18.8775 134.117 19.0037 134.068 19.1182C134.019 19.2326 133.938 19.3302 133.834 19.3991C133.73 19.4679 133.609 19.5049 133.484 19.5056C133.397 19.5067 133.31 19.4897 133.229 19.4557C133.149 19.4217 133.076 19.3713 133.016 19.3079C132.956 19.2445 132.91 19.1693 132.88 19.087C132.85 19.0048 132.838 18.9174 132.844 18.8301ZM127.3 17.7265C127.007 17.7306 126.728 17.8508 126.524 18.0607C126.319 18.2706 126.207 18.5529 126.211 18.8456C126.215 19.1383 126.335 19.4174 126.545 19.6215C126.755 19.8255 127.038 19.9379 127.331 19.9338C127.649 19.9501 127.961 19.8478 128.208 19.6468L127.987 19.3069C127.812 19.4467 127.596 19.5244 127.373 19.5276C127.221 19.5407 127.07 19.494 126.952 19.3976C126.834 19.3011 126.758 19.1625 126.741 19.0111H128.309C128.309 18.9538 128.309 18.8964 128.309 18.8346C128.309 18.1724 127.899 17.7309 127.307 17.7309L127.3 17.7265ZM127.3 18.1371C127.369 18.1356 127.437 18.1477 127.501 18.1726C127.565 18.1976 127.624 18.2349 127.673 18.2824C127.723 18.33 127.763 18.3869 127.79 18.4498C127.818 18.5127 127.833 18.5804 127.834 18.6492H126.73C126.738 18.5075 126.801 18.3745 126.906 18.2788C127.011 18.1831 127.149 18.1322 127.291 18.1371H127.3ZM138.809 18.8346V16.9319H138.367V18.0355C138.289 17.9352 138.189 17.8549 138.073 17.8011C137.958 17.7474 137.832 17.7218 137.705 17.7265C137.412 17.7265 137.131 17.8428 136.924 18.0498C136.717 18.2567 136.601 18.5374 136.601 18.8301C136.601 19.1229 136.717 19.4036 136.924 19.6105C137.131 19.8175 137.412 19.9338 137.705 19.9338C137.832 19.9385 137.958 19.9129 138.073 19.8592C138.189 19.8054 138.289 19.7251 138.367 19.6248V19.8808H138.809V18.8346ZM139.576 19.5828C139.604 19.5825 139.633 19.5877 139.66 19.5983C139.685 19.6086 139.708 19.6236 139.728 19.6424C139.747 19.6615 139.763 19.6839 139.774 19.7086C139.786 19.7344 139.791 19.7622 139.791 19.7903C139.791 19.8184 139.786 19.8462 139.774 19.872C139.763 19.8967 139.747 19.9192 139.728 19.9382C139.708 19.957 139.685 19.972 139.66 19.9823C139.633 19.994 139.604 20 139.576 20C139.534 19.9997 139.493 19.9875 139.458 19.9648C139.422 19.9422 139.394 19.91 139.377 19.872C139.366 19.8462 139.36 19.8184 139.36 19.7903C139.36 19.7622 139.366 19.7345 139.377 19.7086C139.388 19.6839 139.404 19.6615 139.423 19.6424C139.443 19.6236 139.466 19.6086 139.492 19.5983C139.52 19.5868 139.551 19.5816 139.582 19.5828H139.576ZM139.576 19.9559C139.598 19.956 139.619 19.9515 139.64 19.9426C139.659 19.9341 139.676 19.9222 139.69 19.9073C139.718 19.8772 139.733 19.8378 139.733 19.7969C139.733 19.7561 139.718 19.7167 139.69 19.6866C139.676 19.6717 139.659 19.6597 139.64 19.6513C139.619 19.6425 139.598 19.6379 139.576 19.638C139.554 19.6381 139.532 19.6426 139.512 19.6513C139.492 19.6594 139.474 19.6714 139.459 19.6866C139.431 19.7167 139.416 19.7561 139.416 19.7969C139.416 19.8378 139.431 19.8772 139.459 19.9073C139.474 19.9224 139.492 19.9344 139.512 19.9426C139.534 19.9522 139.558 19.9567 139.582 19.9559H139.576ZM139.589 19.6932C139.609 19.6922 139.63 19.6984 139.646 19.7109C139.653 19.7164 139.658 19.7236 139.662 19.7316C139.665 19.7397 139.667 19.7485 139.666 19.7572C139.666 19.7645 139.665 19.7719 139.663 19.7787C139.66 19.7855 139.656 19.7917 139.651 19.7969C139.638 19.8086 139.622 19.8156 139.604 19.8168L139.668 19.8896H139.618L139.558 19.8168H139.538V19.8896H139.496V19.6954L139.589 19.6932ZM139.54 19.7307V19.7837H139.589C139.597 19.7863 139.607 19.7863 139.615 19.7837C139.617 19.7806 139.618 19.7772 139.618 19.7738C139.618 19.7703 139.617 19.7669 139.615 19.7638C139.617 19.7607 139.618 19.7573 139.618 19.7539C139.618 19.7504 139.617 19.747 139.615 19.744C139.607 19.7414 139.597 19.7414 139.589 19.744L139.54 19.7307ZM137.111 18.8346C137.118 18.7104 137.162 18.591 137.236 18.4912C137.31 18.3914 137.412 18.3155 137.529 18.2728C137.646 18.2302 137.773 18.2227 137.894 18.2512C138.015 18.2797 138.126 18.343 138.211 18.4333C138.297 18.5236 138.354 18.637 138.376 18.7594C138.398 18.8819 138.384 19.0081 138.335 19.1226C138.286 19.237 138.205 19.3347 138.101 19.4035C137.997 19.4723 137.876 19.5093 137.751 19.51C137.664 19.5111 137.577 19.4941 137.497 19.4601C137.416 19.4261 137.343 19.3758 137.283 19.3123C137.223 19.2489 137.177 19.1737 137.147 19.0915C137.117 19.0092 137.105 18.9218 137.111 18.8346ZM121.599 18.8346V17.7795H121.14V18.0355C121.062 17.9352 120.961 17.8549 120.846 17.8011C120.731 17.7474 120.605 17.7218 120.477 17.7265C120.185 17.7265 119.904 17.8428 119.697 18.0498C119.49 18.2567 119.373 18.5374 119.373 18.8301C119.373 19.1229 119.49 19.4036 119.697 19.6105C119.904 19.8175 120.185 19.9338 120.477 19.9338C120.605 19.9385 120.731 19.9129 120.846 19.8592C120.961 19.8054 121.062 19.7251 121.14 19.6248V19.8808H121.599V18.8346ZM119.89 18.8346C119.897 18.7104 119.941 18.591 120.015 18.4912C120.09 18.3914 120.191 18.3155 120.308 18.2728C120.425 18.2302 120.552 18.2227 120.673 18.2512C120.795 18.2797 120.905 18.343 120.99 18.4333C121.076 18.5236 121.133 18.637 121.155 18.7594C121.177 18.8819 121.163 19.0081 121.114 19.1226C121.065 19.237 120.984 19.3347 120.88 19.4035C120.777 19.4723 120.655 19.5093 120.53 19.51C120.443 19.5117 120.355 19.4952 120.274 19.4614C120.193 19.4277 120.12 19.3775 120.059 19.314C119.999 19.2505 119.952 19.175 119.922 19.0925C119.892 19.01 119.88 18.9222 119.886 18.8346H119.89Z" fill="#231F20"/>
<path d="M130.67 1.69946H123.713V14.1949H130.67V1.69946Z" fill="#FF5F00"/>
<path d="M124.155 7.94879C124.154 6.74522 124.426 5.55713 124.952 4.4745C125.479 3.39187 126.244 2.44308 127.192 1.69997C126.019 0.778702 124.61 0.205817 123.127 0.0467959C121.643 -0.112225 120.145 0.149032 118.803 0.800709C117.462 1.45239 116.33 2.46819 115.539 3.73203C114.747 4.99586 114.328 6.45674 114.328 7.94769C114.328 9.43864 114.747 10.8995 115.539 12.1634C116.33 13.4272 117.462 14.443 118.803 15.0947C120.145 15.7463 121.643 16.0076 123.127 15.8486C124.61 15.6896 126.019 15.1167 127.192 14.1954C126.245 13.4525 125.479 12.5041 124.953 11.4219C124.427 10.3396 124.154 9.15199 124.155 7.94879Z" fill="#EB001B"/>
<path d="M140.057 7.94825C140.057 9.43931 139.637 10.9003 138.846 12.1642C138.054 13.428 136.923 14.4438 135.581 15.0954C134.239 15.747 132.74 16.0081 131.257 15.8488C129.773 15.6896 128.365 15.1164 127.192 14.1949C128.138 13.4513 128.904 12.5026 129.43 11.4203C129.956 10.3381 130.23 9.15046 130.23 7.94714C130.23 6.74383 129.956 5.55623 129.43 4.47395C128.904 3.39166 128.138 2.44296 127.192 1.69943C128.365 0.777868 129.773 0.204705 131.257 0.045455C132.74 -0.113795 134.239 0.147295 135.581 0.798879C136.923 1.45046 138.054 2.46625 138.846 3.73013C139.637 4.99401 140.057 6.45498 140.057 7.94604V7.94825Z" fill="#F79E1B"/>
<path d="M139.297 12.8705V12.6145H139.401V12.5615H139.138V12.6145H139.251V12.8705H139.297ZM139.807 12.8705V12.5615H139.728L139.635 12.7823L139.542 12.5615H139.472V12.8705H139.529V12.6388L139.615 12.8396H139.675L139.761 12.6388V12.8728L139.807 12.8705Z" fill="#F79E1B"/>
<path fill-rule="evenodd" clip-rule="evenodd" d="M172.521 12.8697V12.5615H172.44L172.347 12.7732L172.255 12.5615H172.174V12.8697H172.231V12.6373L172.318 12.8379H172.377L172.464 12.6368V12.8697H172.521ZM172.011 12.8697V12.6141H172.114V12.562H171.851V12.6141H171.954V12.8697H172.011Z" fill="#0099DF"/>
<path fill-rule="evenodd" clip-rule="evenodd" d="M156.433 1.7002H163.386V14.1955H156.433V1.7002Z" fill="#6C6BBD"/>
<path fill-rule="evenodd" clip-rule="evenodd" d="M156.879 7.94676C156.879 5.41198 158.065 3.15412 159.914 1.69902C158.562 0.635008 156.856 0 155.003 0C150.614 0 147.057 3.55779 147.057 7.94676C147.057 12.3356 150.614 15.8934 155.003 15.8934C156.856 15.8934 158.562 15.2584 159.914 14.1944C158.065 12.7393 156.879 10.4815 156.879 7.94676Z" fill="#EB001B"/>
<path fill-rule="evenodd" clip-rule="evenodd" d="M172.763 7.94676C172.763 12.3356 169.206 15.8934 164.817 15.8934C162.964 15.8934 161.258 15.2584 159.906 14.1944C161.755 12.7393 162.941 10.4815 162.941 7.94676C162.941 5.41198 161.755 3.15412 159.906 1.69902C161.258 0.635008 162.964 0 164.817 0C169.206 0 172.763 3.55779 172.763 7.94676Z" fill="#0099DF"/>
<path fill-rule="evenodd" clip-rule="evenodd" d="M165.73 17.724C165.823 17.724 165.956 17.7417 166.057 17.7816L165.916 18.2141C165.819 18.1741 165.722 18.1611 165.629 18.1611C165.329 18.1611 165.179 18.3551 165.179 18.7036V19.8869H164.719V17.7771H165.174V18.0332C165.293 17.8478 165.466 17.724 165.73 17.724ZM164.034 18.1964H163.284V19.1497C163.284 19.3615 163.358 19.5029 163.588 19.5029C163.707 19.5029 163.857 19.463 163.994 19.3837L164.126 19.7762C163.981 19.8778 163.751 19.9399 163.553 19.9399C163.01 19.9399 162.82 19.6484 162.82 19.1583V18.1964H162.392V17.7771H162.82V17.137H163.284V17.7771H164.034V18.1964ZM158.158 18.6466C158.207 18.3419 158.392 18.1342 158.719 18.1342C159.015 18.1342 159.205 18.3196 159.253 18.6466H158.158ZM159.73 18.832C159.726 18.1741 159.319 17.724 158.728 17.724C158.11 17.724 157.677 18.1741 157.677 18.832C157.677 19.5024 158.128 19.9394 158.759 19.9394C159.077 19.9394 159.368 19.8601 159.624 19.6439L159.399 19.3038C159.222 19.4453 158.997 19.5247 158.785 19.5247C158.49 19.5247 158.221 19.3877 158.154 19.0083H159.721C159.726 18.9507 159.73 18.8937 159.73 18.832ZM161.747 18.3156C161.619 18.2358 161.359 18.1342 161.09 18.1342C160.838 18.1342 160.688 18.2272 160.688 18.3818C160.688 18.5228 160.847 18.5626 161.045 18.589L161.262 18.6198C161.721 18.6865 161.999 18.8805 161.999 19.2513C161.999 19.653 161.646 19.9399 161.037 19.9399C160.692 19.9399 160.374 19.8515 160.123 19.6661L160.339 19.3084C160.494 19.4277 160.723 19.5292 161.041 19.5292C161.354 19.5292 161.522 19.4367 161.522 19.2731C161.522 19.1543 161.403 19.0877 161.151 19.0527L160.935 19.0219C160.463 18.9552 160.207 18.7436 160.207 18.3995C160.207 17.9801 160.551 17.724 161.085 17.724C161.421 17.724 161.725 17.7993 161.946 17.9448L161.747 18.3156ZM167.408 18.1601C167.314 18.1601 167.226 18.1767 167.145 18.2096C167.064 18.2429 166.994 18.2894 166.935 18.349C166.876 18.4086 166.829 18.4803 166.795 18.5637C166.761 18.6471 166.745 18.739 166.745 18.8391C166.745 18.9396 166.761 19.0311 166.795 19.1144C166.829 19.1977 166.876 19.2695 166.935 19.3292C166.994 19.3887 167.064 19.4352 167.145 19.4686C167.226 19.5019 167.314 19.5181 167.408 19.5181C167.503 19.5181 167.591 19.5019 167.671 19.4686C167.753 19.4352 167.823 19.3887 167.883 19.3292C167.943 19.2695 167.989 19.1977 168.024 19.1144C168.057 19.0311 168.074 18.9396 168.074 18.8391C168.074 18.739 168.057 18.6471 168.024 18.5637C167.989 18.4803 167.943 18.4086 167.883 18.349C167.823 18.2894 167.753 18.2429 167.671 18.2096C167.591 18.1767 167.503 18.1601 167.408 18.1601ZM167.408 17.724C167.572 17.724 167.723 17.7523 167.863 17.8094C168.002 17.866 168.123 17.9443 168.225 18.0438C168.327 18.1433 168.406 18.2611 168.464 18.3965C168.521 18.5324 168.55 18.6799 168.55 18.8391C168.55 18.9982 168.521 19.1457 168.464 19.2817C168.406 19.417 168.327 19.5352 168.225 19.6347C168.123 19.7343 168.002 19.8121 167.863 19.8692C167.723 19.9258 167.572 19.9541 167.408 19.9541C167.244 19.9541 167.093 19.9258 166.953 19.8692C166.814 19.8121 166.694 19.7343 166.593 19.6347C166.492 19.5352 166.413 19.417 166.355 19.2817C166.298 19.1457 166.269 18.9982 166.269 18.8391C166.269 18.6799 166.298 18.5324 166.355 18.3965C166.413 18.2611 166.492 18.1433 166.593 18.0438C166.694 17.9443 166.814 17.866 166.953 17.8094C167.093 17.7523 167.244 17.724 167.408 17.724ZM155.477 18.832C155.477 18.4611 155.72 18.1565 156.117 18.1565C156.496 18.1565 156.752 18.448 156.752 18.832C156.752 19.216 156.496 19.507 156.117 19.507C155.72 19.507 155.477 19.2028 155.477 18.832ZM157.185 18.832V17.7771H156.726V18.0332C156.58 17.8432 156.36 17.724 156.06 17.724C155.468 17.724 155.005 18.1873 155.005 18.832C155.005 19.4762 155.468 19.9399 156.06 19.9399C156.36 19.9399 156.58 19.8207 156.726 19.6307V19.8869H157.185V18.832ZM154.599 19.8869V18.5626C154.599 18.0641 154.281 17.7286 153.769 17.724C153.5 17.7195 153.221 17.8033 153.027 18.0994C152.882 17.8655 152.652 17.724 152.33 17.724C152.105 17.724 151.884 17.7902 151.712 18.0372V17.7771H151.253V19.8869H151.716V18.7173C151.716 18.351 151.919 18.1565 152.233 18.1565C152.537 18.1565 152.692 18.3551 152.692 18.7127V19.8869H153.155V18.7173C153.155 18.351 153.367 18.1565 153.671 18.1565C153.985 18.1565 154.135 18.3551 154.135 18.7127V19.8869H154.599ZM169.045 19.7287V19.7808H169.093C169.103 19.7808 169.112 19.7782 169.118 19.7742C169.125 19.7702 169.129 19.7631 169.129 19.7545C169.129 19.7459 169.125 19.7393 169.118 19.7353C169.112 19.7307 169.103 19.7287 169.093 19.7287H169.045ZM169.093 19.6924C169.118 19.6924 169.137 19.6979 169.151 19.7091C169.164 19.7202 169.171 19.7353 169.171 19.7545C169.171 19.7707 169.166 19.7838 169.155 19.7944C169.144 19.8046 169.129 19.8111 169.109 19.8137L169.172 19.8869H169.123L169.064 19.8142H169.045V19.8869H169.003V19.6924H169.093ZM169.081 19.9536C169.103 19.9536 169.124 19.9496 169.144 19.9409C169.163 19.9323 169.181 19.9207 169.195 19.9061C169.21 19.8914 169.221 19.8742 169.23 19.8541C169.238 19.8343 169.243 19.8132 169.243 19.7904C169.243 19.7677 169.238 19.7464 169.23 19.7267C169.221 19.707 169.21 19.6893 169.195 19.6747C169.181 19.6601 169.163 19.6484 169.144 19.6403C169.124 19.6317 169.103 19.6277 169.081 19.6277C169.058 19.6277 169.036 19.6317 169.016 19.6403C168.996 19.6484 168.978 19.6601 168.964 19.6747C168.949 19.6893 168.938 19.707 168.929 19.7267C168.921 19.7464 168.917 19.7677 168.917 19.7904C168.917 19.8132 168.921 19.8343 168.929 19.8541C168.938 19.8742 168.949 19.8914 168.964 19.9061C168.978 19.9207 168.996 19.9323 169.016 19.9409C169.036 19.9496 169.058 19.9536 169.081 19.9536ZM169.081 19.5807C169.11 19.5807 169.138 19.5862 169.163 19.5974C169.19 19.608 169.212 19.6232 169.232 19.6423C169.251 19.6611 169.266 19.6833 169.277 19.7091C169.288 19.7343 169.294 19.7616 169.294 19.7904C169.294 19.8192 169.288 19.8465 169.277 19.8717C169.266 19.897 169.251 19.9192 169.232 19.9379C169.212 19.9571 169.19 19.9722 169.163 19.9834C169.138 19.9945 169.11 20.0001 169.081 20.0001C169.05 20.0001 169.022 19.9945 168.996 19.9834C168.97 19.9722 168.947 19.9571 168.928 19.9379C168.909 19.9192 168.894 19.897 168.882 19.8717C168.871 19.8465 168.866 19.8192 168.866 19.7904C168.866 19.7616 168.871 19.7343 168.882 19.7091C168.894 19.6833 168.909 19.6611 168.928 19.6423C168.947 19.6232 168.97 19.608 168.996 19.5974C169.022 19.5862 169.05 19.5807 169.081 19.5807Z" fill="#231F20"/>
<path fill-rule="evenodd" clip-rule="evenodd" d="M180.295 19.8003H180.229C180.229 19.7672 180.212 19.7172 180.212 19.7005C180.212 19.684 180.212 19.6509 180.162 19.6509H180.062V19.8003H180.013V19.4514H180.162C180.229 19.4514 180.279 19.468 180.279 19.5343C180.279 19.5842 180.262 19.601 180.245 19.6173C180.262 19.6341 180.279 19.6507 180.279 19.684V19.7504C180.279 19.7672 180.279 19.7672 180.295 19.7672V19.8003ZM180.229 19.5511C180.229 19.5012 180.195 19.5012 180.179 19.5012H180.062V19.601H180.162C180.195 19.601 180.229 19.5842 180.229 19.5511ZM180.511 19.6174C180.511 19.4182 180.345 19.2517 180.129 19.2517C179.929 19.2517 179.763 19.4182 179.763 19.6174C179.763 19.8336 179.929 20 180.129 20C180.345 19.9999 180.511 19.8336 180.511 19.6174ZM180.461 19.6174C180.461 19.8004 180.312 19.9334 180.129 19.9334C179.946 19.9334 179.813 19.8003 179.813 19.6174C179.813 19.4514 179.946 19.3016 180.129 19.3016C180.312 19.3016 180.461 19.4514 180.461 19.6174ZM200.943 12.901C200.943 13.3999 200.627 13.6324 200.062 13.6324H198.982V13.1336H200.062C200.162 13.1336 200.245 13.1171 200.279 13.0839C200.312 13.0506 200.345 13.0006 200.345 12.9342C200.345 12.8676 200.312 12.8012 200.279 12.768C200.245 12.7346 200.179 12.7182 200.079 12.7182C199.564 12.7014 198.915 12.7346 198.915 12.0032C198.915 11.6706 199.131 11.3048 199.713 11.3048H200.827V11.8036H199.796C199.697 11.8036 199.63 11.8036 199.58 11.8368C199.53 11.8867 199.497 11.9366 199.497 12.0198C199.497 12.1029 199.547 12.1528 199.613 12.1862C199.68 12.2027 199.747 12.2194 199.83 12.2194H200.129C200.445 12.2194 200.644 12.2858 200.777 12.4022C200.877 12.5186 200.943 12.6684 200.943 12.901ZM198.599 12.4022C198.466 12.2858 198.267 12.2194 197.951 12.2194H197.652C197.569 12.2194 197.502 12.2026 197.435 12.1862C197.369 12.1528 197.319 12.1029 197.319 12.0198C197.319 11.9366 197.336 11.8867 197.402 11.8368C197.452 11.8036 197.519 11.8036 197.618 11.8036H198.649V11.3048H197.535C196.937 11.3048 196.737 11.6706 196.737 12.0032C196.737 12.7345 197.386 12.7014 197.901 12.7182C198.001 12.7182 198.067 12.7346 198.1 12.768C198.134 12.8012 198.167 12.8676 198.167 12.9342C198.167 13.0006 198.134 13.0506 198.1 13.0839C198.051 13.1171 197.984 13.1336 197.884 13.1336H196.804V13.6324H197.884C198.449 13.6324 198.765 13.3998 198.765 12.901C198.765 12.6684 198.699 12.5186 198.599 12.4022ZM196.471 13.1505H195.158V12.6849H196.438V12.2196H195.158V11.7872H196.471V11.3052H194.609V13.6325H196.471V13.1505ZM194.011 11.4215C193.828 11.3217 193.612 11.305 193.329 11.305H192.049V13.6324H192.614V12.7846H193.213C193.412 12.7846 193.529 12.8013 193.612 12.8844C193.712 13.0006 193.712 13.2002 193.712 13.3499V13.6324H194.26V13.1835C194.26 12.9674 194.244 12.8676 194.177 12.7513C194.127 12.6847 194.028 12.6016 193.895 12.5518C194.044 12.502 194.294 12.3025 194.294 11.9366C194.293 11.6708 194.194 11.5211 194.011 11.4215ZM190.852 11.305H189.073L188.358 12.0698L187.677 11.305H185.432V13.6324H187.643L188.358 12.8676L189.04 13.6324H190.121V12.8512H190.819C191.301 12.8512 191.783 12.7182 191.783 12.0698C191.783 11.4381 191.284 11.305 190.852 11.305ZM193.562 12.2694C193.479 12.3025 193.396 12.3025 193.296 12.3025L192.614 12.3192V11.7871H193.296C193.396 11.7871 193.495 11.7871 193.562 11.8369C193.628 11.8704 193.678 11.9367 193.678 12.0365C193.678 12.1364 193.628 12.2195 193.562 12.2694ZM190.852 12.3857H190.12V11.7871H190.852C191.052 11.7871 191.185 11.8704 191.185 12.0698C191.185 12.2694 191.051 12.3857 190.852 12.3857ZM188.707 12.4687L189.572 11.5545V13.433L188.707 12.4687ZM187.361 13.1505H185.981V12.6849H187.211V12.2196H185.981V11.7872H187.377L187.993 12.4688L187.361 13.1505ZM199.397 9.62584H198.599L197.552 7.88022V9.62584H196.421L196.205 9.11045H195.042L194.825 9.62584H194.177C193.911 9.62584 193.562 9.55932 193.363 9.35975C193.18 9.16029 193.08 8.89431 193.08 8.47871C193.08 8.12952 193.13 7.8137 193.379 7.5644C193.545 7.38141 193.844 7.29841 194.227 7.29841H194.759V7.79723H194.227C194.027 7.79723 193.911 7.83049 193.795 7.93027C193.695 8.03005 193.645 8.21283 193.645 8.46223C193.645 8.71153 193.695 8.89441 193.795 9.01088C193.878 9.09387 194.027 9.12714 194.177 9.12714H194.426L195.224 7.29852H196.056L196.987 9.4929V7.29841H197.851L198.832 8.91099V7.29841H199.397V9.62584H199.397ZM192.797 7.29841H192.232V9.62584H192.797V7.29841ZM191.617 7.3982C191.434 7.29842 191.234 7.29841 190.952 7.29841H189.672V9.62584H190.22V8.77795H190.819C191.018 8.77795 191.151 8.79453 191.234 8.87773C191.334 8.99409 191.317 9.19366 191.317 9.3266V9.62584H191.882V9.16029C191.882 8.96083 191.866 8.86105 191.783 8.74469C191.733 8.67817 191.633 8.59496 191.517 8.54523C191.666 8.47871 191.916 8.29582 191.916 7.93006C191.916 7.66418 191.8 7.51445 191.617 7.3982ZM189.273 9.14382H187.976V8.67827H189.256V8.19625H187.976V7.78054H189.273V7.29852H187.411V9.62595H189.273V9.14382ZM186.995 7.29841H186.081L185.399 8.87773L184.667 7.29841H183.77V9.4928L182.822 7.29841H181.991L180.993 9.62584H181.592L181.808 9.11045H182.972L183.188 9.62584H184.318V7.79723L185.133 9.62584H185.615L186.43 7.79723V9.62584H186.995V7.29841H186.995ZM196.006 8.61175L195.623 7.69744L195.241 8.61175H196.006ZM191.185 8.24609C191.102 8.29603 191.018 8.29603 190.902 8.29603H190.22V7.78065H190.902C191.002 7.78065 191.118 7.78065 191.184 7.81391C191.251 7.86385 191.284 7.93037 191.284 8.03005C191.284 8.12973 191.251 8.21272 191.185 8.24609ZM182.007 8.61175L182.39 7.69744L182.772 8.61175H182.007ZM200.81 0H180.977V8.37903L181.658 6.83297H183.105L183.304 7.21532V6.83297H185L185.382 7.66418L185.748 6.83297H191.151C191.401 6.83297 191.617 6.88281 191.783 7.01575V6.83297H193.263V7.01575C193.512 6.88271 193.828 6.83297 194.194 6.83297H196.338L196.538 7.21532V6.83297H198.117L198.35 7.21532V6.83297H199.896V10.0914H198.333L198.034 9.59269V10.0914H196.089L195.873 9.55942H195.391L195.174 10.0914H194.16C193.761 10.0914 193.462 9.99161 193.263 9.89193V10.0914H190.852V9.34328C190.852 9.2435 190.835 9.22681 190.769 9.22681H190.686V10.0913H186.031V9.67568L185.865 10.0913H184.884L184.718 9.69226V10.0913H182.839L182.639 9.55932H182.157L181.941 10.0913H180.977V19.9167H200.81V13.9483C200.594 14.0481 200.295 14.0979 199.996 14.0979H198.549V13.8983C198.383 14.0315 198.084 14.0979 197.801 14.0979H193.246V13.3499C193.246 13.2501 193.23 13.2501 193.146 13.2501H193.063V14.0979H191.567V13.2169C191.318 13.3331 191.035 13.3331 190.786 13.3331H190.619V14.0979H188.791L188.358 13.5991L187.876 14.0979H184.933V10.8396H187.926L188.358 11.3381L188.824 10.8396H190.835C191.068 10.8396 191.451 10.8728 191.617 11.0389V10.8396H193.412C193.595 10.8396 193.944 10.8728 194.177 11.0389V10.8396H196.887V11.0391C197.036 10.906 197.319 10.8397 197.568 10.8397H199.081V11.0391C199.248 10.9227 199.48 10.8397 199.78 10.8397H200.81V0Z" fill="#006FCF"/>
<path d="M236.944 18.2856C236.944 19.2325 236.176 20 235.23 20H209.658C208.711 20 207.943 19.2323 207.943 18.2856V1.71431C207.943 0.767493 208.711 0 209.658 0H235.229C236.176 0 236.944 0.767549 236.944 1.71431L236.944 18.2856Z" fill="#34495E"/>
<path opacity="0.15" d="M209.162 18.2856V1.71431C209.162 0.767493 209.93 0 210.876 0H209.658C208.711 0 207.943 0.767606 207.943 1.71431V18.2856C207.943 19.2325 208.711 20 209.658 20H210.876C209.93 20 209.162 19.2323 209.162 18.2856Z" fill="#202121"/>
<path d="M225.468 9.98875C225.47 9.44296 225.265 8.89637 224.853 8.48447C224.441 8.07172 223.893 7.86725 223.346 7.87053C223.343 7.87053 223.341 7.87036 223.338 7.87036C222.15 7.87036 221.208 8.8122 221.208 10.0002C221.208 11.1765 222.162 12.1299 223.338 12.1299C224.526 12.1299 225.468 11.1879 225.468 10.0002C225.468 9.99629 225.468 9.9926 225.468 9.98875Z" fill="#F26E21"/>
<path d="M220.812 10.9011C220.494 11.2198 220.2 11.3443 219.884 11.351C219.113 11.3441 218.546 10.7732 218.546 9.95918C218.546 9.54943 218.701 9.21361 218.947 8.92672C219.177 8.70791 219.474 8.56653 219.816 8.56653C220.184 8.56653 220.471 8.68939 220.798 9.01706V8.07506C220.471 7.91131 220.184 7.82935 219.816 7.82935C219.295 7.86656 218.804 8.07693 218.427 8.40726C218.319 8.50491 218.215 8.6127 218.127 8.73606C217.852 9.09256 217.685 9.5291 217.685 10.0003C217.685 11.1879 218.628 12.089 219.815 12.089C219.821 12.089 219.827 12.0884 219.833 12.0884C219.841 12.0885 219.848 12.089 219.856 12.089C220.184 12.089 220.471 12.0072 220.839 11.8434L220.812 10.9011C220.798 10.9149 220.826 10.9278 220.812 10.9409V10.9011Z" fill="#E7E8E3"/>
<path d="M228.157 8.41586L227.229 10.6964L226.164 7.99292H225.304L226.983 12.1297H227.434L229.195 7.99292H228.335L228.157 8.41586Z" fill="#E7E8E3"/>
<path d="M229.523 9.79514V12.007H231.735H231.775V11.3515H231.079H230.342V10.6144V10.2459H231.735V9.54937H230.342V8.68933H231.775V7.99292H229.523V9.79514Z" fill="#E7E8E3"/>
<path d="M211.01 7.99292H209.863V12.007H211.01C211.624 12.007 212.074 11.8431 212.443 11.5563C212.893 11.1877 213.18 10.6145 213.18 10.0002C213.18 8.81207 212.32 7.99292 211.01 7.99292ZM211.952 11.024C211.706 11.2287 211.378 11.3515 210.887 11.3515H210.641V8.68927H210.846C211.337 8.68927 211.665 8.77117 211.911 9.01683C212.197 9.26243 212.361 9.63128 212.361 10C212.402 10.3686 212.238 10.778 211.952 11.024Z" fill="#E7E8E3"/>
<path d="M214.327 7.99268H213.549V12.0067H214.327V7.99268Z" fill="#E7E8E3"/>
<path d="M216.293 9.54933C215.802 9.38552 215.679 9.26255 215.679 9.05785C215.679 8.81208 215.924 8.60732 216.252 8.60732C216.498 8.60732 216.703 8.68928 216.907 8.93505L217.317 8.40262C216.989 8.11579 216.58 7.95215 216.129 7.95215C215.433 7.95215 214.859 8.44368 214.859 9.0988C214.859 9.67235 215.105 9.91806 215.843 10.2048C216.17 10.3275 216.293 10.3686 216.375 10.4505C216.539 10.5323 216.621 10.6963 216.621 10.8599C216.621 11.1876 216.375 11.4334 216.006 11.4334C215.637 11.4334 215.31 11.2287 215.146 10.901L214.655 11.3925C215.023 11.9249 215.474 12.1706 216.047 12.1706C216.866 12.1706 217.44 11.6382 217.44 10.8599C217.44 10.1638 217.194 9.87705 216.293 9.54933Z" fill="#E7E8E3"/>
<path d="M233.987 10.3275C234.601 10.2048 234.929 9.79508 234.929 9.18086C234.929 8.44373 234.397 7.99292 233.496 7.99292H232.308V12.007H233.086V10.4095H233.209L234.315 12.007H235.257L233.987 10.3275ZM233.332 9.83598H233.086V8.60737H233.332C233.823 8.60737 234.11 8.81207 234.11 9.22193C234.11 9.63133 233.823 9.83598 233.332 9.83598Z" fill="#E7E8E3"/>
</g>
<defs>
<clipPath id="clip0">
<rect width="236.944" height="20" fill="white"/>
</clipPath>
</defs>
</svg>
