<svg width="193" height="20" viewBox="0 0 193 20" fill="none" xmlns="http://www.w3.org/2000/svg">
<g clip-path="url(#clip0)">
<path d="M22.9693 5.85449H19.57C19.4574 5.85442 19.3486 5.89454 19.263 5.96763C19.1774 6.04072 19.1208 6.14197 19.1032 6.25313L17.7284 14.97C17.7221 15.0104 17.7246 15.0518 17.7358 15.0911C17.7469 15.1305 17.7665 15.167 17.7932 15.1981C17.8198 15.2292 17.8529 15.2541 17.8901 15.2712C17.9273 15.2883 17.9678 15.2971 18.0087 15.297H19.6316C19.7442 15.2971 19.8531 15.2569 19.9387 15.1837C20.0243 15.1105 20.0809 15.0091 20.0983 14.8979L20.4691 12.5468C20.4865 12.4357 20.5431 12.3344 20.6286 12.2612C20.714 12.188 20.8228 12.1478 20.9354 12.1477H22.0115C24.2507 12.1477 25.5431 11.0641 25.8806 8.91684C26.0327 7.97741 25.887 7.23929 25.4471 6.72235C24.964 6.15471 24.1071 5.85449 22.9693 5.85449V5.85449ZM23.3615 9.03812C23.1756 10.2579 22.2436 10.2579 21.3425 10.2579H20.8295L21.1894 7.9799C21.1999 7.91325 21.2339 7.85255 21.2852 7.80872C21.3365 7.7649 21.4017 7.74081 21.4692 7.74081H21.7043C22.3182 7.74081 22.8972 7.74081 23.1965 8.09074C23.3749 8.2995 23.4296 8.60966 23.3615 9.03812V9.03812ZM33.1306 8.99886H31.5027C31.4353 8.99886 31.37 9.02294 31.3187 9.06677C31.2674 9.1106 31.2334 9.17129 31.2229 9.23794L31.1508 9.69324L31.037 9.52822C30.6846 9.01675 29.8987 8.84576 29.1144 8.84576C27.3156 8.84576 25.7792 10.2082 25.4799 12.1194C25.3244 13.0727 25.5455 13.9843 26.0863 14.62C26.5824 15.2046 27.2922 15.4481 28.1367 15.4481C29.5861 15.4481 30.3898 14.5162 30.3898 14.5162L30.3173 14.9685C30.3108 15.0089 30.3132 15.0503 30.3242 15.0897C30.3353 15.1291 30.3548 15.1657 30.3813 15.1969C30.4079 15.2281 30.4409 15.2531 30.478 15.2703C30.5152 15.2875 30.5557 15.2965 30.5966 15.2965H32.0629C32.1755 15.2966 32.2844 15.2564 32.37 15.1832C32.4556 15.11 32.5122 15.0087 32.5296 14.8974L33.4094 9.32592C33.4159 9.28557 33.4135 9.24429 33.4025 9.20494C33.3915 9.16559 33.372 9.12911 33.3455 9.09801C33.319 9.06691 33.2861 9.04194 33.2489 9.02482C33.2118 9.0077 33.1715 8.99884 33.1306 8.99886V8.99886ZM30.8615 12.1671C30.7045 13.0971 29.9663 13.7214 29.0249 13.7214C28.5522 13.7214 28.1745 13.5698 27.9319 13.2825C27.6913 12.9972 27.5999 12.5911 27.6764 12.1387C27.823 11.2167 28.5736 10.572 29.5006 10.572C29.9629 10.572 30.3386 10.7256 30.5862 11.0154C30.8342 11.3082 30.9326 11.7167 30.8615 12.1671V12.1671ZM41.8002 8.99886H40.1644C40.0873 8.99898 40.0113 9.01792 39.9431 9.05404C39.875 9.09016 39.8166 9.14237 39.7732 9.20613L37.5171 12.5294L36.5608 9.33586C36.5314 9.23846 36.4715 9.15309 36.3898 9.0924C36.3082 9.0317 36.2092 8.99891 36.1074 8.99886H34.5C34.4548 8.99874 34.4104 9.0094 34.3702 9.02995C34.33 9.0505 34.2953 9.08035 34.269 9.11701C34.2427 9.15367 34.2255 9.19609 34.2189 9.24072C34.2123 9.28536 34.2165 9.33093 34.2311 9.37364L36.0329 14.6613L34.3389 17.0526C34.3088 17.095 34.291 17.1449 34.2873 17.1968C34.2837 17.2486 34.2944 17.3005 34.3182 17.3467C34.3421 17.3929 34.3782 17.4316 34.4226 17.4587C34.4671 17.4857 34.5181 17.5 34.5701 17.5H36.2039C36.2802 17.5001 36.3553 17.4817 36.4229 17.4464C36.4905 17.411 36.5486 17.3598 36.5921 17.2972L42.0328 9.44372C42.0623 9.40123 42.0796 9.35148 42.0828 9.29986C42.0861 9.24824 42.0751 9.19673 42.0511 9.15089C42.0272 9.10506 41.9911 9.06666 41.9469 9.03986C41.9027 9.01306 41.8519 8.99888 41.8002 8.99886V8.99886Z" fill="#253B80"/>
<path d="M47.2161 5.85475H43.8163C43.7038 5.85479 43.5951 5.89497 43.5096 5.96805C43.4241 6.04112 43.3676 6.1423 43.35 6.25338L41.9752 14.9702C41.9688 15.0106 41.9712 15.0519 41.9823 15.0912C41.9934 15.1306 42.0129 15.1671 42.0395 15.1981C42.066 15.2292 42.099 15.2542 42.1361 15.2713C42.1733 15.2884 42.2137 15.2973 42.2545 15.2973H43.9992C44.0779 15.2972 44.154 15.269 44.2138 15.2178C44.2735 15.1666 44.3131 15.0957 44.3253 15.0179L44.7155 12.5471C44.7329 12.4359 44.7894 12.3346 44.8749 12.2614C44.9604 12.1883 45.0692 12.148 45.1817 12.1479H46.2573C48.497 12.1479 49.7889 11.0644 50.1269 8.9171C50.2795 7.97766 50.1328 7.23954 49.693 6.7226C49.2103 6.15497 48.3539 5.85475 47.2161 5.85475V5.85475ZM47.6083 9.03838C47.4229 10.2581 46.4909 10.2581 45.5893 10.2581H45.0768L45.4372 7.98015C45.4475 7.9135 45.4814 7.85275 45.5326 7.8089C45.5838 7.76504 45.6491 7.74098 45.7165 7.74107H45.9516C46.565 7.74107 47.1446 7.74107 47.4438 8.09099C47.6222 8.29975 47.6764 8.60992 47.6083 9.03838V9.03838ZM57.3769 8.99911H55.7501C55.6826 8.99892 55.6173 9.02295 55.566 9.06682C55.5148 9.1107 55.4809 9.1715 55.4707 9.23819L55.3986 9.69349L55.2843 9.52847C54.9319 9.017 54.1466 8.84602 53.3622 8.84602C51.5634 8.84602 50.0275 10.2084 49.7282 12.1196C49.5732 13.073 49.7934 13.9846 50.3342 14.6203C50.8312 15.2048 51.54 15.4484 52.3845 15.4484C53.8339 15.4484 54.6376 14.5164 54.6376 14.5164L54.5651 14.9687C54.5586 15.0093 54.561 15.0507 54.5721 15.0902C54.5832 15.1297 54.6028 15.1663 54.6295 15.1975C54.6561 15.2287 54.6892 15.2538 54.7265 15.2709C54.7638 15.288 54.8044 15.2969 54.8454 15.2968H56.3112C56.4238 15.2967 56.5326 15.2565 56.618 15.1833C56.7035 15.1101 56.7601 15.0088 56.7775 14.8977L57.6577 9.32617C57.664 9.28569 57.6614 9.24434 57.6501 9.20496C57.6389 9.16558 57.6193 9.1291 57.5926 9.09803C57.5659 9.06696 57.5328 9.04203 57.4956 9.02495C57.4583 9.00788 57.4179 8.99906 57.3769 8.99911V8.99911ZM55.1079 12.1673C54.9518 13.0973 54.2127 13.7216 53.2712 13.7216C52.7995 13.7216 52.4208 13.57 52.1782 13.2827C51.9376 12.9974 51.8472 12.5913 51.9227 12.139C52.0704 11.217 52.8199 10.5723 53.7469 10.5723C54.2092 10.5723 54.585 10.7259 54.8325 11.0157C55.0815 11.3084 55.1799 11.717 55.1079 12.1673V12.1673ZM59.296 6.09383L57.9008 14.9702C57.8944 15.0106 57.8968 15.0519 57.9079 15.0912C57.919 15.1306 57.9385 15.1671 57.9651 15.1981C57.9916 15.2292 58.0246 15.2542 58.0617 15.2713C58.0989 15.2884 58.1393 15.2973 58.1802 15.2973H59.5828C59.816 15.2973 60.0138 15.1283 60.0496 14.8981L61.4254 6.18181C61.4318 6.1414 61.4294 6.1001 61.4183 6.06072C61.4072 6.02135 61.3877 5.98485 61.3611 5.95372C61.3346 5.9226 61.3016 5.89759 61.2645 5.88042C61.2274 5.86325 61.187 5.85432 61.1461 5.85425H59.5754C59.508 5.85449 59.4428 5.87873 59.3916 5.92263C59.3404 5.96653 59.3065 6.02722 59.296 6.09383Z" fill="#179BD7"/>
<path d="M3.61156 16.9912L3.87152 15.34L3.29246 15.3265H0.527344L2.44896 3.14225C2.45468 3.10502 2.47358 3.07108 2.50223 3.04663C2.53088 3.02218 2.56737 3.00884 2.60503 3.00904H7.2674C8.81522 3.00904 9.88339 3.33113 10.4411 3.96686C10.7025 4.26509 10.8691 4.57674 10.9496 4.91971C11.0341 5.27958 11.0356 5.70953 10.9531 6.23392L10.9471 6.2722V6.6082L11.2085 6.75633C11.4081 6.85745 11.5875 6.99424 11.7379 7.15993C11.9616 7.41492 12.1062 7.739 12.1674 8.12323C12.2305 8.51838 12.2096 8.9886 12.1062 9.52094C11.9869 10.1333 11.7941 10.6667 11.5336 11.1031C11.3038 11.494 10.9948 11.8326 10.6265 12.0972C10.2805 12.3427 9.86948 12.5291 9.40473 12.6484C8.9544 12.7657 8.44094 12.8249 7.87778 12.8249H7.51493C7.25547 12.8249 7.00346 12.9183 6.80563 13.0858C6.60809 13.2551 6.47704 13.489 6.43583 13.7459L6.40849 13.8945L5.94921 16.8048L5.92833 16.9116C5.92287 16.9454 5.91342 16.9623 5.89951 16.9738C5.88602 16.9848 5.8692 16.9909 5.85179 16.9912H3.61156Z" fill="#253B80"/>
<path d="M11.456 6.31079C11.4421 6.39976 11.4262 6.49072 11.4083 6.58417C10.7935 9.74096 8.68992 10.8315 6.00334 10.8315H4.63545C4.30689 10.8315 4.03004 11.0701 3.97884 11.3942L3.27849 15.8358L3.08016 17.0949C3.07226 17.1448 3.07528 17.1959 3.08901 17.2445C3.10273 17.2932 3.12684 17.3383 3.15967 17.3768C3.1925 17.4152 3.23328 17.4461 3.27919 17.4673C3.3251 17.4885 3.37506 17.4995 3.42562 17.4995H5.85174C6.13904 17.4995 6.38309 17.2907 6.42832 17.0074L6.45218 16.8841L6.90897 13.9853L6.9383 13.8262C6.98303 13.5419 7.22758 13.3332 7.51488 13.3332H7.87773C10.2283 13.3332 12.0684 12.3788 12.6062 9.6172C12.8309 8.46353 12.7146 7.50024 12.1201 6.82276C11.9317 6.61318 11.7066 6.43969 11.456 6.31079V6.31079Z" fill="#179BD7"/>
<path d="M10.8128 6.05461C10.6165 5.99782 10.4168 5.95349 10.2149 5.9219C9.81592 5.86058 9.41269 5.83116 9.00904 5.83392H5.3547C5.21562 5.83381 5.0811 5.88346 4.97544 5.97389C4.86979 6.06432 4.79997 6.18957 4.77861 6.327L4.00122 11.2508L3.97885 11.3945C4.00307 11.2377 4.08259 11.0948 4.20302 10.9916C4.32346 10.8884 4.47685 10.8317 4.63546 10.8318H6.00335C8.68993 10.8318 10.7935 9.74076 11.4083 6.58447C11.4267 6.49102 11.4421 6.40006 11.456 6.31109C11.2938 6.22601 11.1247 6.15468 10.9505 6.09785C10.9049 6.0827 10.859 6.06829 10.8128 6.05461V6.05461Z" fill="#222D65"/>
<path d="M4.77863 6.32682C4.79981 6.18936 4.86959 6.06405 4.9753 5.97366C5.08101 5.88328 5.21564 5.83381 5.35472 5.83424H9.00906C9.442 5.83424 9.8461 5.86257 10.2149 5.92222C10.4645 5.96144 10.7106 6.02011 10.9511 6.09768C11.1325 6.15782 11.301 6.2289 11.4566 6.31091C11.6395 5.14433 11.4551 4.35004 10.8243 3.6308C10.1289 2.83899 8.87386 2.5 7.26788 2.5H2.60551C2.27746 2.5 1.99762 2.73859 1.94692 3.06316L0.00492566 15.3727C-0.0041198 15.4299 -0.000678312 15.4883 0.0150134 15.544C0.0307051 15.5997 0.0582747 15.6513 0.0958256 15.6953C0.133376 15.7394 0.180018 15.7747 0.232541 15.799C0.285063 15.8233 0.342222 15.8359 0.400084 15.836H3.27852L4.00124 11.2506L4.77863 6.32682V6.32682Z" fill="#253B80"/>
<path d="M81.8183 14.8558H79.3153L80.8809 5.17554H83.3837L81.8183 14.8558Z" fill="#00579F"/>
<path d="M90.8919 5.41213C90.3982 5.21626 89.6152 5 88.6469 5C86.1751 5 84.4345 6.31809 84.4238 8.20257C84.4033 9.59294 85.6701 10.3652 86.6175 10.8288C87.5859 11.3025 87.9151 11.6117 87.9151 12.0339C87.9052 12.6825 87.1326 12.9814 86.4119 12.9814C85.4126 12.9814 84.8772 12.8273 84.0634 12.4665L83.7339 12.3118L83.3836 14.4848C83.9706 14.7523 85.0522 14.9896 86.1751 15C88.8015 15 90.5113 13.7023 90.5316 11.6941C90.5415 10.5921 89.8726 9.74774 88.4305 9.05776C87.5551 8.61484 87.019 8.31618 87.019 7.86299C87.0292 7.451 87.4724 7.02902 88.4606 7.02902C89.2744 7.00835 89.8722 7.20394 90.3251 7.39967L90.5515 7.50246L90.8919 5.41213V5.41213Z" fill="#00579F"/>
<path d="M94.2187 11.4264C94.4248 10.8703 95.218 8.71797 95.218 8.71797C95.2076 8.73864 95.4237 8.15158 95.5473 7.79119L95.7222 8.6253C95.7222 8.6253 96.1962 10.9424 96.2991 11.4264C95.9079 11.4264 94.713 11.4264 94.2187 11.4264ZM97.3083 5.17554H95.3722C94.7752 5.17554 94.3216 5.35046 94.064 5.97871L90.3461 14.8557H92.9724C92.9724 14.8557 93.4048 13.6609 93.4977 13.4036C93.7859 13.4036 96.3407 13.4036 96.7114 13.4036C96.7833 13.7434 97.0101 14.8557 97.0101 14.8557H99.3276L97.3083 5.17554V5.17554Z" fill="#00579F"/>
<path d="M77.2247 5.17554L74.7734 11.7765L74.5055 10.4378C74.0523 8.89303 72.631 7.21468 71.045 6.38016L73.2902 14.8455H75.9371L79.8714 5.17554H77.2247V5.17554Z" fill="#00579F"/>
<path d="M72.4972 5.17554H68.4701L68.4289 5.37113C71.5703 6.17444 73.6508 8.1108 74.5055 10.4382L73.6301 5.98925C73.486 5.37099 73.043 5.19593 72.4972 5.17554Z" fill="#FAA61A"/>
<path d="M111.009 19.8896V18.5653C111.016 18.4539 111 18.3421 110.961 18.2375C110.923 18.1328 110.862 18.0376 110.783 17.9583C110.705 17.8789 110.61 17.8172 110.506 17.7772C110.401 17.7373 110.29 17.72 110.178 17.7265C110.032 17.7169 109.886 17.7467 109.756 17.8127C109.625 17.8787 109.515 17.9785 109.436 18.1017C109.364 17.9822 109.262 17.8843 109.139 17.8183C109.016 17.7522 108.878 17.7205 108.738 17.7265C108.617 17.7204 108.496 17.7461 108.387 17.801C108.279 17.856 108.187 17.9384 108.12 18.0399V17.7795H107.66V19.8896H108.124V18.7286C108.114 18.6565 108.121 18.583 108.142 18.5135C108.164 18.444 108.201 18.3802 108.251 18.3267C108.3 18.2731 108.361 18.2311 108.428 18.2037C108.496 18.1762 108.568 18.164 108.641 18.168C108.946 18.168 109.1 18.3666 109.1 18.7242V19.8985H109.564V18.7286C109.555 18.6565 109.561 18.5832 109.583 18.5139C109.605 18.4446 109.642 18.381 109.692 18.3275C109.741 18.274 109.801 18.232 109.869 18.2045C109.936 18.1769 110.008 18.1644 110.081 18.168C110.395 18.168 110.545 18.3666 110.545 18.7242V19.8985L111.009 19.8896ZM117.871 17.7795H117.116V17.1394H116.652V17.7795H116.232V18.1989H116.661V19.1701C116.661 19.6601 116.851 19.9514 117.394 19.9514C117.597 19.9521 117.796 19.8955 117.968 19.7881L117.836 19.3952C117.712 19.4686 117.573 19.5097 117.429 19.5144C117.208 19.5144 117.124 19.3731 117.124 19.1612V18.1989H117.875L117.871 17.7795ZM121.789 17.7265C121.677 17.7232 121.566 17.7502 121.468 17.8046C121.37 17.859 121.289 17.9387 121.233 18.0355V17.7795H120.778V19.8896H121.237V18.7065C121.237 18.3578 121.387 18.1635 121.679 18.1635C121.777 18.1622 121.875 18.1802 121.966 18.2165L122.107 17.7751C122.002 17.7376 121.892 17.7181 121.78 17.7177L121.789 17.7265ZM115.866 17.9472C115.606 17.7927 115.307 17.7161 115.004 17.7265C114.47 17.7265 114.121 17.9826 114.121 18.4019C114.121 18.7463 114.377 18.9582 114.85 19.0244L115.07 19.0553C115.322 19.0906 115.441 19.1568 115.441 19.276C115.441 19.4394 115.274 19.5321 114.96 19.5321C114.708 19.5394 114.46 19.4616 114.258 19.3113L114.037 19.6689C114.304 19.8556 114.625 19.9516 114.951 19.9426C115.561 19.9426 115.914 19.6557 115.914 19.2539C115.914 18.8522 115.636 18.6889 115.176 18.6227L114.956 18.5918C114.757 18.5653 114.598 18.5255 114.598 18.3843C114.598 18.243 114.748 18.1371 115 18.1371C115.232 18.1398 115.461 18.2021 115.662 18.3181L115.866 17.9472ZM128.17 17.7265C128.058 17.7232 127.947 17.7502 127.849 17.8046C127.751 17.859 127.67 17.9387 127.613 18.0355V17.7795H127.158V19.8896H127.618V18.7065C127.618 18.3578 127.768 18.1635 128.059 18.1635C128.158 18.1622 128.255 18.1802 128.347 18.2165L128.488 17.7751C128.383 17.7376 128.272 17.7181 128.161 17.7177L128.17 17.7265ZM122.251 18.8301C122.245 18.9784 122.271 19.1262 122.326 19.2641C122.381 19.4019 122.464 19.5268 122.57 19.6307C122.676 19.7345 122.803 19.8152 122.942 19.8674C123.081 19.9196 123.229 19.9422 123.377 19.9338C123.653 19.9478 123.924 19.858 124.137 19.6822L123.916 19.3113C123.757 19.4324 123.564 19.4989 123.364 19.5012C123.194 19.4874 123.036 19.4103 122.92 19.2852C122.805 19.16 122.741 18.996 122.741 18.8257C122.741 18.6555 122.805 18.4915 122.92 18.3663C123.036 18.2411 123.194 18.164 123.364 18.1503C123.564 18.1525 123.757 18.2191 123.916 18.3401L124.137 17.9693C123.924 17.7934 123.653 17.7037 123.377 17.7177C123.229 17.7093 123.081 17.7319 122.942 17.7841C122.803 17.8363 122.676 17.9169 122.57 18.0208C122.464 18.1247 122.381 18.2495 122.326 18.3874C122.271 18.5252 122.245 18.673 122.251 18.8213V18.8301ZM126.553 18.8301V17.7795H126.094V18.0355C126.016 17.9352 125.915 17.8549 125.8 17.8011C125.685 17.7474 125.558 17.7218 125.431 17.7265C125.138 17.7265 124.857 17.8428 124.65 18.0498C124.443 18.2567 124.327 18.5374 124.327 18.8301C124.327 19.1229 124.443 19.4036 124.65 19.6105C124.857 19.8175 125.138 19.9338 125.431 19.9338C125.558 19.9385 125.685 19.9129 125.8 19.8592C125.915 19.8054 126.016 19.7251 126.094 19.6248V19.8808H126.553V18.8301ZM124.844 18.8301C124.851 18.7059 124.895 18.5866 124.969 18.4868C125.043 18.387 125.145 18.3111 125.262 18.2684C125.379 18.2258 125.506 18.2182 125.627 18.2467C125.748 18.2753 125.859 18.3386 125.944 18.4289C126.03 18.5192 126.087 18.6326 126.109 18.755C126.131 18.8775 126.117 19.0037 126.068 19.1182C126.019 19.2326 125.938 19.3302 125.834 19.3991C125.73 19.4679 125.609 19.5049 125.484 19.5056C125.397 19.5067 125.31 19.4897 125.229 19.4557C125.149 19.4217 125.076 19.3713 125.016 19.3079C124.956 19.2445 124.91 19.1693 124.88 19.087C124.85 19.0048 124.838 18.9174 124.844 18.8301V18.8301ZM119.3 17.7265C119.007 17.7306 118.728 17.8508 118.524 18.0607C118.319 18.2706 118.207 18.5529 118.211 18.8456C118.215 19.1383 118.335 19.4174 118.545 19.6215C118.755 19.8255 119.038 19.9379 119.331 19.9338C119.649 19.9501 119.961 19.8478 120.208 19.6468L119.987 19.3069C119.812 19.4467 119.596 19.5244 119.373 19.5276C119.221 19.5407 119.07 19.494 118.952 19.3976C118.834 19.3011 118.758 19.1625 118.741 19.0111H120.309C120.309 18.9538 120.309 18.8964 120.309 18.8346C120.309 18.1724 119.899 17.7309 119.307 17.7309L119.3 17.7265ZM119.3 18.1371C119.369 18.1356 119.437 18.1477 119.501 18.1726C119.565 18.1976 119.624 18.2349 119.673 18.2824C119.723 18.33 119.763 18.3869 119.79 18.4498C119.818 18.5127 119.833 18.5804 119.834 18.6492H118.73C118.738 18.5075 118.801 18.3745 118.906 18.2788C119.011 18.1831 119.149 18.1322 119.291 18.1371H119.3ZM130.809 18.8346V16.9319H130.367V18.0355C130.289 17.9352 130.189 17.8549 130.073 17.8011C129.958 17.7474 129.832 17.7218 129.705 17.7265C129.412 17.7265 129.131 17.8428 128.924 18.0498C128.717 18.2567 128.601 18.5374 128.601 18.8301C128.601 19.1229 128.717 19.4036 128.924 19.6105C129.131 19.8175 129.412 19.9338 129.705 19.9338C129.832 19.9385 129.958 19.9129 130.073 19.8592C130.189 19.8054 130.289 19.7251 130.367 19.6248V19.8808H130.809V18.8346ZM131.576 19.5828C131.604 19.5825 131.633 19.5877 131.66 19.5983C131.685 19.6086 131.708 19.6236 131.728 19.6424C131.747 19.6615 131.763 19.6839 131.774 19.7086C131.786 19.7344 131.791 19.7622 131.791 19.7903C131.791 19.8184 131.786 19.8462 131.774 19.872C131.763 19.8967 131.747 19.9192 131.728 19.9382C131.708 19.957 131.685 19.972 131.66 19.9823C131.633 19.994 131.604 20 131.576 20C131.534 19.9997 131.493 19.9875 131.458 19.9648C131.422 19.9422 131.394 19.91 131.377 19.872C131.366 19.8462 131.36 19.8184 131.36 19.7903C131.36 19.7622 131.366 19.7345 131.377 19.7086C131.388 19.6839 131.404 19.6615 131.423 19.6424C131.443 19.6236 131.466 19.6086 131.492 19.5983C131.52 19.5868 131.551 19.5816 131.582 19.5828H131.576ZM131.576 19.9559C131.598 19.956 131.619 19.9515 131.64 19.9426C131.659 19.9341 131.676 19.9222 131.69 19.9073C131.718 19.8772 131.733 19.8378 131.733 19.7969C131.733 19.7561 131.718 19.7167 131.69 19.6866C131.676 19.6717 131.659 19.6597 131.64 19.6513C131.619 19.6425 131.598 19.6379 131.576 19.638C131.554 19.6381 131.532 19.6426 131.512 19.6513C131.492 19.6594 131.474 19.6714 131.459 19.6866C131.431 19.7167 131.416 19.7561 131.416 19.7969C131.416 19.8378 131.431 19.8772 131.459 19.9073C131.474 19.9224 131.492 19.9344 131.512 19.9426C131.534 19.9522 131.558 19.9567 131.582 19.9559H131.576ZM131.589 19.6932C131.609 19.6922 131.63 19.6984 131.646 19.7109C131.653 19.7164 131.658 19.7236 131.662 19.7316C131.665 19.7397 131.667 19.7485 131.666 19.7572C131.666 19.7645 131.665 19.7719 131.663 19.7787C131.66 19.7855 131.656 19.7917 131.651 19.7969C131.638 19.8086 131.622 19.8156 131.604 19.8168L131.668 19.8896H131.618L131.558 19.8168H131.538V19.8896H131.496V19.6954L131.589 19.6932ZM131.54 19.7307V19.7837H131.589C131.597 19.7863 131.607 19.7863 131.615 19.7837C131.617 19.7806 131.618 19.7772 131.618 19.7738C131.618 19.7703 131.617 19.7669 131.615 19.7638C131.617 19.7607 131.618 19.7573 131.618 19.7539C131.618 19.7504 131.617 19.747 131.615 19.744C131.607 19.7414 131.597 19.7414 131.589 19.744L131.54 19.7307ZM129.111 18.8346C129.118 18.7104 129.162 18.591 129.236 18.4912C129.31 18.3914 129.412 18.3155 129.529 18.2728C129.646 18.2302 129.773 18.2227 129.894 18.2512C130.015 18.2797 130.126 18.343 130.211 18.4333C130.297 18.5236 130.354 18.637 130.376 18.7594C130.398 18.8819 130.384 19.0081 130.335 19.1226C130.286 19.237 130.205 19.3347 130.101 19.4035C129.997 19.4723 129.876 19.5093 129.751 19.51C129.664 19.5111 129.577 19.4941 129.497 19.4601C129.416 19.4261 129.343 19.3758 129.283 19.3123C129.223 19.2489 129.177 19.1737 129.147 19.0915C129.117 19.0092 129.105 18.9218 129.111 18.8346V18.8346ZM113.599 18.8346V17.7795H113.14V18.0355C113.062 17.9352 112.961 17.8549 112.846 17.8011C112.731 17.7474 112.605 17.7218 112.477 17.7265C112.185 17.7265 111.904 17.8428 111.697 18.0498C111.49 18.2567 111.373 18.5374 111.373 18.8301C111.373 19.1229 111.49 19.4036 111.697 19.6105C111.904 19.8175 112.185 19.9338 112.477 19.9338C112.605 19.9385 112.731 19.9129 112.846 19.8592C112.961 19.8054 113.062 19.7251 113.14 19.6248V19.8808H113.599V18.8346ZM111.89 18.8346C111.897 18.7104 111.941 18.591 112.015 18.4912C112.09 18.3914 112.191 18.3155 112.308 18.2728C112.425 18.2302 112.552 18.2227 112.673 18.2512C112.795 18.2797 112.905 18.343 112.99 18.4333C113.076 18.5236 113.133 18.637 113.155 18.7594C113.177 18.8819 113.163 19.0081 113.114 19.1226C113.065 19.237 112.984 19.3347 112.88 19.4035C112.777 19.4723 112.655 19.5093 112.53 19.51C112.443 19.5117 112.355 19.4952 112.274 19.4614C112.193 19.4277 112.12 19.3775 112.059 19.314C111.999 19.2505 111.952 19.175 111.922 19.0925C111.892 19.01 111.88 18.9222 111.886 18.8346H111.89Z" fill="#231F20"/>
<path d="M122.67 1.69946H115.713V14.1949H122.67V1.69946Z" fill="#FF5F00"/>
<path d="M116.155 7.94879C116.154 6.74522 116.426 5.55713 116.952 4.4745C117.479 3.39187 118.244 2.44308 119.192 1.69997C118.019 0.778702 116.61 0.205817 115.127 0.0467959C113.643 -0.112225 112.145 0.149032 110.803 0.800709C109.462 1.45239 108.33 2.46819 107.539 3.73203C106.747 4.99586 106.328 6.45674 106.328 7.94769C106.328 9.43864 106.747 10.8995 107.539 12.1634C108.33 13.4272 109.462 14.443 110.803 15.0947C112.145 15.7463 113.643 16.0076 115.127 15.8486C116.61 15.6896 118.019 15.1167 119.192 14.1954C118.245 13.4525 117.479 12.5041 116.953 11.4219C116.427 10.3396 116.154 9.15199 116.155 7.94879V7.94879Z" fill="#EB001B"/>
<path d="M132.057 7.94825C132.057 9.43931 131.637 10.9003 130.846 12.1642C130.054 13.428 128.923 14.4438 127.581 15.0954C126.239 15.747 124.74 16.0081 123.257 15.8488C121.773 15.6896 120.365 15.1164 119.192 14.1949C120.138 13.4513 120.904 12.5026 121.43 11.4203C121.956 10.3381 122.23 9.15046 122.23 7.94714C122.23 6.74383 121.956 5.55623 121.43 4.47395C120.904 3.39166 120.138 2.44296 119.192 1.69943C120.365 0.777868 121.773 0.204705 123.257 0.045455C124.74 -0.113795 126.239 0.147295 127.581 0.798879C128.923 1.45046 130.054 2.46625 130.846 3.73013C131.637 4.99401 132.057 6.45498 132.057 7.94604V7.94825Z" fill="#F79E1B"/>
<path d="M131.297 12.8705V12.6145H131.401V12.5615H131.138V12.6145H131.251V12.8705H131.297ZM131.807 12.8705V12.5615H131.728L131.635 12.7823L131.542 12.5615H131.472V12.8705H131.529V12.6388L131.615 12.8396H131.675L131.761 12.6388V12.8728L131.807 12.8705Z" fill="#F79E1B"/>
<path fill-rule="evenodd" clip-rule="evenodd" d="M164.521 12.8697V12.5615H164.44L164.347 12.7732L164.255 12.5615H164.174V12.8697H164.231V12.6373L164.318 12.8379H164.377L164.464 12.6368V12.8697H164.521ZM164.011 12.8697V12.6141H164.114V12.562H163.851V12.6141H163.954V12.8697H164.011Z" fill="#0099DF"/>
<path fill-rule="evenodd" clip-rule="evenodd" d="M148.433 1.7002H155.386V14.1955H148.433V1.7002Z" fill="#6C6BBD"/>
<path fill-rule="evenodd" clip-rule="evenodd" d="M148.879 7.94676C148.879 5.41198 150.065 3.15412 151.914 1.69902C150.562 0.635008 148.856 0 147.003 0C142.614 0 139.057 3.55779 139.057 7.94676C139.057 12.3356 142.614 15.8934 147.003 15.8934C148.856 15.8934 150.562 15.2584 151.914 14.1944C150.065 12.7393 148.879 10.4815 148.879 7.94676" fill="#EB001B"/>
<path fill-rule="evenodd" clip-rule="evenodd" d="M164.763 7.94676C164.763 12.3356 161.206 15.8934 156.817 15.8934C154.964 15.8934 153.258 15.2584 151.906 14.1944C153.755 12.7393 154.941 10.4815 154.941 7.94676C154.941 5.41198 153.755 3.15412 151.906 1.69902C153.258 0.635008 154.964 0 156.817 0C161.206 0 164.763 3.55779 164.763 7.94676" fill="#0099DF"/>
<path fill-rule="evenodd" clip-rule="evenodd" d="M157.73 17.724C157.823 17.724 157.956 17.7417 158.057 17.7816L157.916 18.2141C157.819 18.1741 157.722 18.1611 157.629 18.1611C157.329 18.1611 157.179 18.3551 157.179 18.7036V19.8869H156.719V17.7771H157.174V18.0332C157.293 17.8478 157.466 17.724 157.73 17.724V17.724ZM156.034 18.1964H155.284V19.1497C155.284 19.3615 155.358 19.5029 155.588 19.5029C155.707 19.5029 155.857 19.463 155.994 19.3837L156.126 19.7762C155.981 19.8778 155.751 19.9399 155.553 19.9399C155.01 19.9399 154.82 19.6484 154.82 19.1583V18.1964H154.392V17.7771H154.82V17.137H155.284V17.7771H156.034V18.1964ZM150.158 18.6466C150.207 18.3419 150.392 18.1342 150.719 18.1342C151.015 18.1342 151.205 18.3196 151.253 18.6466H150.158ZM151.73 18.832C151.726 18.1741 151.319 17.724 150.728 17.724C150.11 17.724 149.677 18.1741 149.677 18.832C149.677 19.5024 150.128 19.9394 150.759 19.9394C151.077 19.9394 151.368 19.8601 151.624 19.6439L151.399 19.3038C151.222 19.4453 150.997 19.5247 150.785 19.5247C150.49 19.5247 150.221 19.3877 150.154 19.0083H151.721C151.726 18.9507 151.73 18.8937 151.73 18.832V18.832ZM153.747 18.3156C153.619 18.2358 153.359 18.1342 153.09 18.1342C152.838 18.1342 152.688 18.2272 152.688 18.3818C152.688 18.5228 152.847 18.5626 153.045 18.589L153.262 18.6198C153.721 18.6865 153.999 18.8805 153.999 19.2513C153.999 19.653 153.646 19.9399 153.037 19.9399C152.692 19.9399 152.374 19.8515 152.123 19.6661L152.339 19.3084C152.494 19.4277 152.723 19.5292 153.041 19.5292C153.354 19.5292 153.522 19.4367 153.522 19.2731C153.522 19.1543 153.403 19.0877 153.151 19.0527L152.935 19.0219C152.463 18.9552 152.207 18.7436 152.207 18.3995C152.207 17.9801 152.551 17.724 153.085 17.724C153.421 17.724 153.725 17.7993 153.946 17.9448L153.747 18.3156ZM159.408 18.1601C159.314 18.1601 159.226 18.1767 159.145 18.2096C159.064 18.2429 158.994 18.2894 158.935 18.349C158.876 18.4086 158.829 18.4803 158.795 18.5637C158.761 18.6471 158.745 18.739 158.745 18.8391C158.745 18.9396 158.761 19.0311 158.795 19.1144C158.829 19.1977 158.876 19.2695 158.935 19.3292C158.994 19.3887 159.064 19.4352 159.145 19.4686C159.226 19.5019 159.314 19.5181 159.408 19.5181C159.503 19.5181 159.591 19.5019 159.671 19.4686C159.753 19.4352 159.823 19.3887 159.883 19.3292C159.943 19.2695 159.989 19.1977 160.024 19.1144C160.057 19.0311 160.074 18.9396 160.074 18.8391C160.074 18.739 160.057 18.6471 160.024 18.5637C159.989 18.4803 159.943 18.4086 159.883 18.349C159.823 18.2894 159.753 18.2429 159.671 18.2096C159.591 18.1767 159.503 18.1601 159.408 18.1601ZM159.408 17.724C159.572 17.724 159.723 17.7523 159.863 17.8094C160.002 17.866 160.123 17.9443 160.225 18.0438C160.327 18.1433 160.406 18.2611 160.464 18.3965C160.521 18.5324 160.55 18.6799 160.55 18.8391C160.55 18.9982 160.521 19.1457 160.464 19.2817C160.406 19.417 160.327 19.5352 160.225 19.6347C160.123 19.7343 160.002 19.8121 159.863 19.8692C159.723 19.9258 159.572 19.9541 159.408 19.9541C159.244 19.9541 159.093 19.9258 158.953 19.8692C158.814 19.8121 158.694 19.7343 158.593 19.6347C158.492 19.5352 158.413 19.417 158.355 19.2817C158.298 19.1457 158.269 18.9982 158.269 18.8391C158.269 18.6799 158.298 18.5324 158.355 18.3965C158.413 18.2611 158.492 18.1433 158.593 18.0438C158.694 17.9443 158.814 17.866 158.953 17.8094C159.093 17.7523 159.244 17.724 159.408 17.724ZM147.477 18.832C147.477 18.4611 147.72 18.1565 148.117 18.1565C148.496 18.1565 148.752 18.448 148.752 18.832C148.752 19.216 148.496 19.507 148.117 19.507C147.72 19.507 147.477 19.2028 147.477 18.832ZM149.185 18.832V17.7771H148.726V18.0332C148.58 17.8432 148.36 17.724 148.06 17.724C147.468 17.724 147.005 18.1873 147.005 18.832C147.005 19.4762 147.468 19.9399 148.06 19.9399C148.36 19.9399 148.58 19.8207 148.726 19.6307V19.8869H149.185V18.832ZM146.599 19.8869V18.5626C146.599 18.0641 146.281 17.7286 145.769 17.724C145.5 17.7195 145.221 17.8033 145.027 18.0994C144.882 17.8655 144.652 17.724 144.33 17.724C144.105 17.724 143.884 17.7902 143.712 18.0372V17.7771H143.253V19.8869H143.716V18.7173C143.716 18.351 143.919 18.1565 144.233 18.1565C144.537 18.1565 144.692 18.3551 144.692 18.7127V19.8869H145.155V18.7173C145.155 18.351 145.367 18.1565 145.671 18.1565C145.985 18.1565 146.135 18.3551 146.135 18.7127V19.8869H146.599ZM161.045 19.7287V19.7808H161.093C161.103 19.7808 161.112 19.7782 161.118 19.7742C161.125 19.7702 161.129 19.7631 161.129 19.7545C161.129 19.7459 161.125 19.7393 161.118 19.7353C161.112 19.7307 161.103 19.7287 161.093 19.7287H161.045ZM161.093 19.6924C161.118 19.6924 161.137 19.6979 161.151 19.7091C161.164 19.7202 161.171 19.7353 161.171 19.7545C161.171 19.7707 161.166 19.7838 161.155 19.7944C161.144 19.8046 161.129 19.8111 161.109 19.8137L161.172 19.8869H161.123L161.064 19.8142H161.045V19.8869H161.003V19.6924H161.093ZM161.081 19.9536C161.103 19.9536 161.124 19.9496 161.144 19.9409C161.163 19.9323 161.181 19.9207 161.195 19.9061C161.21 19.8914 161.221 19.8742 161.23 19.8541C161.238 19.8343 161.243 19.8132 161.243 19.7904C161.243 19.7677 161.238 19.7464 161.23 19.7267C161.221 19.707 161.21 19.6893 161.195 19.6747C161.181 19.6601 161.163 19.6484 161.144 19.6403C161.124 19.6317 161.103 19.6277 161.081 19.6277C161.058 19.6277 161.036 19.6317 161.016 19.6403C160.996 19.6484 160.978 19.6601 160.964 19.6747C160.949 19.6893 160.938 19.707 160.929 19.7267C160.921 19.7464 160.917 19.7677 160.917 19.7904C160.917 19.8132 160.921 19.8343 160.929 19.8541C160.938 19.8742 160.949 19.8914 160.964 19.9061C160.978 19.9207 160.996 19.9323 161.016 19.9409C161.036 19.9496 161.058 19.9536 161.081 19.9536ZM161.081 19.5807C161.11 19.5807 161.138 19.5862 161.163 19.5974C161.19 19.608 161.212 19.6232 161.232 19.6423C161.251 19.6611 161.266 19.6833 161.277 19.7091C161.288 19.7343 161.294 19.7616 161.294 19.7904C161.294 19.8192 161.288 19.8465 161.277 19.8717C161.266 19.897 161.251 19.9192 161.232 19.9379C161.212 19.9571 161.19 19.9722 161.163 19.9834C161.138 19.9945 161.11 20.0001 161.081 20.0001C161.05 20.0001 161.022 19.9945 160.996 19.9834C160.97 19.9722 160.947 19.9571 160.928 19.9379C160.909 19.9192 160.894 19.897 160.882 19.8717C160.871 19.8465 160.866 19.8192 160.866 19.7904C160.866 19.7616 160.871 19.7343 160.882 19.7091C160.894 19.6833 160.909 19.6611 160.928 19.6423C160.947 19.6232 160.97 19.608 160.996 19.5974C161.022 19.5862 161.05 19.5807 161.081 19.5807Z" fill="#231F20"/>
<path fill-rule="evenodd" clip-rule="evenodd" d="M172.295 19.8003H172.229C172.229 19.7672 172.212 19.7172 172.212 19.7005C172.212 19.684 172.212 19.6509 172.162 19.6509H172.062V19.8003H172.013V19.4514H172.162C172.229 19.4514 172.279 19.468 172.279 19.5343C172.279 19.5842 172.262 19.601 172.245 19.6173C172.262 19.6341 172.279 19.6507 172.279 19.684V19.7504C172.279 19.7672 172.279 19.7672 172.295 19.7672V19.8003ZM172.229 19.5511C172.229 19.5012 172.195 19.5012 172.179 19.5012H172.062V19.601H172.162C172.195 19.601 172.229 19.5842 172.229 19.5511V19.5511ZM172.511 19.6174C172.511 19.4182 172.345 19.2517 172.129 19.2517C171.929 19.2517 171.763 19.4182 171.763 19.6174C171.763 19.8336 171.929 20 172.129 20C172.345 19.9999 172.511 19.8336 172.511 19.6174ZM172.461 19.6174C172.461 19.8004 172.312 19.9334 172.129 19.9334C171.946 19.9334 171.813 19.8003 171.813 19.6174C171.813 19.4514 171.946 19.3016 172.129 19.3016C172.312 19.3016 172.461 19.4514 172.461 19.6174ZM192.943 12.901C192.943 13.3999 192.627 13.6324 192.062 13.6324H190.982V13.1336H192.062C192.162 13.1336 192.245 13.1171 192.279 13.0839C192.312 13.0506 192.345 13.0006 192.345 12.9342C192.345 12.8676 192.312 12.8012 192.279 12.768C192.245 12.7346 192.179 12.7182 192.079 12.7182C191.564 12.7014 190.915 12.7346 190.915 12.0032C190.915 11.6706 191.131 11.3048 191.713 11.3048H192.827V11.8036H191.796C191.697 11.8036 191.63 11.8036 191.58 11.8368C191.53 11.8867 191.497 11.9366 191.497 12.0198C191.497 12.1029 191.547 12.1528 191.613 12.1862C191.68 12.2027 191.747 12.2194 191.83 12.2194H192.129C192.445 12.2194 192.644 12.2858 192.777 12.4022C192.877 12.5186 192.943 12.6684 192.943 12.901V12.901ZM190.599 12.4022C190.466 12.2858 190.267 12.2194 189.951 12.2194H189.652C189.569 12.2194 189.502 12.2026 189.435 12.1862C189.369 12.1528 189.319 12.1029 189.319 12.0198C189.319 11.9366 189.336 11.8867 189.402 11.8368C189.452 11.8036 189.519 11.8036 189.618 11.8036H190.649V11.3048H189.535C188.937 11.3048 188.737 11.6706 188.737 12.0032C188.737 12.7345 189.386 12.7014 189.901 12.7182C190.001 12.7182 190.067 12.7346 190.1 12.768C190.134 12.8012 190.167 12.8676 190.167 12.9342C190.167 13.0006 190.134 13.0506 190.1 13.0839C190.051 13.1171 189.984 13.1336 189.884 13.1336H188.804V13.6324H189.884C190.449 13.6324 190.765 13.3998 190.765 12.901C190.765 12.6684 190.699 12.5186 190.599 12.4022V12.4022ZM188.471 13.1505H187.158V12.6849H188.438V12.2196H187.158V11.7872H188.471V11.3052H186.609V13.6325H188.471V13.1505ZM186.011 11.4215C185.828 11.3217 185.612 11.305 185.329 11.305H184.049V13.6324H184.614V12.7846H185.213C185.412 12.7846 185.529 12.8013 185.612 12.8844C185.712 13.0006 185.712 13.2002 185.712 13.3499V13.6324H186.26V13.1835C186.26 12.9674 186.244 12.8676 186.177 12.7513C186.127 12.6847 186.028 12.6016 185.895 12.5518C186.044 12.502 186.294 12.3025 186.294 11.9366C186.293 11.6708 186.194 11.5211 186.011 11.4215V11.4215ZM182.852 11.305H181.073L180.358 12.0698L179.677 11.305H177.432V13.6324H179.643L180.358 12.8676L181.04 13.6324H182.121V12.8512H182.819C183.301 12.8512 183.783 12.7182 183.783 12.0698C183.783 11.4381 183.284 11.305 182.852 11.305V11.305ZM185.562 12.2694C185.479 12.3025 185.396 12.3025 185.296 12.3025L184.614 12.3192V11.7871H185.296C185.396 11.7871 185.495 11.7871 185.562 11.8369C185.628 11.8704 185.678 11.9367 185.678 12.0365C185.678 12.1364 185.628 12.2195 185.562 12.2694V12.2694ZM182.852 12.3857H182.12V11.7871H182.852C183.052 11.7871 183.185 11.8704 183.185 12.0698C183.185 12.2694 183.051 12.3857 182.852 12.3857ZM180.707 12.4687L181.572 11.5545V13.433L180.707 12.4687ZM179.361 13.1505H177.981V12.6849H179.211V12.2196H177.981V11.7872H179.377L179.993 12.4688L179.361 13.1505ZM191.397 9.62584H190.599L189.552 7.88022V9.62584H188.422L188.205 9.11045H187.042L186.825 9.62584H186.177C185.911 9.62584 185.562 9.55932 185.363 9.35975C185.18 9.16029 185.08 8.89431 185.08 8.47871C185.08 8.12952 185.13 7.8137 185.379 7.5644C185.545 7.38141 185.844 7.29841 186.227 7.29841H186.759V7.79723H186.227C186.027 7.79723 185.911 7.83049 185.795 7.93027C185.695 8.03005 185.645 8.21283 185.645 8.46223C185.645 8.71153 185.695 8.89441 185.795 9.01088C185.878 9.09388 186.027 9.12714 186.177 9.12714H186.426L187.224 7.29852H188.056L188.987 9.4929V7.29841H189.851L190.832 8.91099V7.29841H191.397V9.62584H191.397ZM184.797 7.29841H184.232V9.62584H184.797V7.29841ZM183.617 7.3982C183.434 7.29842 183.234 7.29841 182.952 7.29841H181.672V9.62584H182.22V8.77795H182.819C183.018 8.77795 183.151 8.79453 183.234 8.87773C183.334 8.99409 183.317 9.19366 183.317 9.3266V9.62584H183.882V9.16029C183.882 8.96083 183.866 8.86105 183.783 8.74469C183.733 8.67817 183.633 8.59496 183.517 8.54523C183.666 8.47871 183.916 8.29582 183.916 7.93006C183.916 7.66418 183.8 7.51445 183.617 7.3982V7.3982ZM181.273 9.14382H179.976V8.67827H181.256V8.19625H179.976V7.78054H181.273V7.29852H179.411V9.62595H181.273V9.14382ZM178.995 7.29841H178.081L177.399 8.87773L176.667 7.29841H175.77V9.4928L174.822 7.29841H173.991L172.993 9.62584H173.592L173.808 9.11045H174.972L175.188 9.62584H176.318V7.79723L177.133 9.62584H177.615L178.43 7.79723V9.62584H178.995V7.29841H178.995ZM188.006 8.61175L187.623 7.69744L187.241 8.61175H188.006ZM183.185 8.24609C183.102 8.29603 183.018 8.29603 182.902 8.29603H182.22V7.78065H182.902C183.002 7.78065 183.118 7.78065 183.184 7.81391C183.251 7.86385 183.284 7.93037 183.284 8.03005C183.284 8.12973 183.251 8.21272 183.185 8.24609ZM174.007 8.61175L174.39 7.69744L174.772 8.61175H174.007ZM192.81 0H172.977V8.37903L173.658 6.83297H175.105L175.304 7.21532V6.83297H177L177.382 7.66418L177.748 6.83297H183.151C183.401 6.83297 183.617 6.88281 183.783 7.01575V6.83297H185.263V7.01575C185.512 6.88271 185.828 6.83297 186.194 6.83297H188.338L188.538 7.21532V6.83297H190.117L190.35 7.21532V6.83297H191.896V10.0914H190.333L190.034 9.59269V10.0914H188.089L187.873 9.55942H187.391L187.174 10.0914H186.16C185.761 10.0914 185.462 9.99161 185.263 9.89193V10.0914H182.852V9.34328C182.852 9.2435 182.835 9.22681 182.769 9.22681H182.686V10.0913H178.031V9.67568L177.865 10.0913H176.884L176.718 9.69226V10.0913H174.839L174.639 9.55932H174.157L173.941 10.0913H172.977V19.9167H192.81V13.9483C192.594 14.0481 192.295 14.0979 191.996 14.0979H190.549V13.8983C190.383 14.0315 190.084 14.0979 189.801 14.0979H185.246V13.3499C185.246 13.2501 185.23 13.2501 185.146 13.2501H185.063V14.0979H183.567V13.2169C183.318 13.3331 183.035 13.3331 182.786 13.3331H182.619V14.0979H180.791L180.358 13.5991L179.876 14.0979H176.933V10.8396H179.926L180.358 11.3381L180.824 10.8396H182.835C183.068 10.8396 183.451 10.8728 183.617 11.0389V10.8396H185.412C185.595 10.8396 185.944 10.8728 186.177 11.0389V10.8396H188.887V11.0391C189.036 10.906 189.319 10.8397 189.568 10.8397H191.081V11.0391C191.248 10.9227 191.48 10.8397 191.78 10.8397H192.81V0Z" fill="#006FCF"/>
</g>
<defs>
<clipPath id="clip0">
<rect width="192.943" height="20" fill="white"/>
</clipPath>
</defs>
</svg>
