<svg width="12" height="12" viewBox="0 0 12 12" fill="none" xmlns="http://www.w3.org/2000/svg">
<path d="M11.484 7.42C11.484 5.464 9.744 5.152 6.888 4.984V3.22C8.34 3.304 8.964 3.592 8.964 4.348H11.124C11.124 2.464 9.54 1.636 6.888 1.504V0.4H5.448V1.492C2.664 1.564 1.008 2.188 1.008 3.916C1.008 5.68 2.28 6.292 5.448 6.508V8.38C3.468 8.296 2.916 7.888 2.916 7.108H0.756C0.756 9.34 2.496 10.012 5.448 10.108V11.2H6.888V10.108C9.648 10.048 11.484 9.508 11.484 7.42ZM3.168 4.024C3.168 3.436 3.612 3.22 5.448 3.196V4.888C3.576 4.768 3.168 4.612 3.168 4.024ZM6.888 8.404V6.58C8.94 6.712 9.324 6.868 9.324 7.492C9.324 8.104 8.748 8.356 6.888 8.404Z" fill="black"/>
</svg>
