<svg width="473" height="6" viewBox="0 0 473 6" fill="none" xmlns="http://www.w3.org/2000/svg">
<path d="M86 0.75C84.1243 0.75 83.0688 1.48404 82.2447 2.20372C82.2166 2.22379 82.189 2.24355 82.1618 2.26301C81.8474 2.48834 81.5903 2.67264 81.2852 2.80937C80.9589 2.95565 80.5694 3.05 80 3.05C79.4306 3.05 79.0411 2.95565 78.7148 2.80937C78.4097 2.67264 78.1526 2.48834 77.8381 2.26302C77.8085 2.24181 77.7784 2.22024 77.7477 2.19831C77.7201 2.17759 77.6922 2.15657 77.6639 2.13531C76.8722 1.53961 75.8227 0.75 74 0.75C72.1243 0.75 71.0688 1.48404 70.2447 2.20372C70.2166 2.22379 70.189 2.24355 70.1618 2.26301C69.8474 2.48834 69.5903 2.67264 69.2852 2.80937C68.9589 2.95565 68.5694 3.05 68 3.05C66.9825 3.05 66.4366 2.69027 65.7477 2.19828C65.7201 2.17756 65.6922 2.15655 65.6639 2.1353C64.8722 1.5396 63.8227 0.75 62 0.75C60.1243 0.75 59.0688 1.48404 58.2447 2.20372C58.2166 2.22378 58.189 2.24354 58.1619 2.263C57.8474 2.48833 57.5903 2.67264 57.2852 2.80937C56.9589 2.95565 56.5694 3.05 56 3.05C55.4306 3.05 55.0411 2.95565 54.7148 2.80937C54.4097 2.67264 54.1526 2.48833 53.8381 2.263C53.8085 2.2418 53.7784 2.22023 53.7478 2.19831C53.7201 2.17758 53.6922 2.15657 53.6639 2.1353C52.8722 1.53961 51.8227 0.75 50 0.75C48.1243 0.75 47.0688 1.48404 46.2447 2.20372C46.2166 2.22378 46.189 2.24354 46.1619 2.263C45.8474 2.48833 45.5903 2.67264 45.2852 2.80937C44.9589 2.95565 44.5694 3.05 44 3.05C42.9825 3.05 42.4366 2.69027 41.7477 2.19828C41.7201 2.17756 41.6922 2.15656 41.6639 2.1353C40.8722 1.53961 39.8227 0.75 38 0.75C36.1243 0.75 35.0688 1.48404 34.2447 2.20372C34.2166 2.22378 34.189 2.24354 34.1619 2.263C33.8474 2.48833 33.5903 2.67264 33.2852 2.80937C32.9589 2.95565 32.5694 3.05 32 3.05C30.9825 3.05 30.4366 2.69026 29.7477 2.19825C29.7201 2.17755 29.6922 2.15655 29.6639 2.13531C28.8722 1.53961 27.8227 0.75 26 0.75C24.1243 0.75 23.0688 1.48404 22.2447 2.20372C22.2166 2.22378 22.1891 2.24353 22.1619 2.26298C21.8475 2.48832 21.5903 2.67263 21.2852 2.80937C20.9589 2.95565 20.5694 3.05 20 3.05C19.4306 3.05 19.0411 2.95565 18.7148 2.80937C18.4097 2.67263 18.1525 2.48832 17.8381 2.26298C17.8085 2.24178 17.7784 2.22021 17.7477 2.19828C17.7201 2.17756 17.6922 2.15656 17.6639 2.1353C16.8722 1.53961 15.8227 0.75 14 0.75C12.1243 0.75 11.0688 1.48404 10.2447 2.20371C10.2166 2.22378 10.189 2.24354 10.1619 2.26299C9.84745 2.48833 9.59026 2.67263 9.28524 2.80937C8.95891 2.95565 8.56943 3.05 8 3.05C6.98247 3.05 6.43658 2.69026 5.74768 2.19826C5.72007 2.17755 5.69216 2.15655 5.66392 2.1353C4.87218 1.53961 3.8227 0.75 2 0.75C1.64319 0.75 1.32642 0.870028 1.09822 1.09822C0.870028 1.32642 0.75 1.64319 0.75 2C0.75 2.35681 0.870028 2.67358 1.09822 2.90178C1.32642 3.12997 1.64319 3.25 2 3.25C3.01753 3.25 3.56341 3.60973 4.25232 4.10174C4.27992 4.12245 4.30784 4.14345 4.33608 4.1647C5.12782 4.76039 6.1773 5.55 8 5.55C9.87574 5.55 10.9312 4.81595 11.7553 4.09628C11.7834 4.07622 11.8109 4.05647 11.8381 4.03701C12.1525 3.81167 12.4097 3.62736 12.7148 3.49063C13.0411 3.34434 13.4306 3.25 14 3.25C14.5694 3.25 14.9589 3.34434 15.2852 3.49063C15.5903 3.62736 15.8475 3.81167 16.1619 4.03701C16.1915 4.05822 16.2216 4.07979 16.2523 4.10172C16.2799 4.12243 16.3078 4.14344 16.3361 4.16469C17.1278 4.76039 18.1773 5.55 20 5.55C21.8757 5.55 22.9312 4.81595 23.7553 4.09628C23.7834 4.07622 23.8109 4.05646 23.8381 4.03701C24.1525 3.81167 24.4097 3.62736 24.7148 3.49063C25.0411 3.34434 25.4306 3.25 26 3.25C27.0175 3.25 27.5634 3.60973 28.2523 4.10174C28.2799 4.12245 28.3078 4.14345 28.3361 4.1647C29.1278 4.76039 30.1773 5.55 32 5.55C33.8757 5.55 34.9312 4.81595 35.7553 4.09628C35.7834 4.07621 35.811 4.05646 35.8381 4.037C36.1526 3.81167 36.4097 3.62736 36.7148 3.49063C37.0411 3.34434 37.4306 3.25 38 3.25C39.0175 3.25 39.5634 3.60972 40.2523 4.10171C40.2799 4.12243 40.3078 4.14344 40.3361 4.1647C41.1278 4.76039 42.1773 5.55 44 5.55C45.8757 5.55 46.9312 4.81595 47.7553 4.09628C47.7834 4.07621 47.811 4.05646 47.8381 4.037C48.1526 3.81167 48.4097 3.62736 48.7148 3.49063C49.0411 3.34434 49.4306 3.25 50 3.25C50.5694 3.25 50.9589 3.34434 51.2852 3.49063C51.5903 3.62736 51.8474 3.81167 52.1619 4.037C52.1915 4.0582 52.2216 4.07976 52.2523 4.10169C52.2799 4.12241 52.3078 4.14343 52.3361 4.1647C53.1278 4.76039 54.1773 5.55 56 5.55C57.8757 5.55 58.9312 4.81595 59.7553 4.09628C59.7834 4.07621 59.811 4.05646 59.8381 4.037C60.1526 3.81167 60.4097 3.62736 60.7148 3.49063C61.0411 3.34434 61.4306 3.25 62 3.25C63.0175 3.25 63.5634 3.60972 64.2523 4.10171C64.2799 4.12243 64.3078 4.14344 64.3361 4.1647C65.1278 4.76039 66.1773 5.55 68 5.55C69.8757 5.55 70.9312 4.81595 71.7553 4.09628C71.7834 4.07621 71.811 4.05644 71.8381 4.03698C72.1526 3.81166 72.4097 3.62736 72.7148 3.49063C73.0411 3.34434 73.4306 3.25 74 3.25C74.5694 3.25 74.9589 3.34434 75.2852 3.49063C75.5903 3.62736 75.8474 3.81166 76.1619 4.03699C76.1915 4.05819 76.2215 4.07976 76.2522 4.10169C76.2799 4.12241 76.3078 4.14342 76.3361 4.16468C77.1278 4.76038 78.1773 5.55 80 5.55C81.8757 5.55 82.9312 4.81595 83.7553 4.09628C83.7834 4.07621 83.811 4.05644 83.8381 4.03698C84.1526 3.81166 84.4097 3.62736 84.7148 3.49063C85.0411 3.34434 85.4306 3.25 86 3.25C86.3568 3.25 86.6736 3.12997 86.9018 2.90178C87.13 2.67358 87.25 2.35681 87.25 2C87.25 1.24596 86.6215 0.75 86 0.75Z" fill="white" stroke="white" stroke-width="0.5"/>
<path d="M170 0.75C168.124 0.75 167.069 1.48404 166.245 2.20372C166.217 2.22379 166.189 2.24355 166.162 2.26301C165.847 2.48834 165.59 2.67264 165.285 2.80937C164.959 2.95565 164.569 3.05 164 3.05C163.431 3.05 163.041 2.95565 162.715 2.80937C162.41 2.67264 162.153 2.48834 161.838 2.26302C161.809 2.24181 161.778 2.22024 161.748 2.19831C161.72 2.17759 161.692 2.15657 161.664 2.13531C160.872 1.53961 159.823 0.75 158 0.75C156.124 0.75 155.069 1.48404 154.245 2.20372C154.217 2.22379 154.189 2.24355 154.162 2.26301C153.847 2.48834 153.59 2.67264 153.285 2.80937C152.959 2.95565 152.569 3.05 152 3.05C150.982 3.05 150.437 2.69027 149.748 2.19828C149.72 2.17756 149.692 2.15655 149.664 2.1353C148.872 1.5396 147.823 0.75 146 0.75C144.124 0.75 143.069 1.48404 142.245 2.20372C142.217 2.22378 142.189 2.24354 142.162 2.263C141.847 2.48833 141.59 2.67264 141.285 2.80937C140.959 2.95565 140.569 3.05 140 3.05C139.431 3.05 139.041 2.95565 138.715 2.80937C138.41 2.67264 138.153 2.48833 137.838 2.263C137.809 2.2418 137.778 2.22023 137.748 2.19831C137.72 2.17758 137.692 2.15657 137.664 2.1353C136.872 1.53961 135.823 0.75 134 0.75C132.124 0.75 131.069 1.48404 130.245 2.20372C130.217 2.22378 130.189 2.24354 130.162 2.263C129.847 2.48833 129.59 2.67264 129.285 2.80937C128.959 2.95565 128.569 3.05 128 3.05C126.982 3.05 126.437 2.69027 125.748 2.19828C125.72 2.17756 125.692 2.15656 125.664 2.1353C124.872 1.53961 123.823 0.75 122 0.75C120.124 0.75 119.069 1.48404 118.245 2.20372C118.217 2.22378 118.189 2.24354 118.162 2.263C117.847 2.48833 117.59 2.67264 117.285 2.80937C116.959 2.95565 116.569 3.05 116 3.05C114.982 3.05 114.437 2.69026 113.748 2.19825C113.72 2.17755 113.692 2.15655 113.664 2.13531C112.872 1.53961 111.823 0.75 110 0.75C108.124 0.75 107.069 1.48404 106.245 2.20372C106.217 2.22378 106.189 2.24353 106.162 2.26298C105.847 2.48832 105.59 2.67263 105.285 2.80937C104.959 2.95565 104.569 3.05 104 3.05C103.431 3.05 103.041 2.95565 102.715 2.80937C102.41 2.67263 102.153 2.48832 101.838 2.26298C101.809 2.24178 101.778 2.22021 101.748 2.19828C101.72 2.17756 101.692 2.15656 101.664 2.1353C100.872 1.53961 99.8227 0.75 98 0.75C96.1243 0.75 95.0688 1.48404 94.2447 2.20371C94.2166 2.22378 94.189 2.24354 94.1619 2.26299C93.8475 2.48833 93.5903 2.67263 93.2852 2.80937C92.9589 2.95565 92.5694 3.05 92 3.05C90.9825 3.05 90.4366 2.69026 89.7477 2.19826C89.7201 2.17755 89.6922 2.15655 89.6639 2.1353C88.8722 1.53961 87.8227 0.75 86 0.75C85.6432 0.75 85.3264 0.870028 85.0982 1.09822C84.87 1.32642 84.75 1.64319 84.75 2C84.75 2.35681 84.87 2.67358 85.0982 2.90178C85.3264 3.12997 85.6432 3.25 86 3.25C87.0175 3.25 87.5634 3.60973 88.2523 4.10174C88.2799 4.12245 88.3078 4.14345 88.3361 4.1647C89.1278 4.76039 90.1773 5.55 92 5.55C93.8757 5.55 94.9312 4.81595 95.7553 4.09628C95.7834 4.07622 95.8109 4.05647 95.8381 4.03701C96.1525 3.81167 96.4097 3.62736 96.7148 3.49063C97.0411 3.34434 97.4306 3.25 98 3.25C98.5694 3.25 98.9589 3.34434 99.2852 3.49063C99.5903 3.62736 99.8475 3.81167 100.162 4.03701C100.191 4.05822 100.222 4.07979 100.252 4.10172C100.28 4.12243 100.308 4.14344 100.336 4.16469C101.128 4.76039 102.177 5.55 104 5.55C105.876 5.55 106.931 4.81595 107.755 4.09628C107.783 4.07622 107.811 4.05646 107.838 4.03701C108.153 3.81167 108.41 3.62736 108.715 3.49063C109.041 3.34434 109.431 3.25 110 3.25C111.018 3.25 111.563 3.60973 112.252 4.10174C112.28 4.12245 112.308 4.14345 112.336 4.1647C113.128 4.76039 114.177 5.55 116 5.55C117.876 5.55 118.931 4.81595 119.755 4.09628C119.783 4.07621 119.811 4.05646 119.838 4.037C120.153 3.81167 120.41 3.62736 120.715 3.49063C121.041 3.34434 121.431 3.25 122 3.25C123.018 3.25 123.563 3.60972 124.252 4.10171C124.28 4.12243 124.308 4.14344 124.336 4.1647C125.128 4.76039 126.177 5.55 128 5.55C129.876 5.55 130.931 4.81595 131.755 4.09628C131.783 4.07621 131.811 4.05646 131.838 4.037C132.153 3.81167 132.41 3.62736 132.715 3.49063C133.041 3.34434 133.431 3.25 134 3.25C134.569 3.25 134.959 3.34434 135.285 3.49063C135.59 3.62736 135.847 3.81167 136.162 4.037C136.191 4.0582 136.222 4.07976 136.252 4.10169C136.28 4.12241 136.308 4.14343 136.336 4.1647C137.128 4.76039 138.177 5.55 140 5.55C141.876 5.55 142.931 4.81595 143.755 4.09628C143.783 4.07621 143.811 4.05646 143.838 4.037C144.153 3.81167 144.41 3.62736 144.715 3.49063C145.041 3.34434 145.431 3.25 146 3.25C147.018 3.25 147.563 3.60972 148.252 4.10171C148.28 4.12243 148.308 4.14344 148.336 4.1647C149.128 4.76039 150.177 5.55 152 5.55C153.876 5.55 154.931 4.81595 155.755 4.09628C155.783 4.07621 155.811 4.05644 155.838 4.03698C156.153 3.81166 156.41 3.62736 156.715 3.49063C157.041 3.34434 157.431 3.25 158 3.25C158.569 3.25 158.959 3.34434 159.285 3.49063C159.59 3.62736 159.847 3.81166 160.162 4.03699C160.191 4.05819 160.222 4.07976 160.252 4.10169C160.28 4.12241 160.308 4.14342 160.336 4.16468C161.128 4.76038 162.177 5.55 164 5.55C165.876 5.55 166.931 4.81595 167.755 4.09628C167.783 4.07621 167.811 4.05644 167.838 4.03698C168.153 3.81166 168.41 3.62736 168.715 3.49063C169.041 3.34434 169.431 3.25 170 3.25C170.357 3.25 170.674 3.12997 170.902 2.90178C171.13 2.67358 171.25 2.35681 171.25 2C171.25 1.24596 170.622 0.75 170 0.75Z" fill="white" stroke="white" stroke-width="0.5"/>
<path d="M219 0.75C217.124 0.75 216.069 1.48404 215.245 2.20372C215.217 2.22379 215.189 2.24355 215.162 2.26301C214.847 2.48834 214.59 2.67264 214.285 2.80937C213.959 2.95565 213.569 3.05 213 3.05C212.431 3.05 212.041 2.95565 211.715 2.80937C211.41 2.67264 211.153 2.48834 210.838 2.26302C210.809 2.24181 210.778 2.22024 210.748 2.19831C210.72 2.17759 210.692 2.15657 210.664 2.13531C209.872 1.53961 208.823 0.75 207 0.75C205.124 0.75 204.069 1.48404 203.245 2.20372C203.217 2.22379 203.189 2.24355 203.162 2.26301C202.847 2.48834 202.59 2.67264 202.285 2.80937C201.959 2.95565 201.569 3.05 201 3.05C199.982 3.05 199.437 2.69027 198.748 2.19828C198.72 2.17756 198.692 2.15655 198.664 2.1353C197.872 1.5396 196.823 0.75 195 0.75C193.124 0.75 192.069 1.48404 191.245 2.20372C191.217 2.22378 191.189 2.24354 191.162 2.263C190.847 2.48833 190.59 2.67264 190.285 2.80937C189.959 2.95565 189.569 3.05 189 3.05C188.431 3.05 188.041 2.95565 187.715 2.80937C187.41 2.67264 187.153 2.48833 186.838 2.263C186.809 2.2418 186.778 2.22023 186.748 2.19831C186.72 2.17758 186.692 2.15657 186.664 2.1353C185.872 1.53961 184.823 0.75 183 0.75C181.124 0.75 180.069 1.48404 179.245 2.20372C179.217 2.22378 179.189 2.24354 179.162 2.263C178.847 2.48833 178.59 2.67264 178.285 2.80937C177.959 2.95565 177.569 3.05 177 3.05C175.982 3.05 175.437 2.69027 174.748 2.19828C174.72 2.17756 174.692 2.15656 174.664 2.1353C173.872 1.53961 172.823 0.75 171 0.75C169.124 0.75 168.069 1.48404 167.245 2.20372C167.217 2.22378 167.189 2.24354 167.162 2.263C166.847 2.48833 166.59 2.67264 166.285 2.80937C165.959 2.95565 165.569 3.05 165 3.05C163.982 3.05 163.437 2.69026 162.748 2.19825C162.72 2.17755 162.692 2.15655 162.664 2.13531C161.872 1.53961 160.823 0.75 159 0.75C157.124 0.75 156.069 1.48404 155.245 2.20372C155.217 2.22378 155.189 2.24353 155.162 2.26298C154.847 2.48832 154.59 2.67263 154.285 2.80937C153.959 2.95565 153.569 3.05 153 3.05C152.431 3.05 152.041 2.95565 151.715 2.80937C151.41 2.67263 151.153 2.48832 150.838 2.26298C150.809 2.24178 150.778 2.22021 150.748 2.19828C150.72 2.17756 150.692 2.15656 150.664 2.1353C149.872 1.53961 148.823 0.75 147 0.75C145.124 0.75 144.069 1.48404 143.245 2.20371C143.217 2.22378 143.189 2.24354 143.162 2.26299C142.847 2.48833 142.59 2.67263 142.285 2.80937C141.959 2.95565 141.569 3.05 141 3.05C139.982 3.05 139.437 2.69026 138.748 2.19826C138.72 2.17755 138.692 2.15655 138.664 2.1353C137.872 1.53961 136.823 0.75 135 0.75C134.643 0.75 134.326 0.870028 134.098 1.09822C133.87 1.32642 133.75 1.64319 133.75 2C133.75 2.35681 133.87 2.67358 134.098 2.90178C134.326 3.12997 134.643 3.25 135 3.25C136.018 3.25 136.563 3.60973 137.252 4.10174C137.28 4.12245 137.308 4.14345 137.336 4.1647C138.128 4.76039 139.177 5.55 141 5.55C142.876 5.55 143.931 4.81595 144.755 4.09628C144.783 4.07622 144.811 4.05647 144.838 4.03701C145.153 3.81167 145.41 3.62736 145.715 3.49063C146.041 3.34434 146.431 3.25 147 3.25C147.569 3.25 147.959 3.34434 148.285 3.49063C148.59 3.62736 148.847 3.81167 149.162 4.03701C149.191 4.05822 149.222 4.07979 149.252 4.10172C149.28 4.12243 149.308 4.14344 149.336 4.16469C150.128 4.76039 151.177 5.55 153 5.55C154.876 5.55 155.931 4.81595 156.755 4.09628C156.783 4.07622 156.811 4.05646 156.838 4.03701C157.153 3.81167 157.41 3.62736 157.715 3.49063C158.041 3.34434 158.431 3.25 159 3.25C160.018 3.25 160.563 3.60973 161.252 4.10174C161.28 4.12245 161.308 4.14345 161.336 4.1647C162.128 4.76039 163.177 5.55 165 5.55C166.876 5.55 167.931 4.81595 168.755 4.09628C168.783 4.07621 168.811 4.05646 168.838 4.037C169.153 3.81167 169.41 3.62736 169.715 3.49063C170.041 3.34434 170.431 3.25 171 3.25C172.018 3.25 172.563 3.60972 173.252 4.10171C173.28 4.12243 173.308 4.14344 173.336 4.1647C174.128 4.76039 175.177 5.55 177 5.55C178.876 5.55 179.931 4.81595 180.755 4.09628C180.783 4.07621 180.811 4.05646 180.838 4.037C181.153 3.81167 181.41 3.62736 181.715 3.49063C182.041 3.34434 182.431 3.25 183 3.25C183.569 3.25 183.959 3.34434 184.285 3.49063C184.59 3.62736 184.847 3.81167 185.162 4.037C185.191 4.0582 185.222 4.07976 185.252 4.10169C185.28 4.12241 185.308 4.14343 185.336 4.1647C186.128 4.76039 187.177 5.55 189 5.55C190.876 5.55 191.931 4.81595 192.755 4.09628C192.783 4.07621 192.811 4.05646 192.838 4.037C193.153 3.81167 193.41 3.62736 193.715 3.49063C194.041 3.34434 194.431 3.25 195 3.25C196.018 3.25 196.563 3.60972 197.252 4.10171C197.28 4.12243 197.308 4.14344 197.336 4.1647C198.128 4.76039 199.177 5.55 201 5.55C202.876 5.55 203.931 4.81595 204.755 4.09628C204.783 4.07621 204.811 4.05644 204.838 4.03698C205.153 3.81166 205.41 3.62736 205.715 3.49063C206.041 3.34434 206.431 3.25 207 3.25C207.569 3.25 207.959 3.34434 208.285 3.49063C208.59 3.62736 208.847 3.81166 209.162 4.03699C209.191 4.05819 209.222 4.07976 209.252 4.10169C209.28 4.12241 209.308 4.14342 209.336 4.16468C210.128 4.76038 211.177 5.55 213 5.55C214.876 5.55 215.931 4.81595 216.755 4.09628C216.783 4.07621 216.811 4.05644 216.838 4.03698C217.153 3.81166 217.41 3.62736 217.715 3.49063C218.041 3.34434 218.431 3.25 219 3.25C219.357 3.25 219.674 3.12997 219.902 2.90178C220.13 2.67358 220.25 2.35681 220.25 2C220.25 1.24596 219.622 0.75 219 0.75Z" fill="white" stroke="white" stroke-width="0.5"/>
<path d="M303 0.75C301.124 0.75 300.069 1.48404 299.245 2.20372C299.217 2.22379 299.189 2.24355 299.162 2.26301C298.847 2.48834 298.59 2.67264 298.285 2.80937C297.959 2.95565 297.569 3.05 297 3.05C296.431 3.05 296.041 2.95565 295.715 2.80937C295.41 2.67264 295.153 2.48834 294.838 2.26302C294.809 2.24181 294.778 2.22024 294.748 2.19831C294.72 2.17759 294.692 2.15657 294.664 2.13531C293.872 1.53961 292.823 0.75 291 0.75C289.124 0.75 288.069 1.48404 287.245 2.20372C287.217 2.22379 287.189 2.24355 287.162 2.26301C286.847 2.48834 286.59 2.67264 286.285 2.80937C285.959 2.95565 285.569 3.05 285 3.05C283.982 3.05 283.437 2.69027 282.748 2.19828C282.72 2.17756 282.692 2.15655 282.664 2.1353C281.872 1.5396 280.823 0.75 279 0.75C277.124 0.75 276.069 1.48404 275.245 2.20372C275.217 2.22378 275.189 2.24354 275.162 2.263C274.847 2.48833 274.59 2.67264 274.285 2.80937C273.959 2.95565 273.569 3.05 273 3.05C272.431 3.05 272.041 2.95565 271.715 2.80937C271.41 2.67264 271.153 2.48833 270.838 2.263C270.809 2.2418 270.778 2.22023 270.748 2.19831C270.72 2.17758 270.692 2.15657 270.664 2.1353C269.872 1.53961 268.823 0.75 267 0.75C265.124 0.75 264.069 1.48404 263.245 2.20372C263.217 2.22378 263.189 2.24354 263.162 2.263C262.847 2.48833 262.59 2.67264 262.285 2.80937C261.959 2.95565 261.569 3.05 261 3.05C259.982 3.05 259.437 2.69027 258.748 2.19828C258.72 2.17756 258.692 2.15656 258.664 2.1353C257.872 1.53961 256.823 0.75 255 0.75C253.124 0.75 252.069 1.48404 251.245 2.20372C251.217 2.22378 251.189 2.24354 251.162 2.263C250.847 2.48833 250.59 2.67264 250.285 2.80937C249.959 2.95565 249.569 3.05 249 3.05C247.982 3.05 247.437 2.69026 246.748 2.19825C246.72 2.17755 246.692 2.15655 246.664 2.13531C245.872 1.53961 244.823 0.75 243 0.75C241.124 0.75 240.069 1.48404 239.245 2.20372C239.217 2.22378 239.189 2.24353 239.162 2.26298C238.847 2.48832 238.59 2.67263 238.285 2.80937C237.959 2.95565 237.569 3.05 237 3.05C236.431 3.05 236.041 2.95565 235.715 2.80937C235.41 2.67263 235.153 2.48832 234.838 2.26298C234.809 2.24178 234.778 2.22021 234.748 2.19828C234.72 2.17756 234.692 2.15656 234.664 2.1353C233.872 1.53961 232.823 0.75 231 0.75C229.124 0.75 228.069 1.48404 227.245 2.20371C227.217 2.22378 227.189 2.24354 227.162 2.26299C226.847 2.48833 226.59 2.67263 226.285 2.80937C225.959 2.95565 225.569 3.05 225 3.05C223.982 3.05 223.437 2.69026 222.748 2.19826C222.72 2.17755 222.692 2.15655 222.664 2.1353C221.872 1.53961 220.823 0.75 219 0.75C218.643 0.75 218.326 0.870028 218.098 1.09822C217.87 1.32642 217.75 1.64319 217.75 2C217.75 2.35681 217.87 2.67358 218.098 2.90178C218.326 3.12997 218.643 3.25 219 3.25C220.018 3.25 220.563 3.60973 221.252 4.10174C221.28 4.12245 221.308 4.14345 221.336 4.1647C222.128 4.76039 223.177 5.55 225 5.55C226.876 5.55 227.931 4.81595 228.755 4.09628C228.783 4.07622 228.811 4.05647 228.838 4.03701C229.153 3.81167 229.41 3.62736 229.715 3.49063C230.041 3.34434 230.431 3.25 231 3.25C231.569 3.25 231.959 3.34434 232.285 3.49063C232.59 3.62736 232.847 3.81167 233.162 4.03701C233.191 4.05822 233.222 4.07979 233.252 4.10172C233.28 4.12243 233.308 4.14344 233.336 4.16469C234.128 4.76039 235.177 5.55 237 5.55C238.876 5.55 239.931 4.81595 240.755 4.09628C240.783 4.07622 240.811 4.05646 240.838 4.03701C241.153 3.81167 241.41 3.62736 241.715 3.49063C242.041 3.34434 242.431 3.25 243 3.25C244.018 3.25 244.563 3.60973 245.252 4.10174C245.28 4.12245 245.308 4.14345 245.336 4.1647C246.128 4.76039 247.177 5.55 249 5.55C250.876 5.55 251.931 4.81595 252.755 4.09628C252.783 4.07621 252.811 4.05646 252.838 4.037C253.153 3.81167 253.41 3.62736 253.715 3.49063C254.041 3.34434 254.431 3.25 255 3.25C256.018 3.25 256.563 3.60972 257.252 4.10171C257.28 4.12243 257.308 4.14344 257.336 4.1647C258.128 4.76039 259.177 5.55 261 5.55C262.876 5.55 263.931 4.81595 264.755 4.09628C264.783 4.07621 264.811 4.05646 264.838 4.037C265.153 3.81167 265.41 3.62736 265.715 3.49063C266.041 3.34434 266.431 3.25 267 3.25C267.569 3.25 267.959 3.34434 268.285 3.49063C268.59 3.62736 268.847 3.81167 269.162 4.037C269.191 4.0582 269.222 4.07976 269.252 4.10169C269.28 4.12241 269.308 4.14343 269.336 4.1647C270.128 4.76039 271.177 5.55 273 5.55C274.876 5.55 275.931 4.81595 276.755 4.09628C276.783 4.07621 276.811 4.05646 276.838 4.037C277.153 3.81167 277.41 3.62736 277.715 3.49063C278.041 3.34434 278.431 3.25 279 3.25C280.018 3.25 280.563 3.60972 281.252 4.10171C281.28 4.12243 281.308 4.14344 281.336 4.1647C282.128 4.76039 283.177 5.55 285 5.55C286.876 5.55 287.931 4.81595 288.755 4.09628C288.783 4.07621 288.811 4.05644 288.838 4.03698C289.153 3.81166 289.41 3.62736 289.715 3.49063C290.041 3.34434 290.431 3.25 291 3.25C291.569 3.25 291.959 3.34434 292.285 3.49063C292.59 3.62736 292.847 3.81166 293.162 4.03699C293.191 4.05819 293.222 4.07976 293.252 4.10169C293.28 4.12241 293.308 4.14342 293.336 4.16468C294.128 4.76038 295.177 5.55 297 5.55C298.876 5.55 299.931 4.81595 300.755 4.09628C300.783 4.07621 300.811 4.05644 300.838 4.03698C301.153 3.81166 301.41 3.62736 301.715 3.49063C302.041 3.34434 302.431 3.25 303 3.25C303.357 3.25 303.674 3.12997 303.902 2.90178C304.13 2.67358 304.25 2.35681 304.25 2C304.25 1.24596 303.622 0.75 303 0.75Z" fill="white" stroke="white" stroke-width="0.5"/>
<path d="M387 0.75C385.124 0.75 384.069 1.48404 383.245 2.20372C383.217 2.22379 383.189 2.24355 383.162 2.26301C382.847 2.48834 382.59 2.67264 382.285 2.80937C381.959 2.95565 381.569 3.05 381 3.05C380.431 3.05 380.041 2.95565 379.715 2.80937C379.41 2.67264 379.153 2.48834 378.838 2.26302C378.809 2.24181 378.778 2.22024 378.748 2.19831C378.72 2.17759 378.692 2.15657 378.664 2.13531C377.872 1.53961 376.823 0.75 375 0.75C373.124 0.75 372.069 1.48404 371.245 2.20372C371.217 2.22379 371.189 2.24355 371.162 2.26301C370.847 2.48834 370.59 2.67264 370.285 2.80937C369.959 2.95565 369.569 3.05 369 3.05C367.982 3.05 367.437 2.69027 366.748 2.19828C366.72 2.17756 366.692 2.15655 366.664 2.1353C365.872 1.5396 364.823 0.75 363 0.75C361.124 0.75 360.069 1.48404 359.245 2.20372C359.217 2.22378 359.189 2.24354 359.162 2.263C358.847 2.48833 358.59 2.67264 358.285 2.80937C357.959 2.95565 357.569 3.05 357 3.05C356.431 3.05 356.041 2.95565 355.715 2.80937C355.41 2.67264 355.153 2.48833 354.838 2.263C354.809 2.2418 354.778 2.22023 354.748 2.19831C354.72 2.17758 354.692 2.15657 354.664 2.1353C353.872 1.53961 352.823 0.75 351 0.75C349.124 0.75 348.069 1.48404 347.245 2.20372C347.217 2.22378 347.189 2.24354 347.162 2.263C346.847 2.48833 346.59 2.67264 346.285 2.80937C345.959 2.95565 345.569 3.05 345 3.05C343.982 3.05 343.437 2.69027 342.748 2.19828C342.72 2.17756 342.692 2.15656 342.664 2.1353C341.872 1.53961 340.823 0.75 339 0.75C337.124 0.75 336.069 1.48404 335.245 2.20372C335.217 2.22378 335.189 2.24354 335.162 2.263C334.847 2.48833 334.59 2.67264 334.285 2.80937C333.959 2.95565 333.569 3.05 333 3.05C331.982 3.05 331.437 2.69026 330.748 2.19825C330.72 2.17755 330.692 2.15655 330.664 2.13531C329.872 1.53961 328.823 0.75 327 0.75C325.124 0.75 324.069 1.48404 323.245 2.20372C323.217 2.22378 323.189 2.24353 323.162 2.26298C322.847 2.48832 322.59 2.67263 322.285 2.80937C321.959 2.95565 321.569 3.05 321 3.05C320.431 3.05 320.041 2.95565 319.715 2.80937C319.41 2.67263 319.153 2.48832 318.838 2.26298C318.809 2.24178 318.778 2.22021 318.748 2.19828C318.72 2.17756 318.692 2.15656 318.664 2.1353C317.872 1.53961 316.823 0.75 315 0.75C313.124 0.75 312.069 1.48404 311.245 2.20371C311.217 2.22378 311.189 2.24354 311.162 2.26299C310.847 2.48833 310.59 2.67263 310.285 2.80937C309.959 2.95565 309.569 3.05 309 3.05C307.982 3.05 307.437 2.69026 306.748 2.19826C306.72 2.17755 306.692 2.15655 306.664 2.1353C305.872 1.53961 304.823 0.75 303 0.75C302.643 0.75 302.326 0.870028 302.098 1.09822C301.87 1.32642 301.75 1.64319 301.75 2C301.75 2.35681 301.87 2.67358 302.098 2.90178C302.326 3.12997 302.643 3.25 303 3.25C304.018 3.25 304.563 3.60973 305.252 4.10174C305.28 4.12245 305.308 4.14345 305.336 4.1647C306.128 4.76039 307.177 5.55 309 5.55C310.876 5.55 311.931 4.81595 312.755 4.09628C312.783 4.07622 312.811 4.05647 312.838 4.03701C313.153 3.81167 313.41 3.62736 313.715 3.49063C314.041 3.34434 314.431 3.25 315 3.25C315.569 3.25 315.959 3.34434 316.285 3.49063C316.59 3.62736 316.847 3.81167 317.162 4.03701C317.191 4.05822 317.222 4.07979 317.252 4.10172C317.28 4.12243 317.308 4.14344 317.336 4.16469C318.128 4.76039 319.177 5.55 321 5.55C322.876 5.55 323.931 4.81595 324.755 4.09628C324.783 4.07622 324.811 4.05646 324.838 4.03701C325.153 3.81167 325.41 3.62736 325.715 3.49063C326.041 3.34434 326.431 3.25 327 3.25C328.018 3.25 328.563 3.60973 329.252 4.10174C329.28 4.12245 329.308 4.14345 329.336 4.1647C330.128 4.76039 331.177 5.55 333 5.55C334.876 5.55 335.931 4.81595 336.755 4.09628C336.783 4.07621 336.811 4.05646 336.838 4.037C337.153 3.81167 337.41 3.62736 337.715 3.49063C338.041 3.34434 338.431 3.25 339 3.25C340.018 3.25 340.563 3.60972 341.252 4.10171C341.28 4.12243 341.308 4.14344 341.336 4.1647C342.128 4.76039 343.177 5.55 345 5.55C346.876 5.55 347.931 4.81595 348.755 4.09628C348.783 4.07621 348.811 4.05646 348.838 4.037C349.153 3.81167 349.41 3.62736 349.715 3.49063C350.041 3.34434 350.431 3.25 351 3.25C351.569 3.25 351.959 3.34434 352.285 3.49063C352.59 3.62736 352.847 3.81167 353.162 4.037C353.191 4.0582 353.222 4.07976 353.252 4.10169C353.28 4.12241 353.308 4.14343 353.336 4.1647C354.128 4.76039 355.177 5.55 357 5.55C358.876 5.55 359.931 4.81595 360.755 4.09628C360.783 4.07621 360.811 4.05646 360.838 4.037C361.153 3.81167 361.41 3.62736 361.715 3.49063C362.041 3.34434 362.431 3.25 363 3.25C364.018 3.25 364.563 3.60972 365.252 4.10171C365.28 4.12243 365.308 4.14344 365.336 4.1647C366.128 4.76039 367.177 5.55 369 5.55C370.876 5.55 371.931 4.81595 372.755 4.09628C372.783 4.07621 372.811 4.05644 372.838 4.03698C373.153 3.81166 373.41 3.62736 373.715 3.49063C374.041 3.34434 374.431 3.25 375 3.25C375.569 3.25 375.959 3.34434 376.285 3.49063C376.59 3.62736 376.847 3.81166 377.162 4.03699C377.191 4.05819 377.222 4.07976 377.252 4.10169C377.28 4.12241 377.308 4.14342 377.336 4.16468C378.128 4.76038 379.177 5.55 381 5.55C382.876 5.55 383.931 4.81595 384.755 4.09628C384.783 4.07621 384.811 4.05644 384.838 4.03698C385.153 3.81166 385.41 3.62736 385.715 3.49063C386.041 3.34434 386.431 3.25 387 3.25C387.357 3.25 387.674 3.12997 387.902 2.90178C388.13 2.67358 388.25 2.35681 388.25 2C388.25 1.24596 387.622 0.75 387 0.75Z" fill="white" stroke="white" stroke-width="0.5"/>
<path d="M471 0.75C469.124 0.75 468.069 1.48404 467.245 2.20372C467.217 2.22379 467.189 2.24355 467.162 2.26301C466.847 2.48834 466.59 2.67264 466.285 2.80937C465.959 2.95565 465.569 3.05 465 3.05C464.431 3.05 464.041 2.95565 463.715 2.80937C463.41 2.67264 463.153 2.48834 462.838 2.26302C462.809 2.24181 462.778 2.22024 462.748 2.19831C462.72 2.17759 462.692 2.15657 462.664 2.13531C461.872 1.53961 460.823 0.75 459 0.75C457.124 0.75 456.069 1.48404 455.245 2.20372C455.217 2.22379 455.189 2.24355 455.162 2.26301C454.847 2.48834 454.59 2.67264 454.285 2.80937C453.959 2.95565 453.569 3.05 453 3.05C451.982 3.05 451.437 2.69027 450.748 2.19828C450.72 2.17756 450.692 2.15655 450.664 2.1353C449.872 1.5396 448.823 0.75 447 0.75C445.124 0.75 444.069 1.48404 443.245 2.20372C443.217 2.22378 443.189 2.24354 443.162 2.263C442.847 2.48833 442.59 2.67264 442.285 2.80937C441.959 2.95565 441.569 3.05 441 3.05C440.431 3.05 440.041 2.95565 439.715 2.80937C439.41 2.67264 439.153 2.48833 438.838 2.263C438.809 2.2418 438.778 2.22023 438.748 2.19831C438.72 2.17758 438.692 2.15657 438.664 2.1353C437.872 1.53961 436.823 0.75 435 0.75C433.124 0.75 432.069 1.48404 431.245 2.20372C431.217 2.22378 431.189 2.24354 431.162 2.263C430.847 2.48833 430.59 2.67264 430.285 2.80937C429.959 2.95565 429.569 3.05 429 3.05C427.982 3.05 427.437 2.69027 426.748 2.19828C426.72 2.17756 426.692 2.15656 426.664 2.1353C425.872 1.53961 424.823 0.75 423 0.75C421.124 0.75 420.069 1.48404 419.245 2.20372C419.217 2.22378 419.189 2.24354 419.162 2.263C418.847 2.48833 418.59 2.67264 418.285 2.80937C417.959 2.95565 417.569 3.05 417 3.05C415.982 3.05 415.437 2.69026 414.748 2.19825C414.72 2.17755 414.692 2.15655 414.664 2.13531C413.872 1.53961 412.823 0.75 411 0.75C409.124 0.75 408.069 1.48404 407.245 2.20372C407.217 2.22378 407.189 2.24353 407.162 2.26298C406.847 2.48832 406.59 2.67263 406.285 2.80937C405.959 2.95565 405.569 3.05 405 3.05C404.431 3.05 404.041 2.95565 403.715 2.80937C403.41 2.67263 403.153 2.48832 402.838 2.26298C402.809 2.24178 402.778 2.22021 402.748 2.19828C402.72 2.17756 402.692 2.15656 402.664 2.1353C401.872 1.53961 400.823 0.75 399 0.75C397.124 0.75 396.069 1.48404 395.245 2.20371C395.217 2.22378 395.189 2.24354 395.162 2.26299C394.847 2.48833 394.59 2.67263 394.285 2.80937C393.959 2.95565 393.569 3.05 393 3.05C391.982 3.05 391.437 2.69026 390.748 2.19826C390.72 2.17755 390.692 2.15655 390.664 2.1353C389.872 1.53961 388.823 0.75 387 0.75C386.643 0.75 386.326 0.870028 386.098 1.09822C385.87 1.32642 385.75 1.64319 385.75 2C385.75 2.35681 385.87 2.67358 386.098 2.90178C386.326 3.12997 386.643 3.25 387 3.25C388.018 3.25 388.563 3.60973 389.252 4.10174C389.28 4.12245 389.308 4.14345 389.336 4.1647C390.128 4.76039 391.177 5.55 393 5.55C394.876 5.55 395.931 4.81595 396.755 4.09628C396.783 4.07622 396.811 4.05647 396.838 4.03701C397.153 3.81167 397.41 3.62736 397.715 3.49063C398.041 3.34434 398.431 3.25 399 3.25C399.569 3.25 399.959 3.34434 400.285 3.49063C400.59 3.62736 400.847 3.81167 401.162 4.03701C401.191 4.05822 401.222 4.07979 401.252 4.10172C401.28 4.12243 401.308 4.14344 401.336 4.16469C402.128 4.76039 403.177 5.55 405 5.55C406.876 5.55 407.931 4.81595 408.755 4.09628C408.783 4.07622 408.811 4.05646 408.838 4.03701C409.153 3.81167 409.41 3.62736 409.715 3.49063C410.041 3.34434 410.431 3.25 411 3.25C412.018 3.25 412.563 3.60973 413.252 4.10174C413.28 4.12245 413.308 4.14345 413.336 4.1647C414.128 4.76039 415.177 5.55 417 5.55C418.876 5.55 419.931 4.81595 420.755 4.09628C420.783 4.07621 420.811 4.05646 420.838 4.037C421.153 3.81167 421.41 3.62736 421.715 3.49063C422.041 3.34434 422.431 3.25 423 3.25C424.018 3.25 424.563 3.60972 425.252 4.10171C425.28 4.12243 425.308 4.14344 425.336 4.1647C426.128 4.76039 427.177 5.55 429 5.55C430.876 5.55 431.931 4.81595 432.755 4.09628C432.783 4.07621 432.811 4.05646 432.838 4.037C433.153 3.81167 433.41 3.62736 433.715 3.49063C434.041 3.34434 434.431 3.25 435 3.25C435.569 3.25 435.959 3.34434 436.285 3.49063C436.59 3.62736 436.847 3.81167 437.162 4.037C437.191 4.0582 437.222 4.07976 437.252 4.10169C437.28 4.12241 437.308 4.14343 437.336 4.1647C438.128 4.76039 439.177 5.55 441 5.55C442.876 5.55 443.931 4.81595 444.755 4.09628C444.783 4.07621 444.811 4.05646 444.838 4.037C445.153 3.81167 445.41 3.62736 445.715 3.49063C446.041 3.34434 446.431 3.25 447 3.25C448.018 3.25 448.563 3.60972 449.252 4.10171C449.28 4.12243 449.308 4.14344 449.336 4.1647C450.128 4.76039 451.177 5.55 453 5.55C454.876 5.55 455.931 4.81595 456.755 4.09628C456.783 4.07621 456.811 4.05644 456.838 4.03698C457.153 3.81166 457.41 3.62736 457.715 3.49063C458.041 3.34434 458.431 3.25 459 3.25C459.569 3.25 459.959 3.34434 460.285 3.49063C460.59 3.62736 460.847 3.81166 461.162 4.03699C461.191 4.05819 461.222 4.07976 461.252 4.10169C461.28 4.12241 461.308 4.14342 461.336 4.16468C462.128 4.76038 463.177 5.55 465 5.55C466.876 5.55 467.931 4.81595 468.755 4.09628C468.783 4.07621 468.811 4.05644 468.838 4.03698C469.153 3.81166 469.41 3.62736 469.715 3.49063C470.041 3.34434 470.431 3.25 471 3.25C471.357 3.25 471.674 3.12997 471.902 2.90178C472.13 2.67358 472.25 2.35681 472.25 2C472.25 1.24596 471.622 0.75 471 0.75Z" fill="white" stroke="white" stroke-width="0.5"/>
</svg>
