<svg width="37" height="37" viewBox="0 0 37 37" fill="none" xmlns="http://www.w3.org/2000/svg">
<path d="M19.454 20.3066C13.2509 18.6698 6.61316 19.2303 0.790894 21.9958C7.07232 23.8348 13.8543 23.3953 19.8165 20.6691L24.3092 25.1617C18.1061 23.5251 11.4685 24.0856 5.64639 26.851C11.9278 28.69 18.7096 28.2505 24.6718 25.5244L28.9309 29.7834C22.7278 28.1468 16.0902 28.7073 10.2681 31.4727C16.5494 33.3117 23.3313 32.8722 29.2935 30.1461L32.1803 33.0328L33.0326 32.1805L30.1467 29.2946C32.8742 23.3317 33.3142 16.5485 31.4748 10.266C28.7084 16.0901 28.1485 22.7302 29.7872 28.9351L25.525 24.6729C28.2525 18.71 28.6925 11.9268 26.8531 5.64431C24.0867 11.4684 23.5268 18.1085 25.1655 24.3134L20.6696 19.8176C23.3971 13.8546 23.8371 7.07143 21.9977 0.78894C19.2314 6.61308 18.6714 13.2532 20.3101 19.4581L16.4717 15.6197C18.0842 12.5887 18.2693 8.98478 17.0385 5.78254C15.4013 8.63753 15.0625 12.0503 16.0172 15.1652L11.8194 10.9673L10.9671 11.8196L15.1647 16.0172C12.0499 15.0627 8.6373 15.4015 5.78243 17.0386C8.98451 18.2693 12.5903 18.0823 15.6193 16.4719L19.454 20.3066Z" fill="#CD4842"/>
<path d="M15.1409 36.3542C20.2788 33.2352 26.3192 32.1309 32.1327 33.0281C26.9971 36.1492 20.9567 37.2536 15.1409 36.3542Z" fill="#CD4842"/>
<path d="M36.3541 15.1411C33.2351 20.2789 32.1308 26.3193 33.028 32.1329C36.1491 26.9972 37.2535 20.9568 36.3541 15.1411Z" fill="#CD4842"/>
</svg>
