<svg id="Layer_1" data-name="Layer 1" xmlns="http://www.w3.org/2000/svg" viewBox="0 0 100 79.32"><defs><style>.cls-1{fill:#fff;}.cls-2,.cls-3{fill:#302858;}.cls-2{fill-rule:evenodd;}</style></defs><title>logo-lazy8</title><polygon id="_Path_" data-name="&lt;Path&gt;" class="cls-1" points="72.11 62.86 75.25 45.27 76.75 40.97 88 41.65 90.65 44.45 86.29 51.47 84.65 51.61 81.38 59.31 72.38 64.97 72.11 62.86"/><path id="_Path_2" data-name="&lt;Path&gt;" class="cls-2" d="M42.56,24.14,49.9,21a23.66,23.66,0,0,0-14-4.95l-22-13.35,3.48,7.51L1.29,0,21,17.2l-.28-6.39,9.06,8L18.17,23.44C14,24.68,9.8,25.61,4.48,23.92A27.56,27.56,0,0,1,0,27.13s1.34.57,12.87,1.62c10.52,1,19.52,1.93,26.64,5.17Z"/><g id="_Group_" data-name="&lt;Group&gt;"><path class="cls-1" d="M44.6,40.25v-.14c-3.76-2-5.84-4.77-5.84-9.13,0-8.53,7.12-13,16-13,7.18,0,14.1,3.09,14.1,11.68,0,6.25-3.76,10.28-8.6,11.29V41c4.57,1.75,6.85,6,6.85,11.36,0,8.32-9.13,14.5-17.46,14.5-10,0-16.45-5.3-16.45-13.7A13.19,13.19,0,0,1,44.6,40.25Zm5,20.55c5.92,0,9.88-4,9.88-9.47,0-5.31-3.7-7.53-8.8-7.53-6,0-9.81,3.3-9.81,9.21C40.84,58.45,44.81,60.8,49.57,60.8ZM53.4,38.1c5,0,8.2-2.42,8.2-7.59,0-4.64-3.5-6.52-7.39-6.52-5,0-8.2,3.16-8.2,7.66C46,35.88,49.44,38.1,53.4,38.1Z"/></g><path id="_Compound_Path_" data-name="&lt;Compound Path&gt;" class="cls-3" d="M92.5,74.87c-3-.3-6.64-2.25-8.69-3.52s-5.36-5.11-5.36-5.11,5.26-9,5.75-10.53A14.77,14.77,0,0,0,84.81,53l1.89-.51L89,53l-.29,1.21,4.59,1L90.1,53.66l.29-1.2-2.6-.79.76-1,1.86-.17-.62,1.17,5.86.06-3.93-.92L92,49.45l-2.34-.06A10.49,10.49,0,0,0,91,46.53c.31-1.38.5-3.3.5-3.3L92,41.69a29.9,29.9,0,0,0,.67-5l-4.72,3.58a17.94,17.94,0,0,0-4.22-1.3,17.15,17.15,0,0,0-4,.3s-1.34-1.72-1.77-2.47-1.24-2.59-1.24-2.59a12.88,12.88,0,0,0-1.8,4.57,7.43,7.43,0,0,0,.48,3.58l-.62,1.17A5.14,5.14,0,0,0,74.17,46l-2-.37.25-.86-4.89-.49L71.1,45.7l-.95.25,3.69,1.21-.4.66-1.85-.31.64-.51-4-.35,2.74.71-.71.77,2.89.42a55.33,55.33,0,0,1-4.57,3.67c-1.06.6-1.74.7-4.24-1.13s-8.88-6.7-12.32-9.16a20.69,20.69,0,0,0-2.35-1.42l-9,3.66-3.88,9.22c2.94,1.19,6.28,3.41,8.32,4.41,2.71,1.32,17.48,11.08,20.64,13s11.77,4.9,15.8,6.16a47.34,47.34,0,0,0,13.17,2.38L100,75.26S95.49,75.16,92.5,74.87Zm-9-28.95a2.08,2.08,0,0,1,2.35-2.1,2.61,2.61,0,0,0-.21,1.61,1.1,1.1,0,0,0,1,.9s-.42-.75,0-1.24a3,3,0,0,1,1.25-.76s1.22,1.18,1,2.21a2.71,2.71,0,0,1-2.7,1.85C84,48.13,83.36,47,83.46,45.92Zm-.27,3.58-1.25,1.16-1.12-1.35Zm-6.36-4.24a2.08,2.08,0,0,1,2.34-2.1,2.58,2.58,0,0,0-.2,1.61,1.08,1.08,0,0,0,1,.89s-.43-.74,0-1.24a3,3,0,0,1,1.24-.75s1.23,1.18,1,2.21a2.7,2.7,0,0,1-2.7,1.84C77.36,47.47,76.72,46.3,76.83,45.26ZM78.5,56.61a29.68,29.68,0,0,0,.91-3.26l2.31,1.16A11.59,11.59,0,0,1,80,57.64a8.47,8.47,0,0,1-3,2.56S78,58,78.5,56.61Z"/><path id="_Path_3" data-name="&lt;Path&gt;" class="cls-1" d="M43.43,59a7.2,7.2,0,0,1-1.88-2.45A8.05,8.05,0,0,1,40.84,53a8.79,8.79,0,0,1,2.59-6.82,10.24,10.24,0,0,1,7.22-2.39,10.71,10.71,0,0,1,6.12,1.66L59.67,42l-6-3.9H53.4a9.76,9.76,0,0,1-2.82-.41,6.9,6.9,0,0,1-2.35-1.21,5.8,5.8,0,0,1-1.61-2,5.3,5.3,0,0,1-.46-1.34L39,28.43A14.76,14.76,0,0,0,38.76,31a9.24,9.24,0,0,0,1.51,5.44,12.55,12.55,0,0,0,4.33,3.69v.14a13.91,13.91,0,0,0-4.19,1.37,13.53,13.53,0,0,0-3.66,2.72,13.21,13.21,0,0,0-2.59,3.9,12,12,0,0,0-1,4.9,13.32,13.32,0,0,0,1.17,5.68,12.15,12.15,0,0,0,3.33,4.3,13.9,13.9,0,0,0,2.77,1.76l4.27-5.08A7.1,7.1,0,0,1,43.43,59Z"/></svg>