<svg width="292" height="180" viewBox="0 0 292 180" fill="none" xmlns="http://www.w3.org/2000/svg">
<path fill-rule="evenodd" clip-rule="evenodd" d="M23.7101 160.226C18.5851 169.029 10.5038 175.854 0.861885 179.286C5.84881 170.17 13.956 163.05 23.7101 159.419L23.7101 149.327C18.5851 158.13 10.5038 164.954 0.861886 168.386C5.84881 159.271 13.956 152.151 23.7101 148.52L23.7101 138.952C18.5851 147.755 10.5038 154.58 0.861887 158.012C5.84881 148.896 13.956 141.776 23.7101 138.145L23.7101 131.667L25.6234 131.667L25.6234 138.147C35.3752 141.779 43.4805 148.897 48.4666 158.012C38.8278 154.581 30.7487 147.76 25.6234 138.96L25.6234 148.521C35.3752 152.153 43.4805 159.272 48.4666 168.386C38.8278 164.956 30.7487 158.135 25.6234 149.335L25.6234 159.421C35.3753 163.053 43.4806 170.171 48.4667 179.286C38.8278 175.855 30.7487 169.034 25.6234 160.234L25.6234 168.842C30.8308 170.435 35.0878 174.272 37.3004 179.247C32.2586 177.88 28.048 174.43 25.6234 169.863L25.6234 179.286L23.7101 179.286L23.7101 169.863C21.2855 174.43 17.0749 177.88 12.033 179.247C14.2457 174.272 18.4984 170.434 23.7101 168.842L23.7101 160.226ZM48.4762 147.063C39.2088 144.797 31.1895 139.257 25.6715 131.725C34.9389 133.986 42.9581 139.527 48.4762 147.063ZM0.857238 147.063C10.1247 144.797 18.1439 139.257 23.662 131.725C14.3945 133.986 6.37529 139.527 0.857238 147.063Z" fill="#481511"/>
<path fill-rule="evenodd" clip-rule="evenodd" d="M210.615 128.083C205.49 136.887 197.408 143.711 187.767 147.143C192.753 138.027 200.861 130.907 210.615 127.276L210.615 117.184C205.49 125.987 197.408 132.812 187.767 136.244C192.753 127.128 200.861 120.008 210.615 116.377L210.615 106.809C205.49 115.613 197.408 122.437 187.767 125.869C192.753 116.753 200.861 109.634 210.615 106.002L210.615 99.5239L212.528 99.5239L212.528 106.004C222.28 109.636 230.385 116.755 235.371 125.869C225.732 122.438 217.653 115.617 212.528 106.818L212.528 116.379C222.28 120.011 230.385 127.129 235.371 136.244C225.732 132.813 217.653 125.992 212.528 117.192L212.528 127.278C222.28 130.91 230.385 138.029 235.371 147.143C225.733 143.712 217.653 136.891 212.528 128.091L212.528 136.7C217.735 138.292 221.992 142.129 224.205 147.104C219.163 145.737 214.953 142.287 212.528 137.72L212.528 147.143L210.615 147.143L210.615 137.72C208.19 142.287 203.98 145.737 198.938 147.104C201.15 142.129 205.403 138.291 210.615 136.699L210.615 128.083ZM235.381 114.921C226.113 112.655 218.094 107.115 212.576 99.5825C221.844 101.844 229.863 107.384 235.381 114.921ZM187.762 114.921C197.029 112.655 205.049 107.115 210.567 99.5825C201.299 101.844 193.28 107.384 187.762 114.921Z" fill="#481511"/>
<path fill-rule="evenodd" clip-rule="evenodd" d="M272.759 15.0028C268.915 8.40321 262.855 3.28746 255.626 0.714264C259.366 7.55004 265.445 12.889 272.759 15.6131V23.1769C268.915 16.5775 262.855 11.4618 255.626 8.8887C259.366 15.7244 265.445 21.0634 272.759 23.7874V30.9579C268.915 24.3585 262.855 19.2429 255.626 16.6697C259.366 23.5054 265.445 28.8444 272.759 31.5685V36.4286H274.193V31.5699C281.509 28.8463 287.589 23.5067 291.33 16.6697C284.098 19.2438 278.037 24.362 274.193 30.9647V23.7889C281.509 21.0653 287.589 15.7256 291.33 8.8887C284.098 11.4627 278.037 16.5809 274.193 23.1837V15.6145C281.509 12.8909 287.589 7.5512 291.33 0.714264C284.098 3.28829 278.037 8.40651 274.193 15.0092V8.54692C278.102 7.35284 281.292 4.47489 282.951 0.743176C279.17 1.76835 276.012 4.35599 274.193 7.78167V0.714264L272.759 0.714264V7.78127C270.94 4.35579 267.782 1.76831 264.001 0.743176C265.66 4.47471 268.853 7.35256 272.759 8.54674V15.0028ZM255.619 24.8809C262.57 26.5804 268.584 30.7355 272.723 36.3846C265.772 34.6887 259.758 30.5336 255.619 24.8809ZM291.333 24.8809C284.383 26.5804 278.368 30.7355 274.23 36.3846C281.18 34.6887 287.195 30.5336 291.333 24.8809Z" fill="#481511"/>
</svg>
