<svg width="20" height="20" viewBox="0 0 20 20" fill="none" xmlns="http://www.w3.org/2000/svg">
<path fill-rule="evenodd" clip-rule="evenodd" d="M4.4561 0.175248C4.68989 0.155854 5.89262 0.151611 10.005 0.151611H13.2111C15.5216 0.155626 15.6531 0.174668 16.092 0.23823L16.1175 0.241914C17.0672 0.378884 17.8641 0.757672 18.5158 1.3801C18.8809 1.73146 19.1325 2.0751 19.359 2.53525C19.635 3.09737 19.7706 3.62919 19.8328 4.4201C19.8461 4.58979 19.8522 7.2904 19.8522 9.99282C19.8522 12.6948 19.8466 15.4004 19.8332 15.5701C19.7719 16.3484 19.6363 16.8848 19.3688 17.4363C18.837 18.5333 17.8597 19.3333 16.6794 19.6378C16.2514 19.7484 15.8643 19.8004 15.1976 19.8318C14.9597 19.8439 12.4719 19.8469 9.98398 19.8469C7.4961 19.8469 5.00974 19.8393 4.7658 19.8287C4.19004 19.8015 3.74156 19.7439 3.3355 19.6393C2.16277 19.3363 1.16731 18.5242 0.646102 17.4424C0.373375 16.8772 0.244587 16.3606 0.176405 15.5393C0.156708 15.306 0.152163 14.1045 0.152163 9.9954C0.152163 9.49195 0.151962 9.03509 0.15178 8.61979C0.151461 7.8931 0.151199 7.29369 0.152163 6.79464C0.156036 4.48156 0.174847 4.35178 0.238833 3.91035C0.239929 3.90279 0.241039 3.89513 0.242163 3.88737C0.379284 2.93858 0.758072 2.1404 1.38307 1.49161C1.72625 1.13585 2.07398 0.882066 2.51489 0.663126C3.08701 0.378278 3.61216 0.245399 4.4561 0.175248ZM7.00172 2.77123C7.77748 2.73593 8.02536 2.72729 10.0005 2.72729H9.99823C11.974 2.72729 12.221 2.73593 12.9967 2.77123C13.771 2.80669 14.2998 2.92926 14.7634 3.10911C15.2422 3.29472 15.6467 3.5432 16.0513 3.94775C16.4558 4.35199 16.7043 4.75775 16.8907 5.23608C17.0694 5.69851 17.1922 6.22699 17.2285 7.00123C17.2634 7.77699 17.2725 8.02487 17.2725 10C17.2725 11.9752 17.2634 12.2224 17.2285 12.9982C17.1922 13.7721 17.0694 14.3008 16.8907 14.7634C16.7043 15.2415 16.4558 15.6473 16.0513 16.0515C15.6472 16.4561 15.242 16.7052 14.7638 16.8909C14.3011 17.0708 13.772 17.1934 12.9978 17.2288C12.222 17.2641 11.9749 17.2728 9.9996 17.2728C8.0246 17.2728 7.77687 17.2641 7.00111 17.2288C6.22702 17.1934 5.69839 17.0708 5.23566 16.8909C4.75763 16.7052 4.35187 16.4561 3.94778 16.0515C3.54339 15.6473 3.2949 15.2415 3.10899 14.7632C2.92929 14.3008 2.80672 13.7723 2.77111 12.9981C2.73596 12.2223 2.72717 11.9752 2.72717 10C2.72717 8.02487 2.73626 7.77684 2.77096 7.00108C2.80581 6.22714 2.92854 5.69851 3.10884 5.23593C3.2952 4.75775 3.54369 4.35199 3.94823 3.94775C4.35248 3.54336 4.75823 3.29487 5.23657 3.10911C5.69899 2.92926 6.22748 2.80669 7.00172 2.77123ZM9.75811 4.03783C9.61105 4.03776 9.47477 4.0377 9.34808 4.0379V4.03608C7.99263 4.0376 7.73263 4.04669 7.06172 4.07699C6.35263 4.10957 5.96763 4.22775 5.71126 4.32775C5.37187 4.45987 5.12945 4.61745 4.8749 4.87199C4.62035 5.12654 4.46248 5.36896 4.33066 5.70836C4.23111 5.96472 4.11263 6.34957 4.0802 7.05866C4.04535 7.82533 4.03838 8.05442 4.03838 9.99654C4.03838 11.9387 4.04535 12.169 4.0802 12.9356C4.11248 13.6447 4.23111 14.0296 4.33066 14.2856C4.46278 14.6252 4.62035 14.867 4.8749 15.1215C5.12945 15.3761 5.37187 15.5337 5.71126 15.6655C5.96778 15.765 6.35263 15.8835 7.06172 15.9162C7.82839 15.9511 8.05854 15.9587 10.0005 15.9587C11.9423 15.9587 12.1726 15.9511 12.9393 15.9162C13.6484 15.8838 14.0335 15.7656 14.2896 15.6656C14.6291 15.5338 14.8708 15.3762 15.1254 15.1217C15.3799 14.8673 15.5378 14.6256 15.6696 14.2862C15.7691 14.0302 15.8876 13.6453 15.9201 12.9362C15.9549 12.1696 15.9625 11.9393 15.9625 9.99836C15.9625 8.05745 15.9549 7.82714 15.9201 7.06048C15.8878 6.35139 15.7691 5.96654 15.6696 5.71048C15.5375 5.37108 15.3799 5.12866 15.1254 4.87411C14.871 4.61957 14.629 4.46199 14.2896 4.33017C14.0332 4.23063 13.6484 4.11214 12.9393 4.07972C12.1725 4.04487 11.9423 4.0379 10.0005 4.0379C9.91658 4.0379 9.83584 4.03786 9.75811 4.03783ZM13.0099 6.1179C13.0099 5.63593 13.4008 5.24548 13.8826 5.24548V5.24517C14.3644 5.24517 14.7554 5.63608 14.7554 6.1179C14.7554 6.59972 14.3644 6.99063 13.8826 6.99063C13.4008 6.99063 13.0099 6.59972 13.0099 6.1179ZM6.26566 10C6.26566 7.9375 7.93785 6.26525 10.0004 6.26517C12.0629 6.26517 13.7347 7.93745 13.7347 10C13.7347 12.0626 12.0631 13.7341 10.0005 13.7341C7.93793 13.7341 6.26566 12.0626 6.26566 10ZM12.4247 10C12.4247 8.66108 11.3393 7.57578 10.0005 7.57578C8.66157 7.57578 7.57626 8.66108 7.57626 10C7.57626 11.3388 8.66157 12.4243 10.0005 12.4243C11.3393 12.4243 12.4247 11.3388 12.4247 10Z" fill="url(#paint0_radial)"/>
<defs>
<radialGradient id="paint0_radial" cx="0" cy="0" r="1" gradientUnits="userSpaceOnUse" gradientTransform="translate(5.38451 21.3639) rotate(-90) scale(19.5195 18.1596)">
<stop stop-color="#FFDD55"/>
<stop offset="0.1" stop-color="#FFDD55"/>
<stop offset="0.5" stop-color="#FF543E"/>
<stop offset="1" stop-color="#C837AB"/>
</radialGradient>
</defs>
</svg>
