<svg width="20" height="20" viewBox="0 0 20 20" fill="none" xmlns="http://www.w3.org/2000/svg">
<g clip-path="url(#clip0)">
<path d="M19.582 5.2003C19.3519 4.33421 18.6742 3.65211 17.8137 3.42063C16.2541 3 9.99988 3 9.99988 3C9.99988 3 3.74573 3 2.18601 3.42063C1.32552 3.65215 0.647814 4.33421 0.417797 5.2003C-0.00012207 6.77014 -0.00012207 10.0454 -0.00012207 10.0454C-0.00012207 10.0454 -0.00012207 13.3208 0.417797 14.8906C0.647814 15.7567 1.32552 16.4104 2.18601 16.6419C3.74573 17.0625 9.99988 17.0625 9.99988 17.0625C9.99988 17.0625 16.254 17.0625 17.8137 16.6419C18.6742 16.4104 19.3519 15.7567 19.582 14.8906C19.9999 13.3208 19.9999 10.0454 19.9999 10.0454C19.9999 10.0454 19.9999 6.77014 19.582 5.2003ZM7.95441 13.0192V7.07171L13.1817 10.0455L7.95441 13.0192Z" fill="#FF0000"/>
</g>
<defs>
<clipPath id="clip0">
<rect x="-0.00012207" width="20" height="20" fill="white"/>
</clipPath>
</defs>
</svg>
