<svg width="430" height="46" viewBox="0 0 430 46" fill="none" xmlns="http://www.w3.org/2000/svg">
<path d="M12.4818 37.4983H25.1223L28.9303 5.44758H32.0507L31.945 37.4983H37.7627V0.476013H23.8529L20.4152 32.421H17.3476L13.9098 0.476013H0V37.4983H5.60623V5.3418H8.77957L12.4818 37.4983Z" fill="white"/>
<path d="M48.3905 37.4983V21.7374H61.9301V37.4983H67.3777V0.476013H42.9959V37.4983H48.3905ZM48.3905 5.92358H61.9301V16.2898H48.3905V5.92358Z" fill="white"/>
<path d="M77.5245 37.4983V27.5023H80.8036L88.8428 37.4983H96.0357L87.1503 26.5503C88.8428 25.8627 90.4294 24.9107 91.7517 23.5885C94.3432 20.9969 95.7183 17.6121 95.7183 13.9627C95.7183 10.4191 94.3432 6.92847 91.7517 4.44269C89.1072 1.95691 85.8281 0.476013 82.1788 0.476013H71.9712V37.4983H77.5245ZM77.5245 6.02936H82.1788C86.5686 6.02936 90.2179 9.52003 90.2179 13.9627C90.2179 18.3525 86.5686 21.949 82.1788 21.949H77.5245V6.02936Z" fill="white"/>
<path d="M100.252 24.3818H109.983V37.4983H115.431V24.3818H125.162V0.476013H119.715V18.9872H105.699V0.476013H100.252V24.3818Z" fill="white"/>
<path d="M157.364 13.4792V8.03159H132.718V13.4792H142.344V45.0539H147.738V13.4792H157.364Z" fill="white"/>
<path d="M160.963 31.9374H170.694V45.0539H176.142V31.9374H185.873V8.03159H180.426V26.5427H166.41V8.03159H160.963V31.9374Z" fill="white"/>
<path d="M227.86 0L198.877 13.1694V0.476001H193.429V37.4983H198.877V24.7521L227.86 37.8685V31.6276L199.934 18.9343L227.86 6.18802V0Z" fill="white"/>
<path d="M256.827 0.476001H244.187L240.379 32.5267H237.258L237.364 0.476001H231.546V37.4983H245.456L248.894 5.55335H251.961L255.399 37.4983H269.309V0.476001H263.703V32.6325H260.529L256.827 0.476001Z" fill="white"/>
<path d="M279.937 37.4983V21.7374H293.476V37.4983H298.924V0.476001H274.542V37.4983H279.937ZM279.937 5.92357H293.476V16.2898H279.937V5.92357Z" fill="white"/>
<path d="M331.76 8.03159H319.12L315.312 40.0823H312.191L312.297 8.03159H306.479V45.0539H320.389L323.827 13.1089H326.895L330.332 45.0539H344.242V8.03159H338.636V40.1881H335.463L331.76 8.03159Z" fill="white"/>
<path d="M354.87 45.0539V29.293H368.409V45.0539H373.857V8.03159H349.475V45.0539H354.87ZM354.87 13.4792H368.409V23.8454H354.87V13.4792Z" fill="white"/>
<path d="M384.004 45.0539V35.0579H387.283L395.322 45.0539H402.515L393.63 34.1059C395.322 33.4183 396.909 32.4663 398.231 31.1441C400.823 28.5525 402.198 25.1676 402.198 21.5183C402.198 17.9747 400.823 14.484 398.231 11.9983C395.587 9.51248 392.307 8.03159 388.658 8.03159H378.451V45.0539H384.004ZM384.004 13.5849H388.658C393.048 13.5849 396.697 17.0756 396.697 21.5183C396.697 25.9081 393.048 29.5045 388.658 29.5045H384.004V13.5849Z" fill="white"/>
<path d="M411.013 45.0539V29.293H424.552V45.0539H430V8.03159H405.618V45.0539H411.013ZM411.013 13.4792H424.552V23.8454H411.013V13.4792Z" fill="white"/>
</svg>
