<svg width="267" height="9" viewBox="0 0 267 9" fill="none" xmlns="http://www.w3.org/2000/svg">
<path fill-rule="evenodd" clip-rule="evenodd" d="M53.3921 0.352417L53.3906 0L46.4819 4.06813L40.2961 0.434021L33.1362 4.62944L26.9485 0.490479L19.915 4.81157L13.6008 0.546921L6.44287 5.24719L0 0.352005L0.0129395 3.39998L6.44287 8.28535L13.6008 3.58508L19.915 7.84973L26.9485 3.52864L33.1362 7.6676L40.2961 3.47218L46.4819 7.10629L53.3906 3.03816L53.3921 3.39058L59.8345 8.28535L66.9924 3.58508L73.3066 7.84973L80.3401 3.52864L86.5278 7.6676L93.6877 3.47218L99.8735 7.10629L106.782 3.03816L106.784 3.39038L113.226 8.28535L120.384 3.58508L126.698 7.84973L133.732 3.52864L139.92 7.6676L147.08 3.47218L153.265 7.10629L160.174 3.03816L160.176 3.39058L166.618 8.28535L173.776 3.58508L180.09 7.84973L187.124 3.52864L193.311 7.6676L200.471 3.47218L206.657 7.10629L213.566 3.03816L213.567 3.39058L220.01 8.28535L227.167 3.58508L233.482 7.84973L240.515 3.52864L246.703 7.6676L253.863 3.47218L260.049 7.10629L266.957 3.03816L266.965 4.80492L266.978 4.79613L266.957 0L260.049 4.06813L253.863 0.434021L246.703 4.62944L240.515 0.490479L233.482 4.81157L227.167 0.546921L220.01 5.24719L213.567 0.352417L213.566 0L206.657 4.06813L200.471 0.434021L193.311 4.62944L187.124 0.490479L180.09 4.81157L173.776 0.546921L166.618 5.24719L160.176 0.352417L160.174 0L153.265 4.06813L147.08 0.434021L139.92 4.62944L133.732 0.490479L126.698 4.81157L120.384 0.546921L113.226 5.24719L106.784 0.352219L106.782 0L99.8735 4.06813L93.6877 0.434021L86.5278 4.62944L80.3401 0.490479L73.3066 4.81157L66.9924 0.546921L59.8345 5.24719L53.3921 0.352417Z" fill="white"/>
</svg>
