<svg width="20" height="20" viewBox="0 0 20 20" fill="none" xmlns="http://www.w3.org/2000/svg">
<g clip-path="url(#clip0)">
<path fill-rule="evenodd" clip-rule="evenodd" d="M19.9998 18.8961C19.9998 19.5057 19.5056 20 18.8961 20H1.10384C0.494027 20 0 19.5057 0 18.8961V1.10384C0 0.494104 0.494104 0 1.10384 0H18.8961C19.5057 0 19.9998 0.494104 19.9998 1.10384V18.8961ZM13.7997 12.2548V19.9999H10.6827V12.2548H8.07638V9.23644H10.6827V7.01045C10.6827 4.42725 12.2604 3.0206 14.5648 3.0206C15.6687 3.0206 16.6175 3.10278 16.8939 3.13956V5.83925L15.2956 5.83995C14.0424 5.83995 13.7997 6.43548 13.7997 7.30938V9.23644H16.7887L16.3994 12.2548H13.7997Z" fill="#3C5A99"/>
</g>
<defs>
<clipPath id="clip0">
<rect width="19.9999" height="20" fill="white"/>
</clipPath>
</defs>
</svg>
